<?xml version="1.0" encoding="utf-8"?>
<!-- Generator: Adobe Illustrator 25.3.1, SVG Export Plug-In . SVG Version: 6.00 Build 0)  -->
<svg version="1.1" id="Слой_1" xmlns="http://www.w3.org/2000/svg" xmlns:xlink="http://www.w3.org/1999/xlink" x="0px" y="0px"
	 viewBox="0 0 255.8660126 87.1419907" style="enable-background:new 0 0 255.8660126 87.1419907;" xml:space="preserve">
<style type="text/css">
	.st0{fill:#F0E9CF;}
	.st1{fill:none;stroke:#4F2833;stroke-width:8;stroke-miterlimit:40;}
	.st2{fill:none;stroke:#FFFFFF;stroke-width:2;stroke-miterlimit:40;stroke-dasharray:8,8;}
	.st3{fill:#4F2833;}
	.st4{fill:none;stroke:#F0E9CF;stroke-width:6;stroke-miterlimit:40;}
	.st5{fill:none;stroke:#4F2833;stroke-width:2;stroke-miterlimit:40;stroke-dasharray:8,8;}
</style>
<g>
	<g>
		<g>
			<g>
				<g>
					<path class="st0" d="M13.3659983,83.1419907c-4.9727707,0-9.0039978-4.0312347-9.0039978-9.0039978
						c0-0.0006714,0-0.0013275,0-0.0019989V13.0039978C4.3620005,8.0312271,8.3932276,4,13.3659983,4h229.4960175
						c4.9727783,0,9.0039978,4.0312271,9.0039978,9.0039978V74.135994c0.0010986,4.9727783-4.0292358,9.0048981-9.0020142,9.0059967
						c-0.0006409,0-0.0013123,0-0.0019836,0H13.3659983z"/>
					<path class="st1" d="M13.3659983,83.1419907c-4.9727707,0-9.0039978-4.0312347-9.0039978-9.0039978
						c0-0.0006714,0-0.0013275,0-0.0019989V13.0039978C4.3620005,8.0312271,8.3932276,4,13.3659983,4h229.4960175
						c4.9727783,0,9.0039978,4.0312271,9.0039978,9.0039978V74.135994c0.0010986,4.9727783-4.0292358,9.0048981-9.0020142,9.0059967
						c-0.0006409,0-0.0013123,0-0.0019836,0H13.3659983z"/>
				</g>
				<g>
					<path class="st0" d="M13.3659983,83.1419907c-4.9727707,0-9.0039978-4.0312347-9.0039978-9.0039978
						c0-0.0006714,0-0.0013275,0-0.0019989V13.0039978C4.3620005,8.0312271,8.3932276,4,13.3659983,4h229.4960175
						c4.9727783,0,9.0039978,4.0312271,9.0039978,9.0039978V74.135994c0.0010986,4.9727783-4.0292358,9.0048981-9.0020142,9.0059967
						c-0.0006409,0-0.0013123,0-0.0019836,0H13.3659983z"/>
					<path class="st1" d="M13.3659983,83.1419907c-4.9727707,0-9.0039978-4.0312347-9.0039978-9.0039978
						c0-0.0006714,0-0.0013275,0-0.0019989V13.0039978C4.3620005,8.0312271,8.3932276,4,13.3659983,4h229.4960175
						c4.9727783,0,9.0039978,4.0312271,9.0039978,9.0039978V74.135994c0.0010986,4.9727783-4.0292358,9.0048981-9.0020142,9.0059967
						c-0.0006409,0-0.0013123,0-0.0019836,0H13.3659983z"/>
				</g>
			</g>
		</g>
		<g>
			<path class="st2" d="M13.3340006,83.7080002c-4.9727707,0.0010986-9.0048904-4.0292358-9.0059967-9.0019989
				c0-0.0006714,0-0.0013275,0-0.0019989V13.5699921c0-4.9727707,4.0312271-9.0039978,9.0040054-9.0039978
				c0.0006638,0,0.0013275,0,0.0019913,0h229.4940186c4.9727783,0,9.0039978,4.0312271,9.0039978,9.0039978v61.1339951
				c0,4.9727631-4.0312195,9.0039978-9.0039978,9.0039978L13.3340006,83.7080002z"/>
		</g>
	</g>
	<g>
		<g>
			<g>
				<g>
					<path class="st3" d="M12.0059977,83.1419907c-4.9727707,0.0010986-9.0048904-4.0292358-9.0059967-9.0019989
						c0-0.0013275,0-0.0026703,0-0.0039978V13.0039978c-0.0022125-4.9727707,4.0272217-9.0057907,8.9999924-9.0080032
						c0.0020065,0,0.0040054,0,0.0060043,0h229.4940186c4.9727783-0.0011139,9.0049133,4.029213,9.006012,9.0019836
						c0,0.0013428,0,0.0026779,0,0.0040131V74.135994c0.0010986,4.9727783-4.0292358,9.0048981-9.0020142,9.0059967
						c-0.0013123,0-0.002655,0-0.0039978,0H12.0059977z"/>
					<path class="st4" d="M12.0059977,83.1419907c-4.9727707,0.0010986-9.0048904-4.0292358-9.0059967-9.0019989
						c0-0.0013275,0-0.0026703,0-0.0039978V13.0039978c-0.0022125-4.9727707,4.0272217-9.0057907,8.9999924-9.0080032
						c0.0020065,0,0.0040054,0,0.0060043,0h229.4940186c4.9727783-0.0011139,9.0049133,4.029213,9.006012,9.0019836
						c0,0.0013428,0,0.0026779,0,0.0040131V74.135994c0.0010986,4.9727783-4.0292358,9.0048981-9.0020142,9.0059967
						c-0.0013123,0-0.002655,0-0.0039978,0H12.0059977z"/>
				</g>
				<g>
					<path class="st3" d="M12.0059977,83.1419907c-4.9727707,0.0010986-9.0048904-4.0292358-9.0059967-9.0019989
						c0-0.0013275,0-0.0026703,0-0.0039978V13.0039978c-0.0022125-4.9727707,4.0272217-9.0057907,8.9999924-9.0080032
						c0.0020065,0,0.0040054,0,0.0060043,0h229.4940186c4.9727783-0.0011139,9.0049133,4.029213,9.006012,9.0019836
						c0,0.0013428,0,0.0026779,0,0.0040131V74.135994c0.0010986,4.9727783-4.0292358,9.0048981-9.0020142,9.0059967
						c-0.0013123,0-0.002655,0-0.0039978,0H12.0059977z"/>
					<path class="st4" d="M12.0059977,83.1419907c-4.9727707,0.0010986-9.0048904-4.0292358-9.0059967-9.0019989
						c0-0.0013275,0-0.0026703,0-0.0039978V13.0039978c-0.0022125-4.9727707,4.0272217-9.0057907,8.9999924-9.0080032
						c0.0020065,0,0.0040054,0,0.0060043,0h229.4940186c4.9727783-0.0011139,9.0049133,4.029213,9.006012,9.0019836
						c0,0.0013428,0,0.0026779,0,0.0040131V74.135994c0.0010986,4.9727783-4.0292358,9.0048981-9.0020142,9.0059967
						c-0.0013123,0-0.002655,0-0.0039978,0H12.0059977z"/>
				</g>
			</g>
		</g>
		<g>
			<path class="st5" d="M11.9720011,83.7080002c-4.9727707,0-9.0039978-4.0312347-9.0039978-9.0039978V13.5699921
				c0-4.9727707,4.0312271-9.0039978,9.0039978-9.0039978h229.4940186c4.9727783-0.0011139,9.0049133,4.029213,9.006012,9.0019913
				c0,0.0006638,0,0.0013351,0,0.0020065v61.1339951c0,4.9727783-4.0312195,9.0039978-9.0039978,9.0039978
				c-0.0006714,0-0.0013428,0-0.0020142,0L11.9720011,83.7080002z"/>
		</g>
	</g>
</g>
</svg>
