<?xml version="1.0" encoding="utf-8"?>
<!-- Generator: Adobe Illustrator 25.3.1, SVG Export Plug-In . SVG Version: 6.00 Build 0)  -->
<svg version="1.1" id="Слой_1" xmlns="http://www.w3.org/2000/svg" xmlns:xlink="http://www.w3.org/1999/xlink" x="0px" y="0px"
	 viewBox="0 0 35.7819977 35.781002" style="enable-background:new 0 0 35.7819977 35.781002;" xml:space="preserve">
<style type="text/css">
	.st0{fill:#4F2833;}
	.st1{fill:#F0E9CF;}
	.st2{fill:#FFFFFF;}
	.st3{opacity:0.83;}
	.st4{fill:#9D834F;}
	.st5{fill:#DC90B6;}
	.st6{fill:#4B481C;}
</style>
<g>
	<g>
		<g>
			<g>
				<g>
					<g>
						<path class="st0" d="M0,17.8910007C0,8.0100021,8.0100012,0,17.8899994,0c9.882,0,17.8919983,8.0100002,17.8919983,17.8899994
							c0,9.882-8.0100021,17.8910027-17.8910027,17.8910027S0.0009966,27.7709999,0.0009966,17.8910027L0,17.8910007z"/>
					</g>
				</g>
			</g>
		</g>
		<g>
			<g>
				<path class="st1" d="M3.1170006,17.8910007c0-8.1599998,6.6139994-14.7749996,14.7740021-14.7749996
					s14.7739983,6.6149998,14.7739983,14.7749996s-6.6149979,14.7740002-14.7740021,14.7740002
					C9.7309999,32.6650009,3.1169996,26.0499992,3.1170006,17.8910007z"/>
			</g>
			<g>
				<path class="st2" d="M17.8909988,3.1950006c8.1030006,0,14.696003,6.592,14.696003,14.6960001
					c0,8.1029987-6.5929985,14.6960011-14.6959991,14.6960011c-8.104001,0-14.6960011-6.5929985-14.6960011-14.6959991
					C3.1950016,9.7870026,9.7870016,3.1950026,17.8909988,3.1950006z M17.8909988,32.7439995
					c8.1900024,0,14.8530006-6.6640015,14.8530006-14.8530006c0-8.1899986-6.6640015-14.8520002-14.8530006-14.8520002
					c-8.1899996,0-14.8520012,6.6619997-14.8520012,14.8520002S9.7009974,32.7439995,17.8909988,32.7439995z"/>
			</g>
		</g>
		<g>
			<g>
				<path class="st2" d="M18.8429985,2.0210009c-0.617115-0.035924-1.2357712-0.0369253-1.8530006-0.0030003l-0.0439987-0.7799997
					c0.6471939-0.0360851,1.2959213-0.0350828,1.9430008,0.0030003L18.8429985,2.0210009z M13.1219988,1.901001
					c0.621563-0.1841507,1.253294-0.3320665,1.8920002-0.4429998l0.1340008,0.7699995
					c-0.6060009,0.1059999-1.2129993,0.2469997-1.8040009,0.4230003L13.1219988,1.901001z M20.6829987,2.236001l0.1369972-0.7699995
					c0.6360016,0.1129999,1.2719994,0.2650003,1.8910027,0.4499998l-0.2260017,0.75
					C21.8930969,2.4881411,21.2914314,2.3445702,20.6829987,2.236001z M9.5529966,3.4350014
					c0.5624599-0.3241262,1.1434593-0.6149597,1.7399998-0.8710003l0.3080006,0.7180004
					c-0.5677376,0.2447815-1.1209774,0.521903-1.6569996,0.8299999L9.5529966,3.4350014z M25.8789978,4.137001
					c-0.5345879-0.309701-1.0864906-0.5884924-1.6529999-0.835l0.3110008-0.7180004
					c0.5929985,0.257,1.1759987,0.552,1.7340012,0.8760004C26.2709999,3.460001,25.8790016,4.137001,25.8789978,4.137001z
					 M6.4379969,5.7500019C6.9089975,5.3070021,7.409997,4.8860016,7.9279966,4.5020018L8.395997,5.130002
					C7.8991327,5.4989204,7.4240065,5.8962498,6.9729967,6.3200016L6.4379969,5.7500019z M28.8419952,6.3510017
					c-0.4495926-0.4243107-0.923027-0.8226252-1.4179993-1.1929998l0.4679985-0.6260004
					c0.5180016,0.3859997,1.019001,0.8070002,1.4869995,1.2520008L28.8419952,6.3510017z M3.9370003,8.717001
					c0.3559999-0.5380001,0.7480001-1.0620003,1.165-1.5550003l0.5979996,0.5039997
					C5.302,8.1359997,4.9299994,8.6359997,4.5889997,9.1499996L3.9370003,8.717001z M30.1119995,7.7020016l0.5999985-0.5030003
					c0.4140015,0.4960003,0.8050003,1.0200005,1.1599998,1.5599995L31.218998,9.1890011
					C30.8786736,8.6726189,30.5090675,8.1761417,30.1119995,7.7020016z M2.185998,12.1820011
					c0.2229996-0.6070004,0.4829998-1.2080002,0.7740002-1.7840004l0.6990004,0.3530006
					c-0.2790003,0.5499992-0.526,1.1219997-0.7379999,1.7000008L2.185998,12.1820011z M32.1449966,10.7940006l0.7000008-0.3500004
					c0.2900009,0.5769997,0.5480003,1.1790009,0.769001,1.7870007l-0.7360001,0.2660007
					C32.6679993,11.9170017,32.4219971,11.3460007,32.1449966,10.7940006z M1.2849951,15.9570007
					c0.0769997-0.6429996,0.1899996-1.2870007,0.3400002-1.9139996l0.7609997,0.1800003
					c-0.1427059,0.6019459-0.2505531,1.2116261-0.323,1.8260002L1.2849951,15.9570007z M33.4069977,14.2740002l0.7610016-0.1800003
					c0.1479988,0.6289997,0.2599983,1.2740002,0.3330002,1.914999l-0.776001,0.0900002
					C33.6536484,15.4851341,33.5474777,14.8758183,33.4069977,14.2740002z M1.2829962,19.8719997
					c-0.074523-0.6439819-0.1119175-1.2917213-0.1120005-1.9400005v-0.0340004h0.7819996v0.0349998
					c0,0.6170006,0.0360003,1.2399998,0.1059999,1.8500004l-0.776,0.0900002L1.2829962,19.8719997z M33.7209969,19.7989998
					c0.0699997-0.6100006,0.1069984-1.2320004,0.1080017-1.8500004l0.7820015,0.0009995
					c-0.000927,0.6482849-0.0386543,1.2959938-0.112999,1.9400005L33.7209969,19.7989998z M2.173995,23.651001
					c-0.2212391-0.6097145-0.4068851-1.2317619-0.5559998-1.862999l0.7600002-0.1800003
					c0.1420002,0.598999,0.3199997,1.1969986,0.5319996,1.7750015C2.9099951,23.3830032,2.173995,23.6510048,2.173995,23.651001z
					 M32.8669968,23.3990021c0.2099991-0.5789986,0.3899994-1.1759987,0.5320015-1.7750015l0.762001,0.1809998
					c-0.1500015,0.6290016-0.3380013,1.2550011-0.5600014,1.8619995L32.8669968,23.3990021z M2.9459963,25.4360008l0.698-0.3510017
					c0.2770004,0.5499992,0.5889997,1.0900002,0.9279995,1.6040001l-0.6520004,0.4300003
					C3.5622225,26.5778236,3.2369804,26.015831,2.9459963,25.4360008z M31.2019958,26.7010002
					c0.3390007-0.5139999,0.651001-1.0530014,0.9280014-1.6020012l0.6990013,0.3510017
					c-0.2900009,0.5769997-0.6189995,1.1419983-0.9749985,1.6819992L31.2019958,26.7010002z M6.4159956,30.0919991
					c-0.4700003-0.4440002-0.9200001-0.9189987-1.335-1.4140015l0.599-0.5019989
					c0.3980904,0.4730949,0.8227768,0.9231567,1.2719994,1.3479996L6.4159956,30.0919991z M28.8199959,29.5319977
					c0.4490013-0.4220009,0.8759995-0.8759995,1.2729988-1.3460007l0.598999,0.5029984
					c-0.4160004,0.4939995-0.8650017,0.9700012-1.3349991,1.4119987L28.8199959,29.5319977z M9.5249949,32.4119987
					c-0.5607281-0.3252831-1.1022892-0.6825371-1.6219997-1.0699997l0.4669991-0.6259995
					c0.4950008,0.3670006,1.0160007,0.7109985,1.5470009,1.0200005L9.5249949,32.4119987z M25.8509979,31.7420006
					c0.5340004-0.3069992,1.0550003-0.6500015,1.5489998-1.019001l0.4669991,0.6279984
					c-0.5180016,0.3860016-1.0649986,0.7449989-1.6240005,1.0680008L25.8509979,31.7420006z M11.2609968,33.2859993
					l0.3099995-0.7179985c0.566,0.2439995,1.1520004,0.4580002,1.7399998,0.6339989l-0.2229996,0.75
					C12.4666281,33.765522,11.8566027,33.543148,11.2609968,33.2859993z M22.4539986,33.2080002
					c0.5900002-0.1759987,1.1759987-0.3899994,1.7420006-0.6339989l0.3100014,0.7190018
					c-0.5940018,0.2550011-1.2089996,0.4790001-1.8289986,0.6640015L22.4539986,33.2080002z M16.909996,34.6240005
					c-0.6471252-0.0377922-1.2915335-0.112915-1.9299994-0.2249985l0.1350002-0.7700005
					c0.6049995,0.1069984,1.224,0.1790009,1.8400011,0.2140007L16.909996,34.6240005z M18.8099976,33.8440018
					c0.6169243-0.0349388,1.2312927-0.1057243,1.8400002-0.2120018l0.1349983,0.7700005
					c-0.6359978,0.1119995-1.2849998,0.1860008-1.9309998,0.2229996L18.8099976,33.8440018z"/>
			</g>
		</g>
		<g class="st3">
			<g class="st3">
				<g class="st3">
					<path class="st4" d="M22.5489998,26.2470016c0.2190018,0,0.4339981-0.118,0.5499992-0.3269997
						c0.176136-0.3105812,0.0733414-0.7049255-0.2319984-0.8899994l-10.8740015-6.4360008
						c-0.2339439-0.1379166-0.3762321-0.3904495-0.3729992-0.6620007c0-0.1340008,0.0370007-0.4640007,0.3729992-0.6630001
						l10.8740015-6.4349995c0.3059654-0.1855049,0.4091606-0.5805588,0.2330017-0.8920002
						c-0.1666718-0.3041611-0.5483589-0.4156189-0.8525238-0.2489452C22.2416,9.6962776,22.235775,9.6995926,22.2299995,9.703001
						l-10.8729982,6.4349995c-0.6327744,0.3748302-1.0177193,1.0585804-1.0100002,1.7940006
						c-0.0070019,0.7347088,0.3778477,1.4175282,1.0100002,1.7919998l10.8740015,6.4349995
						c0.0999985,0.0589981,0.2099991,0.0870018,0.3180008,0.0870018L22.5489998,26.2470016z"/>
				</g>
			</g>
		</g>
		<g>
			<g>
				<g>
					<path class="st5" d="M22.8040009,26.1210022c0.3446236,0.001545,0.625248-0.2765732,0.6267929-0.6211929
						c0.0010109-0.2250862-0.1192818-0.4332733-0.3147926-0.5448074l-10.677001-6.1650009
						c-0.228281-0.1293488-0.368124-0.3726387-0.3649998-0.6350002c0-0.1259995,0.0349998-0.4430008,0.3649998-0.6340008
						l10.677001-6.1639996c0.3011703-0.1686535,0.408596-0.5495205,0.2399445-0.8506927
						c-0.1686554-0.3011703-0.5495224-0.408596-0.8506927-0.2399426c-0.0044479,0.002491-0.0088654,0.0050354-0.0132523,0.0076351
						l-10.677001,6.1630001c-0.6200008,0.3579998-0.9920006,1.0009995-0.9920006,1.7169991
						c0,0.7169991,0.3710003,1.3600006,0.9920006,1.7180004l10.677001,6.164999
						c0.0950584,0.0542107,0.2025681,0.0828133,0.3120003,0.0830002V26.1210022z"/>
				</g>
				<g>
					<path class="st6" d="M22.8030014,10.3470001c0.2595634,0.0022888,0.4681282,0.2145615,0.4658394,0.4741249
						c-0.0014496,0.1643028-0.0885963,0.3159218-0.2298393,0.3998756l-10.677001,6.1660004
						c-0.27775,0.1562119-0.4483185,0.4513531-0.4449997,0.7700005c0,0.1539993,0.0429993,0.5380001,0.4449997,0.7700005
						l10.677001,6.1640015c0.2236786,0.1317062,0.2982368,0.4197998,0.1665344,0.6434784
						c-0.0840225,0.1427002-0.2369385,0.2306519-0.4025345,0.2315216c-0.0822945-0.000206-0.1630554-0.0222931-0.2340012-0.0639992
						l-10.6750002-6.1630001c-0.5683041-0.3237667-0.9177265-0.9289494-0.9139996-1.5830002
						c0-0.6599998,0.342001-1.25,0.9139996-1.5809994l10.6750002-6.1650009
						c0.0712128-0.0408306,0.1519127-0.0622139,0.2340012-0.0620003V10.3470001z M22.8030014,26.2770004
						c0.4313354,0.0004807,0.7813873-0.3487968,0.781868-0.7801323c0.000309-0.2790718-0.1483154-0.5371056-0.3898697-0.6768684
						l-10.677001-6.1650009c-0.1798115-0.1018639-0.2901077-0.2933502-0.2880001-0.5
						c0-0.1000004,0.0279999-0.3479996,0.2880001-0.4990005l10.677001-6.1639996
						c0.3690071-0.2244091,0.4862289-0.7054691,0.2618179-1.0744762c-0.2172585-0.3572483-0.6771049-0.4803905-1.0438194-0.2795238
						l-10.6759996,6.164999c-0.6649189,0.37883-1.0739193,1.0867443-1.0699997,1.8519993
						c0,0.7740002,0.3999996,1.467001,1.0699997,1.8530006l10.6759996,6.164999
						C22.531765,26.2409325,22.666172,26.2767754,22.8030014,26.2770004z"/>
				</g>
			</g>
		</g>
	</g>
</g>
</svg>
