<?xml version="1.0" encoding="utf-8"?>
<!-- Generator: Adobe Illustrator 25.3.1, SVG Export Plug-In . SVG Version: 6.00 Build 0)  -->
<svg version="1.1" id="Слой_1" xmlns="http://www.w3.org/2000/svg" xmlns:xlink="http://www.w3.org/1999/xlink" x="0px" y="0px"
	 viewBox="0 0 35.7819977 35.781002" style="enable-background:new 0 0 35.7819977 35.781002;" xml:space="preserve">
<style type="text/css">
	.st0{fill:#4F2833;}
	.st1{fill:#F0E9CF;}
	.st2{fill:#FFFFFF;}
	.st3{opacity:0.83;}
	.st4{fill:#9D834F;}
	.st5{fill:#DC90B6;}
	.st6{fill:#4B481C;}
</style>
<g>
	<g>
		<g>
			<g>
				<g>
					<g>
						<path class="st0" d="M35.7809982,17.8910027c0,9.8799973-8.0089989,17.8899994-17.8899975,17.8899994
							S0,27.7719994,0,17.8899994C0,8.0100002,8.0099983,0,17.8919983,0c9.8799973,0,17.8899994,8.0100021,17.8899994,17.8910007
							L35.7809982,17.8910027z"/>
					</g>
				</g>
			</g>
		</g>
		<g>
			<g>
				<path class="st1" d="M17.8909969,32.6650009c-8.1590023,0-14.7740002-6.6140022-14.7740002-14.7740002
					S9.7309952,3.1160011,17.890995,3.1160011s14.7740021,6.6149998,14.7740021,14.7749996
					C32.6649971,26.0499992,26.0509968,32.6650009,17.8909969,32.6650009z"/>
			</g>
			<g>
				<path class="st2" d="M32.5869942,17.8910027c0,8.1030006-6.5919991,14.6959991-14.6959991,14.6959991
					c-8.1030006,0-14.6959991-6.5930023-14.6959991-14.6960011c0-8.1040001,6.5930023-14.6960001,14.6960011-14.6960001
					C25.9949951,3.1950026,32.5869942,9.7870026,32.5869942,17.8910027z M32.743,17.8909988
					c0-8.1900005-6.6620026-14.8520002-14.8520012-14.8520002c-8.1889992,0-14.8530006,6.6620016-14.8530006,14.8520002
					c0,8.1889992,6.6629982,14.8530006,14.8529987,14.8530006S32.743,26.0809975,32.743,17.8909988z"/>
			</g>
		</g>
		<g>
			<g>
				<path class="st2" d="M16.8929977,1.2410011c0.6470795-0.0380831,1.2958069-0.0390854,1.9430008-0.0030003l-0.0440006,0.7799997
					c-0.6172295-0.0339251-1.2358837-0.0329237-1.8530006,0.0030003L16.8929977,1.2410011z M22.4379978,2.651001
					c-0.5910015-0.1760006-1.198-0.3170004-1.8040009-0.4230003l0.1340008-0.7699995
					c0.6387062,0.1109333,1.2704372,0.2588491,1.8920002,0.4429998L22.4379978,2.651001z M13.2970009,2.6660013l-0.2260017-0.75
					c0.6190014-0.1849995,1.2550011-0.3369999,1.8910007-0.4499998L15.098999,2.236001
					C14.4905663,2.3445702,13.8889008,2.4881411,13.2970009,2.6660013z M25.8379993,4.1120014
					c-0.5360222-0.3080969-1.089262-0.5852184-1.6569996-0.8299999l0.3080006-0.7180004
					c0.5965405,0.2560406,1.1775398,0.546874,1.7399998,0.8710003L25.8379993,4.1120014z M9.5109978,3.460001
					c0.5580025-0.3240004,1.1410027-0.6190004,1.7340012-0.8760004l0.3110008,0.7180004
					c-0.5665092,0.2465076-1.118412,0.5252991-1.6529999,0.835C9.9029961,4.137001,9.5109978,3.460001,9.5109978,3.460001z
					 M28.809,6.3200016c-0.4510098-0.4237518-0.926136-0.8210812-1.4230003-1.1899996l0.4680004-0.6280003
					c0.5179996,0.3839998,1.0189991,0.8050003,1.4899998,1.2480001L28.809,6.3200016z M6.4030037,5.7840023
					c0.4679985-0.4450006,0.968998-0.8660011,1.4869995-1.2520008l0.4679985,0.6260004
					C7.8630295,5.5283766,7.389595,5.9266911,6.9400024,6.3510017L6.4030037,5.7840023z M31.192997,9.1499996
					c-0.3409996-0.5139999-0.7129993-1.0139999-1.1110001-1.4839993l0.5979996-0.5039997
					c0.4169998,0.493,0.809,1.0170002,1.1650009,1.5550003L31.192997,9.1499996z M4.5629997,9.1890011L3.9099998,8.7590008
					c0.3549995-0.539999,0.7459984-1.0639992,1.1599998-1.5599995l0.5999985,0.5030003
					C5.2729301,8.1761417,4.9033241,8.6726189,4.5629997,9.1890011z M32.8610001,12.4510021
					c-0.2120018-0.578001-0.4589996-1.1500015-0.7380028-1.7000008l0.6990013-0.3530006
					c0.2910004,0.5760002,0.5510025,1.177,0.7740021,1.7840004L32.8610001,12.4510021z M2.9039993,12.4970016l-0.7360001-0.2660007
					c0.2210007-0.6079998,0.4790001-1.210001,0.769001-1.7870007l0.7000008,0.3500004
					C3.3600006,11.3460007,3.1139984,11.9170017,2.9039993,12.4970016z M33.7190018,16.0490017
					c-0.0724449-0.6143742-0.180294-1.2240543-0.322998-1.8260002l0.7609978-0.1800003
					c0.1500015,0.6269989,0.2630005,1.2709999,0.3400002,1.9139996L33.7190018,16.0490017z M2.0569992,16.098999
					l-0.776001-0.0900002c0.0730019-0.6409988,0.1850014-1.2859993,0.3330002-1.914999L2.375,14.2740002
					C2.23452,14.8758183,2.1283493,15.4851341,2.0569992,16.098999z M34.4990005,19.8729992l-0.776001-0.0900002
					c0.0699997-0.6100006,0.1060028-1.2329998,0.1060028-1.8500004v-0.0349998h0.7819977v0.0340004
					c-0.0000839,0.6482792-0.0374756,1.2960186-0.1119995,1.9400005V19.8729992z M1.2839966,19.8899994
					c-0.0743446-0.6440067-0.112072-1.2917156-0.112999-1.9400005l0.7820015-0.0009995
					c0.0010033,0.618,0.038002,1.2399998,0.1080017,1.8500004L1.2839966,19.8899994z M32.8720016,23.3830032
					c0.211998-0.5780029,0.3899994-1.1760025,0.5319977-1.7750015l0.7600021,0.1800003
					c-0.1491165,0.631237-0.3347626,1.2532845-0.5559998,1.862999
					C33.6080017,23.6510048,32.8720016,23.3830032,32.8720016,23.3830032z M2.1809998,23.6669998
					c-0.2220001-0.6069984-0.4099998-1.2329979-0.5600014-1.8619995l0.762001-0.1809998
					c0.1420021,0.5990028,0.3220024,1.196003,0.5320015,1.7750015L2.1809998,23.6669998z M31.8620014,27.1189995
					l-0.6520004-0.4300003c0.3389988-0.5139999,0.6509991-1.0540009,0.9279995-1.6040001l0.697998,0.3510017
					C32.5450172,26.015831,32.2197723,26.5778236,31.8620014,27.1189995z M3.9279976,27.132
					C3.5719986,26.5919991,3.243,26.0270004,2.9529991,25.4500008l0.6990013-0.3510017
					c0.2770004,0.5489998,0.5890007,1.0880013,0.9280014,1.6020012L3.9279976,27.132z M28.8300018,29.5239983
					c0.4492226-0.4248428,0.873909-0.8749046,1.2719994-1.3479996l0.598999,0.5019989
					c-0.414999,0.4950027-0.8649998,0.9700012-1.3349991,1.4140015L28.8300018,29.5239983z M6.4250031,30.1009941
					c-0.4699974-0.4419975-0.9189987-0.9179993-1.3349991-1.4119987l0.598999-0.5029984
					c0.3969994,0.4700012,0.8239975,0.9239998,1.2729988,1.3460007L6.4250031,30.1009941z M25.8650017,31.7360001
					c0.5310001-0.3090019,1.052-0.6529999,1.5470009-1.0200005l0.4669991,0.6259995
					c-0.5197105,0.3874626-1.0612717,0.7447166-1.6219997,1.0699997L25.8650017,31.7360001z M9.5390015,32.4189987
					c-0.5590019-0.3230019-1.105999-0.6819992-1.6240005-1.0680008L8.382,30.7229996
					c0.4939995,0.3689995,1.0149994,0.7120018,1.5489998,1.019001L9.5390015,32.4189987z M22.6940002,33.9519997l-0.2229996-0.75
					c0.5879993-0.1759987,1.1739998-0.3899994,1.7399998-0.6339989l0.3099995,0.7179985
					C23.9253941,33.543148,23.3153687,33.765522,22.6940002,33.9519997z M13.1049957,33.9570045
					c-0.6199989-0.1850014-1.2349968-0.4090004-1.8289986-0.6640015l0.3100014-0.7190018
					c0.5660019,0.2439995,1.1520004,0.4580002,1.7420006,0.6339989L13.1049957,33.9570045z M18.8269997,33.8430023
					c0.6160011-0.0349998,1.2350006-0.1070023,1.8400002-0.2140007L20.802,34.3990021
					c-0.6384659,0.1120834-1.2828732,0.1872063-1.9300003,0.2249985L18.8269997,33.8430023z M16.9279995,34.625
					c-0.6459999-0.0369987-1.2950001-0.1110001-1.9309998-0.2229996L15.132,33.632
					c0.6087055,0.1062775,1.2230759,0.177063,1.8400002,0.2120018L16.9279995,34.625z"/>
			</g>
		</g>
		<g class="st3">
			<g class="st3">
				<g class="st3">
					<path class="st4" d="M13.2329941,26.2460022c0.1080017,0,0.2180004-0.0280037,0.3180008-0.0870018l10.8740005-6.4349995
						c0.6321526-0.3744717,1.0170021-1.057291,1.0100002-1.7919998c0.007719-0.7354202-0.3772259-1.4191704-1.0100002-1.7940006
						L13.5519962,9.703001c-0.0057735-0.0034084-0.0116005-0.0067234-0.0174789-0.0099449
						c-0.304163-0.1666737-0.6858501-0.0552158-0.8525219,0.2489452c-0.1761589,0.3114414-0.0729637,0.7064953,0.2330017,0.8920002
						l10.8740005,6.4349995c0.3359985,0.1989994,0.3729992,0.5289993,0.3729992,0.6630001
						c0.003233,0.2715511-0.1390553,0.5240841-0.3729992,0.6620007l-10.8740005,6.4360008
						c-0.3053398,0.1850739-0.4081345,0.5794182-0.2319984,0.8899994c0.1160011,0.2089996,0.3309975,0.3269997,0.5499992,0.3269997
						L13.2329941,26.2460022z"/>
				</g>
			</g>
		</g>
		<g>
			<g>
				<g>
					<path class="st5" d="M12.9779968,26.1199989c0.1094322-0.0001869,0.2169418-0.0287895,0.3120003-0.0830002l10.677-6.164999
						c0.6210003-0.3579998,0.9920006-1.0010014,0.9920006-1.7180004c0-0.7159996-0.3719997-1.3589993-0.9920006-1.7169991
						l-10.677-6.1630001c-0.0043869-0.0025997-0.0088043-0.0051441-0.0132523-0.0076351
						c-0.3011703-0.1686535-0.6820374-0.0612278-0.8506927,0.2399426c-0.1686516,0.3011723-0.0612259,0.6820393,0.2399445,0.8506927
						l10.677,6.1639996c0.3299999,0.191,0.3649998,0.5080013,0.3649998,0.6340008
						c0.0031242,0.2623615-0.1367188,0.5056515-0.3649998,0.6350002l-10.677,6.1650009
						c-0.1955109,0.1115341-0.3158035,0.3197212-0.3147926,0.5448074c0.001545,0.3446198,0.2821693,0.6227379,0.6267929,0.6211929
						V26.1199989z"/>
				</g>
				<g>
					<path class="st6" d="M12.9789963,10.3480034c0.0820885-0.0002136,0.1627884,0.0211697,0.2340012,0.0620003
						l10.6749992,6.1650009c0.5719986,0.3309994,0.9139996,0.9209995,0.9139996,1.5809994
						c0.003727,0.6540508-0.3456955,1.2592335-0.9139996,1.5830002l-10.6749992,6.1630001
						c-0.0709457,0.0417061-0.1517067,0.0637932-0.2340012,0.0639992c-0.165596-0.0008698-0.318512-0.0888214-0.4025345-0.2315216
						c-0.1317024-0.2236786-0.0571442-0.5117722,0.1665344-0.6434784l10.677-6.1640015
						c0.4020004-0.2320004,0.4449997-0.6160011,0.4449997-0.7700005c0.0033188-0.3186474-0.1672497-0.6137886-0.4449997-0.7700005
						l-10.677-6.1660004c-0.141243-0.0839539-0.2283897-0.2355728-0.2298393-0.3998756
						c-0.0022888-0.2595634,0.2062759-0.4718361,0.4658394-0.4741249V10.3480034z M13.3689995,26.1729965l10.6759987-6.164999
						c0.6700001-0.3859997,1.0699997-1.0790005,1.0699997-1.8530006c0.0039196-0.765255-0.4050808-1.4731693-1.0699997-1.8519993
						l-10.6759987-6.164999c-0.3667145-0.2008667-0.826561-0.0777245-1.0438194,0.2795238
						c-0.224411,0.3690071-0.1071892,0.8500671,0.2618179,1.0744762l10.677,6.1639996
						c0.2600002,0.151001,0.2880001,0.3990002,0.2880001,0.4990005c0.0021076,0.2066498-0.1081886,0.3981361-0.2880001,0.5
						l-10.677,6.1650009c-0.2415543,0.1397629-0.3901787,0.3977966-0.3898697,0.6768684
						c0.0004807,0.4313354,0.3505325,0.7806129,0.781868,0.7801323
						C13.1158257,26.2767754,13.2502327,26.2409325,13.3689995,26.1729965z"/>
				</g>
			</g>
		</g>
	</g>
</g>
</svg>
