<?xml version="1.0" encoding="utf-8"?>
<!-- Generator: Adobe Illustrator 25.3.1, SVG Export Plug-In . SVG Version: 6.00 Build 0)  -->
<svg version="1.1" id="Слой_1" xmlns="http://www.w3.org/2000/svg" xmlns:xlink="http://www.w3.org/1999/xlink" x="0px" y="0px"
	 viewBox="0 0 60.0099945 60.0089951" style="enable-background:new 0 0 60.0099945 60.0089951;" xml:space="preserve">
<style type="text/css">
	.st0{fill:#4F2833;}
	.st1{fill:#F2EBD1;}
	.st2{fill:#FFFFFF;}
	.st3{fill:#DD91B7;}
	.st4{fill:none;stroke:#4F2833;stroke-width:0.75;stroke-linecap:round;stroke-linejoin:round;stroke-miterlimit:20;}
</style>
<g>
	<g>
		<g>
			<g>
				<g>
					<g>
						<path class="st0" d="M0.0009918,30.0049992C0.0009918,13.434,13.4349976,0,30.0059967,0
							C46.576004,0,60.0099945,13.434,60.0099945,30.0049992c0,16.5699978-13.4329987,30.0039959-30.0039978,30.0039959
							S0,46.5759964,0,30.0049992H0.0009918z"/>
					</g>
				</g>
			</g>
		</g>
		<g>
			<g>
				<path class="st1" d="M5.2279968,30.0049992c0-13.6850014,11.0930023-24.7779999,24.7779999-24.7779999
					c13.6840057,0,24.7770081,11.0930023,24.7770081,24.7779999c0,13.6839962-11.0930023,24.7769985-24.7770081,24.7769985
					C16.3209991,54.7819977,5.2279968,43.6889954,5.2279968,30.0049992z"/>
			</g>
			<g>
				<path class="st2" d="M54.6519928,30.0039997c0,13.5909939-11.0559998,24.6469936-24.6459961,24.6469936
					c-13.5910034,0-24.6470032-11.0559998-24.6470032-24.6469975c0-13.5900002,11.0559998-24.6459999,24.6470032-24.6459999
					C43.595993,5.357996,54.6519928,16.4139957,54.6519928,30.0039997z M54.9149933,30.0039997
					c0-13.7340012-11.1750031-24.9080009-24.9089966-24.9080009c-13.7350006,0-24.9089966,11.1739998-24.9089966,24.9080009
					c0,13.7349987,11.173996,24.9099941,24.9089966,24.9099941C43.7399902,54.9139938,54.9149933,43.7389908,54.9149933,30.0039997z
					"/>
			</g>
		</g>
		<g>
			<g>
				<path class="st2" d="M28.4089966,3.3899994l-0.0769958-1.3099995c1.0853729-0.0631542,2.1734467-0.0648232,3.2590027-0.0049992
					l-0.0740051,1.3099995C30.4817352,3.3276825,29.4440613,3.3293514,28.4089966,3.3899994z M37.6299896,4.4459991
					c-0.9937286-0.2948074-2.0037689-0.5315399-3.0249939-0.7089996l0.223999-1.2919998
					c1.0690002,0.1849995,2.1369934,0.4349995,3.1750031,0.7439995L37.6299896,4.4459991z M22.298996,4.4699993
					l-0.3769989-1.2560005c1.0417633-0.3128071,2.1009064-0.5645676,3.1719971-0.7539997l0.2279968,1.2910004
					C24.3013,3.9321842,23.2919617,4.1722527,22.298996,4.4699993z M43.3320007,6.8969975
					c-0.8984985-0.5179119-1.8264008-0.9830341-2.779007-1.3929996l0.5180054-1.2049999
					c0.9940033,0.4279995,1.9750061,0.9200001,2.9160004,1.4619999L43.3320007,6.8969975z M16.6089935,6.9369984
					l-0.6589966-1.1340008c0.9404144-0.5455551,1.9117126-1.036047,2.9089966-1.4689999l0.522995,1.2040005
					C18.4349823,5.947998,17.5019836,6.4189987,16.6089935,6.9369984z M48.3139954,10.5979977
					c-0.755249-0.7107353-1.5512695-1.3768616-2.3840027-1.9949989l0.7830048-1.0530014
					c0.8690033,0.6459999,1.7100067,1.3499985,2.5,2.0919991L48.3139954,10.5979977z M11.6389923,10.6519985l-0.901001-0.9529991
					c0.7900696-0.7468834,1.6224365-1.4477081,2.4929962-2.098999l0.7859955,1.0499992
					c-0.8302002,0.6214371-1.6241608,1.2898636-2.378006,2.0019989H11.6389923z M52.3139954,15.3419971
					c-0.5725861-0.8639297-1.1942749-1.694294-1.8619995-2.4869995l1.003006-0.8460007
					c0.7002869,0.8320122,1.3523407,1.7034378,1.9530029,2.6100006L52.3139954,15.3419971z M7.6529999,15.4089985
					l-1.0950012-0.7200012c0.597641-0.9091415,1.2473907-1.7829323,1.9459991-2.6170006l1.0050049,0.8429985
					C8.842804,13.7098751,8.2230988,14.5425968,7.6529999,15.4089985z M55.1119995,20.8789997
					c-0.3572235-0.9734573-0.7705994-1.9253883-1.2380066-2.8510017l1.1710052-0.5909996
					c0.4889984,0.9669991,0.9259949,1.973999,1.298996,2.9900017L55.1119995,20.8789997z M4.8710022,20.9569988
					l-1.2339935-0.4469986c0.3716278-1.0228004,0.8023529-2.0231514,1.2899933-2.9959984l1.1730042,0.5880013
					C5.634903,19.0288372,5.2245331,19.9821377,4.8710022,20.9569988z M56.5510101,26.9130001
					c-0.1220703-1.0292549-0.3033752-2.0506172-0.5429993-3.0590019l1.276001-0.3040009
					c0.2518463,1.0580406,0.4418335,2.1298561,0.5690002,3.2099991L56.5510101,26.9130001z M3.451004,26.9969997
					l-1.3029938-0.1489983c0.1230011-1.0769997,0.3110046-2.1580009,0.5590057-3.2109985l1.276001,0.2989998
					c-0.2362213,1.0092163-0.4138641,2.0312614-0.5319977,3.0610008L3.451004,26.9969997z M57.8600006,33.3259964
					l-1.3029938-0.1500015c0.1179962-1.0239944,0.1779938-2.0679989,0.1779938-3.1039982V30.013998h1.3119965v0.0579987
					C58.0469971,31.1579952,57.9839935,32.2529984,57.8600006,33.3259964z M2.1549988,33.3559952
					c-0.1258087-1.0801239-0.1895752-2.1665745-0.1909943-3.2539997L3.276001,30.100996
					c0.0010071,1.0359993,0.0619965,2.0799961,0.1809998,3.1019993L2.1549988,33.3559952z M56.3629913,39.6629944
					l-1.2319946-0.447998c0.3543243-0.9748535,0.6514893-1.9695435,0.8899994-2.9789963l1.2769928,0.3009949
					C57.0475311,37.5963287,56.735321,38.6401138,56.3629913,39.6629944z M3.6569977,39.6889954
					c-0.372345-1.0217056-0.6851959-2.0641174-0.9369965-3.1220016l1.276001-0.3030014
					c0.2389984,1.0050049,0.5390015,2.0060043,0.8930054,2.9759979L3.6569977,39.6889954z M53.4380035,45.4809952
					l-1.095993-0.7220001c0.5704803-0.8662109,1.0903473-1.7647171,1.5570068-2.6910019l1.1710052,0.5899963
					c-0.4887238,0.9718857-1.0336609,1.9144821-1.6320038,2.822998L53.4380035,45.4809952z M6.5870056,45.5009918
					c-0.5988312-0.9072113-1.1444092-1.848465-1.6340027-2.8190002l1.1710052-0.5910034
					c0.4649963,0.9209976,0.9889984,1.8249969,1.5579987,2.6880035L6.5870056,45.5009918z M49.2510071,50.4659958
					l-0.8999939-0.9540024c0.7538757-0.7120285,1.4660645-1.4669495,2.1329956-2.2610016l1.0039978,0.8440018
					C50.7885132,48.9276581,50.0416107,49.7192993,49.2510071,50.4659958z M10.7760162,50.4819946
					c-0.7906799-0.7462311-1.5379028-1.5372009-2.2380066-2.3690033l1.003006-0.8450012
					c0.6649933,0.7900009,1.3829956,1.5500031,2.1349945,2.2590027L10.7760162,50.4819946z M43.3780212,53.220993
					c0.8967438-0.5192719,1.7625275-1.0902328,2.5930023-1.7099991l0.7850037,1.052002
					c-0.8719788,0.6494904-1.7804718,1.2484741-2.720993,1.7939987L43.3780212,53.220993z M15.9980164,54.3689957
					c-0.9420624-0.5438766-1.8516083-1.1422272-2.723999-1.7919998l0.7830048-1.052002
					c0.8300018,0.6169968,1.7030029,1.1920013,2.5970001,1.7089996L15.9980164,54.3689957z M38.0610199,56.9389954
					l-0.3760071-1.2569962c0.993103-0.2969055,1.9677887-0.6521912,2.9190063-1.064003l0.5200043,1.2040024
					C40.1290283,56.2529984,39.0980225,56.6279984,38.0610199,56.9389954z M21.9790192,56.9469986
					c-1.0427246-0.3111877-2.0664673-0.6828156-3.0659943-1.112999l0.5189972-1.2050018
					c0.947998,0.4089966,1.9309998,0.7659988,2.9219971,1.0619965L21.9790192,56.9469986z M31.6500244,58.0660019
					l-0.0749969-1.3099976c1.0319977-0.0589981,2.0700073-0.1800003,3.0859985-0.3580017l0.227005,1.2919998
					C33.8168182,57.8774185,32.7356873,58.0029602,31.6500244,58.0660019z M28.3910217,58.0680008
					c-1.0856171-0.0618591-2.1667633-0.1864014-3.2380066-0.3730011l0.2250061-1.2919998
					c1.0149994,0.177002,2.0540009,0.2959976,3.0870056,0.3550034L28.3910217,58.0680008z"/>
			</g>
		</g>
	</g>
	<g>
		<g>
			<g transform="rotate(-45 166.725 61.685)">
				<path class="st3" d="M89.9044342-38.9205132V-60.407505h3.0149994v21.4869919H89.9044342z"/>
				<path class="st4" d="M89.9044342-38.9205132L89.9044342-38.9205132V-60.407505l0,0h3.0149994v21.4869919H89.9044342z"/>
			</g>
			<g>
				<path class="st3" d="M14.3779907,25.460001c0-6.2459984,5.0639954-11.3089981,11.3099976-11.3089981
					c6.2449951,0,11.3079987,5.0629997,11.3079987,11.3089981s-5.0630035,11.3089962-11.3090057,11.3089962
					c-6.2449951,0-11.3090057-5.0629978-11.3090057-11.3089962H14.3779907z"/>
				<path class="st4" d="M14.3779907,25.460001c0-6.2459984,5.0639954-11.3089981,11.3099976-11.3089981
					c6.2449951,0,11.3079987,5.0629997,11.3079987,11.3089981s-5.0630035,11.3089962-11.3090057,11.3089962
					c-6.2449951,0-11.3090057-5.0629978-11.3090057-11.3089962H14.3779907z"/>
			</g>
		</g>
		<g>
			<path class="st1" d="M16.2630005,25.460001c0-5.2047348,4.2192688-9.4240036,9.423996-9.4240036
				c5.2047424,0,9.4240112,4.2192688,9.4240112,9.4240036c-0.0047913,5.204731-4.2279358,9.4201183-9.432663,9.4153271
				c-5.1979675-0.0047836-9.410553-4.2173672-9.415329-9.4153271H16.2630005z"/>
		</g>
	</g>
</g>
</svg>
