<svg xmlns="http://www.w3.org/2000/svg" width="77" height="84" viewBox="0 0 77 84"><g><g><g><g><g><path fill="#f9f6e1" d="M4.586 28.974l-1.364 39.6 32.81 12.879 1.431-41.557z"/><path fill="none" stroke="#4f2833" stroke-linecap="round" stroke-linejoin="round" stroke-miterlimit="20" stroke-width=".5" d="M4.586 28.974v0l-1.364 39.6v0l32.81 12.879v0l1.431-41.557v0z"/></g><g><path fill="#f9f6e1" d="M5.063 29.659l31.888 10.594-1.394 40.476-31.823-12.49zm32.914 9.881L4.11 28.288l-1.387 40.27-.012.353 33.797 13.266z"/><path fill="none" stroke="#4f2833" stroke-linecap="round" stroke-linejoin="round" stroke-miterlimit="20" stroke-width=".5" d="M5.063 29.659l31.888 10.594-1.394 40.476-31.823-12.49zm32.914 9.881L4.11 28.288l-1.387 40.27-.012.353 33.797 13.266z"/></g></g><g><g><path fill="#f9f6e1" d="M37.463 39.896l34.299-8.118-1.347 39.112-34.383 10.563z"/><path fill="none" stroke="#4f2833" stroke-linecap="round" stroke-linejoin="round" stroke-miterlimit="20" stroke-width=".5" d="M37.463 39.896v0l34.299-8.118v0L70.415 70.89v0L36.032 81.453v0z"/></g><g><path fill="#f9f6e1" d="M71.239 32.415l-1.311 38.102L36.556 80.77l1.394-40.475zm-.337 38.848l1.382-40.123-35.306 8.358-1.469 42.639z"/><path fill="none" stroke="#4f2833" stroke-linecap="round" stroke-linejoin="round" stroke-miterlimit="20" stroke-width=".5" d="M71.239 32.415l-1.311 38.102L36.556 80.77l1.394-40.475zm-.337 38.848l1.382-40.123-35.306 8.358-1.469 42.639z"/></g></g><g><g><path fill="#f9f6e1" d="M3.249 28.648l34.214 11.248.44-12.76L3.665 16.561z"/><path fill="none" stroke="#4f2833" stroke-linecap="round" stroke-linejoin="round" stroke-miterlimit="20" stroke-width=".5" d="M3.249 28.648v0l34.214 11.248v0l.44-12.76v0L3.665 16.561v0z"/></g><g><path fill="#f9f6e1" d="M4.143 17.233l33.248 10.268-.404 11.713L3.762 28.291zm34.273 9.538L3.188 15.891l-.452 13.115L37.94 40.579z"/><path fill="none" stroke="#4f2833" stroke-linecap="round" stroke-linejoin="round" stroke-miterlimit="20" stroke-width=".5" d="M4.143 17.233l33.248 10.268-.404 11.713L3.762 28.291zm34.273 9.538L3.188 15.891l-.452 13.115L37.94 40.579z"/></g></g><g><g><path fill="#f9f6e1" d="M37.903 27.135c.38-.096 35.541-7.544 35.541-7.544l-.422 12.23-35.559 8.075z"/><path fill="none" stroke="#4f2833" stroke-linecap="round" stroke-linejoin="round" stroke-miterlimit="20" stroke-width=".5" d="M37.903 27.135c.38-.096 35.541-7.544 35.541-7.544v0l-.422 12.23v0l-35.559 8.075v0z"/></g><g><path fill="#f9f6e1" d="M38.39 27.541zm0 0c3.465-.746 30.087-6.387 34.532-7.329l-.386 11.207-34.55 7.847zm35.119 4.683l.456-13.255-.625.133c-1.437.304-35.175 7.451-35.56 7.549l-.363.093-.476 13.783z"/><path fill="none" stroke="#4f2833" stroke-linecap="round" stroke-linejoin="round" stroke-miterlimit="20" stroke-width=".5" d="M38.39 27.541h0s0 0 0 0zm0 0c3.465-.746 30.087-6.387 34.532-7.329l-.386 11.207-34.55 7.847zm35.119 4.683l.456-13.255-.625.133c-1.437.304-35.175 7.451-35.56 7.549l-.363.093-.476 13.783z"/></g></g><g><g><path fill="#f9f6e1" d="M3.665 16.562l34.807-5.942 34.972 8.97-35.541 7.545z"/><path fill="none" stroke="#4f2833" stroke-linecap="round" stroke-linejoin="round" stroke-miterlimit="20" stroke-width=".5" d="M3.665 16.562v0l34.807-5.942v0l34.972 8.97v0l-35.541 7.545v0z"/></g><g><path fill="#f9f6e1" d="M38.451 11.13l32.801 8.415-33.325 7.075-32.113-9.918zm37.184 8.507l-37.039-9.502-.104-.026-36.976 6.313 36.24 11.191.124.038z"/><path fill="none" stroke="#4f2833" stroke-linecap="round" stroke-linejoin="round" stroke-miterlimit="20" stroke-width=".5" d="M38.451 11.13l32.801 8.415-33.325 7.075-32.113-9.918zm37.184 8.507l-37.039-9.502-.104-.026-36.976 6.313 36.24 11.191.124.038z"/></g></g><g><g><path fill="#dd91b7" d="M71.751 32.11l-34.288 7.786-.097 2.816s21.136-4.919 26.986-5.13c5.85-.211 7.188.644 7.188.644z"/></g></g><g><g><path fill="#dd91b7" d="M4.586 28.974l32.877 10.922-.097 2.816L4.558 29.795z"/></g></g><g><g><path fill="#f9f6e1" d="M15.077 20.086L12.54 72.233l8.084 3.173.16-53.557z"/><path fill="none" stroke="#4f2833" stroke-linecap="round" stroke-linejoin="round" stroke-miterlimit="20" stroke-width=".5" d="M15.077 20.086v0L12.54 72.233v0l8.084 3.173v0l.16-53.557v0z"/></g><g><path fill="#f9f6e1" d="M15.544 20.754l4.739 1.463-.156 52.456-7.069-2.775zm5.741.726l-6.677-2.062-2.584 53.148 9.099 3.572z"/><path fill="none" stroke="#4f2833" stroke-linecap="round" stroke-linejoin="round" stroke-miterlimit="20" stroke-width=".5" d="M15.544 20.754l4.739 1.463-.156 52.456-7.069-2.775zm5.741.726l-6.677-2.062-2.584 53.148 9.099 3.572z"/></g></g><g><g><path fill="#f9f6e1" d="M53.451 23.815l-1.023 52.72 7.893-2.505-.664-51.77z"/><path fill="none" stroke="#4f2833" stroke-linecap="round" stroke-linejoin="round" stroke-miterlimit="20" stroke-width=".5" d="M53.451 23.815v0l-1.023 52.72v0l7.893-2.505v0l-.664-51.77v0z"/></g><g><path fill="#f9f6e1" d="M59.165 22.899l.65 50.767-6.874 2.182 1.002-51.641zm1.66 51.496l-.676-52.773-7.19 1.801-1.045 53.8z"/><path fill="none" stroke="#4f2833" stroke-linecap="round" stroke-linejoin="round" stroke-miterlimit="20" stroke-width=".5" d="M59.165 22.899l.65 50.767-6.874 2.182 1.002-51.641zm1.66 51.496l-.676-52.773-7.19 1.801-1.045 53.8z"/></g></g><g><g><path fill="#f9f6e1" d="M20.784 21.849l37.663-6.105-7.104-1.823-36.266 6.165z"/><path fill="none" stroke="#4f2833" stroke-linecap="round" stroke-linejoin="round" stroke-miterlimit="20" stroke-width=".5" d="M20.784 21.849v0l37.663-6.105v0l-7.104-1.823v0l-36.266 6.165v0z"/></g><g><path fill="#f9f6e1" d="M51.321 14.432l4.683 1.202-35.185 5.702-3.59-1.109zm9.57 1.422l-9.527-2.443-38.44 6.534 7.825 2.416z"/><path fill="none" stroke="#4f2833" stroke-linecap="round" stroke-linejoin="round" stroke-miterlimit="20" stroke-width=".5" d="M51.321 14.432l4.683 1.202-35.185 5.702-3.59-1.109zm9.57 1.422l-9.527-2.443-38.44 6.534 7.825 2.416z"/></g></g><g><g><path fill="#f9f6e1" d="M53.688 23.785l-31.941-10.31 5.94-1.014 32.22 9.827z"/><path fill="none" stroke="#4f2833" stroke-linecap="round" stroke-linejoin="round" stroke-miterlimit="20" stroke-width=".5" d="M53.688 23.785v0l-31.941-10.31v0l5.94-1.014v0l32.22 9.827v0z"/></g><g><path fill="#f9f6e1" d="M27.654 12.974l30.354 9.257-4.3 1.035-29.868-9.641zm34.155 9.37l-34.09-10.396-8.065 1.377L53.535 24.26l.134.044z"/><path fill="none" stroke="#4f2833" stroke-linecap="round" stroke-linejoin="round" stroke-miterlimit="20" stroke-width=".5" d="M27.654 12.974l30.354 9.257-4.3 1.035-29.868-9.641zm34.155 9.37l-34.09-10.396-8.065 1.377L53.535 24.26l.134.044z"/></g></g><g><g><g><path fill="#f9f6e1" d="M37.223 17.929c-.675.136-1.372.067-2.055-.011a78.23 78.23 0 0 1-12.609-2.508c-1.913-.548-3.85-1.192-5.416-2.42-.588-.462-1.126-1.015-1.438-1.695-.313-.679-.375-1.501-.036-2.168.536-1.056 1.843-1.424 3.014-1.603 1.791-.274 3.625-.36 5.413-.065 1.641.271 3.211.857 4.769 1.44.929.347 1.863.697 2.72 1.196.763.444 1.454 1.001 2.12 1.581a33.813 33.813 0 0 1 3.361 3.378c.411.475 1.169 1.123 1.364 1.733.232.728-.602 1.019-1.207 1.142z"/><path fill="none" stroke="#4f2833" stroke-linecap="round" stroke-linejoin="round" stroke-miterlimit="20" stroke-width=".5" d="M37.223 17.929c-.675.136-1.372.067-2.055-.011a78.23 78.23 0 0 1-12.609-2.508c-1.913-.548-3.85-1.192-5.416-2.42-.588-.462-1.126-1.015-1.438-1.695-.313-.679-.375-1.501-.036-2.168.536-1.056 1.843-1.424 3.014-1.603 1.791-.274 3.625-.36 5.413-.065 1.641.271 3.211.857 4.769 1.44.929.347 1.863.697 2.72 1.196.763.444 1.454 1.001 2.12 1.581a33.813 33.813 0 0 1 3.361 3.378c.411.475 1.169 1.123 1.364 1.733.232.728-.602 1.019-1.207 1.142z"/></g><g><path fill="#f9f6e1" d="M21.744 7.773c.797 0 1.551.06 2.271.179 1.599.265 3.163.849 4.674 1.415.896.335 1.822.681 2.644 1.16.776.452 1.469 1.025 2.043 1.526a33.34 33.34 0 0 1 3.312 3.327c.111.128.245.268.387.417.343.356.769.799.878 1.141.029.093.012.123.003.138-.021.037-.163.227-.833.362-.583.119-1.206.062-1.898-.017a77.8 77.8 0 0 1-12.529-2.492c-1.729-.495-3.704-1.124-5.244-2.333-.63-.493-1.053-.987-1.293-1.51-.275-.598-.292-1.246-.045-1.732.35-.689 1.191-1.113 2.645-1.336a19.719 19.719 0 0 1 2.985-.245zm15.577 10.646h.001c.768-.156 1.257-.429 1.496-.837a1.14 1.14 0 0 0 .088-.947c-.179-.564-.674-1.078-1.11-1.531-.129-.135-.251-.261-.352-.377a34.282 34.282 0 0 0-3.411-3.428c-.609-.531-1.347-1.142-2.196-1.636-.897-.522-1.863-.884-2.798-1.233-1.556-.582-3.165-1.184-4.861-1.464-1.667-.276-3.49-.256-5.572.064-1.132.173-2.715.556-3.382 1.87-.385.757-.375 1.73.027 2.604.309.671.826 1.286 1.584 1.879 1.682 1.32 3.766 1.987 5.586 2.507a78.807 78.807 0 0 0 12.69 2.525c.442.05.86.092 1.27.092.315 0 .626-.025.94-.088z"/><path fill="none" stroke="#4f2833" stroke-linecap="round" stroke-linejoin="round" stroke-miterlimit="20" stroke-width=".5" d="M21.744 7.773c.797 0 1.551.06 2.271.179 1.599.265 3.163.849 4.674 1.415.896.335 1.822.681 2.644 1.16.776.452 1.469 1.025 2.043 1.526a33.34 33.34 0 0 1 3.312 3.327c.111.128.245.268.387.417.343.356.769.799.878 1.141.029.093.012.123.003.138-.021.037-.163.227-.833.362-.583.119-1.206.062-1.898-.017a77.8 77.8 0 0 1-12.529-2.492c-1.729-.495-3.704-1.124-5.244-2.333-.63-.493-1.053-.987-1.293-1.51-.275-.598-.292-1.246-.045-1.732.35-.689 1.191-1.113 2.645-1.336a19.719 19.719 0 0 1 2.985-.245zm15.577 10.646h.001c.768-.156 1.257-.429 1.496-.837a1.14 1.14 0 0 0 .088-.947c-.179-.564-.674-1.078-1.11-1.531-.129-.135-.251-.261-.352-.377a34.282 34.282 0 0 0-3.411-3.428c-.609-.531-1.347-1.142-2.196-1.636-.897-.522-1.863-.884-2.798-1.233-1.556-.582-3.165-1.184-4.861-1.464-1.667-.276-3.49-.256-5.572.064-1.132.173-2.715.556-3.382 1.87-.385.757-.375 1.73.027 2.604.309.671.826 1.286 1.584 1.879 1.682 1.32 3.766 1.987 5.586 2.507a78.807 78.807 0 0 0 12.69 2.525c.442.05.86.092 1.27.092.315 0 .626-.025.94-.088z"/></g></g><g><g><path fill="#f9f6e1" d="M28.671 5.119c-1.279-.994-2.631-1.933-4.157-2.478-1.525-.544-3.258-.663-4.747-.024-1.29.553-2.306 1.635-2.974 2.87-.669 1.235-1.465 2.421-1.348 4.523 1.778-3.679 10.881-.105 15.648 2.223a20.59 20.59 0 0 1 7.055 5.664c.142.178.913-.873.959-.994.203-.536-.002-.729-.328-1.131-.744-.918-1.405-1.903-2.146-2.825a47.96 47.96 0 0 0-7.962-7.828z"/><path fill="none" stroke="#4f2833" stroke-linecap="round" stroke-linejoin="round" stroke-miterlimit="20" stroke-width=".5" d="M28.671 5.119c-1.279-.994-2.631-1.933-4.157-2.478-1.525-.544-3.258-.663-4.747-.024-1.29.553-2.306 1.635-2.974 2.87-.669 1.235-1.465 2.421-1.348 4.523 1.778-3.679 10.881-.105 15.648 2.223a20.59 20.59 0 0 1 7.055 5.664c.142.178.913-.873.959-.994.203-.536-.002-.729-.328-1.131-.744-.918-1.405-1.903-2.146-2.825a47.96 47.96 0 0 0-7.962-7.828z"/></g><g><path fill="#f9f6e1" d="M18.841 7.932c-.739 0-1.416.088-1.998.289a3.625 3.625 0 0 0-.831.405c.169-1 .586-1.752 1.019-2.535l.201-.366c.672-1.241 1.642-2.182 2.733-2.649 1.254-.536 2.808-.524 4.382.036 1.503.537 2.82 1.471 4.018 2.402a47.539 47.539 0 0 1 7.878 7.746c.357.444.695.903 1.033 1.362.365.494.729.989 1.115 1.465l.065.08c.271.33.271.33.201.52a4.685 4.685 0 0 1-.408.542 21.164 21.164 0 0 0-6.936-5.446c-2.05-1.001-8.264-3.851-12.472-3.851zm19.442 10.479c.558-.088 1.268-1.266 1.292-1.331.29-.77-.032-1.165-.407-1.623-.377-.464-.731-.946-1.087-1.428-.347-.47-.692-.941-1.059-1.396a48.266 48.266 0 0 0-8.043-7.909c-1.205-.934-2.656-1.968-4.296-2.554-1.811-.645-3.626-.65-5.113-.013-1.296.556-2.438 1.654-3.216 3.092l-.198.357c-.62 1.121-1.324 2.391-1.211 4.432l.107 1.931.843-1.741c.242-.502.659-.849 1.275-1.062 2.806-.97 8.918 1.179 13.703 3.516a20.158 20.158 0 0 1 6.885 5.527l.238.247z"/><path fill="none" stroke="#4f2833" stroke-linecap="round" stroke-linejoin="round" stroke-miterlimit="20" stroke-width=".5" d="M18.841 7.932c-.739 0-1.416.088-1.998.289a3.625 3.625 0 0 0-.831.405c.169-1 .586-1.752 1.019-2.535l.201-.366c.672-1.241 1.642-2.182 2.733-2.649 1.254-.536 2.808-.524 4.382.036 1.503.537 2.82 1.471 4.018 2.402a47.539 47.539 0 0 1 7.878 7.746c.357.444.695.903 1.033 1.362.365.494.729.989 1.115 1.465l.065.08c.271.33.271.33.201.52a4.685 4.685 0 0 1-.408.542 21.164 21.164 0 0 0-6.936-5.446c-2.05-1.001-8.264-3.851-12.472-3.851zm19.442 10.479c.558-.088 1.268-1.266 1.292-1.331.29-.77-.032-1.165-.407-1.623-.377-.464-.731-.946-1.087-1.428-.347-.47-.692-.941-1.059-1.396a48.266 48.266 0 0 0-8.043-7.909c-1.205-.934-2.656-1.968-4.296-2.554-1.811-.645-3.626-.65-5.113-.013-1.296.556-2.438 1.654-3.216 3.092l-.198.357c-.62 1.121-1.324 2.391-1.211 4.432l.107 1.931.843-1.741c.242-.502.659-.849 1.275-1.062 2.806-.97 8.918 1.179 13.703 3.516a20.158 20.158 0 0 1 6.885 5.527l.238.247z"/></g></g></g><g><g><path fill="#f9f6e1" d="M27.625 24.287c-.37.92-.454 1.928-.505 2.919a53.255 53.255 0 0 0 .087 6.896l1.807-2.295c1.27 1.803 2.696 3.715 4.804 4.36-.607-1.601-1.147-3.255-1.232-4.966-.086-1.711.327-3.503 1.441-4.805.586-.685 1.337-1.206 2.073-1.727 1.419-1.002 2.825-2.035 4.072-3.244.613-.594 1.227-1.34 1.15-2.191-.099-1.099-1.318-1.767-2.42-1.834-.96-.059-1.933.2-2.749.705-.641.396-.991 1.003-1.561 1.458-.767.614-1.839.761-2.741 1.088-.847.308-1.662.726-2.376 1.28-.798.619-1.469 1.412-1.85 2.356z"/><path fill="none" stroke="#4f2833" stroke-linecap="round" stroke-linejoin="round" stroke-miterlimit="20" stroke-width=".5" d="M27.625 24.287c-.37.92-.454 1.928-.505 2.919a53.255 53.255 0 0 0 .087 6.896l1.807-2.295c1.27 1.803 2.696 3.715 4.804 4.36-.607-1.601-1.147-3.255-1.232-4.966-.086-1.711.327-3.503 1.441-4.805.586-.685 1.337-1.206 2.073-1.727 1.419-1.002 2.825-2.035 4.072-3.244.613-.594 1.227-1.34 1.15-2.191-.099-1.099-1.318-1.767-2.42-1.834-.96-.059-1.933.2-2.749.705-.641.396-.991 1.003-1.561 1.458-.767.614-1.839.761-2.741 1.088-.847.308-1.662.726-2.376 1.28-.798.619-1.469 1.412-1.85 2.356z"/></g><g><path fill="#f9f6e1" d="M27.621 32.768a52.985 52.985 0 0 1-.002-5.537c.048-.922.123-1.895.47-2.757.321-.795.906-1.538 1.693-2.148.628-.488 1.382-.893 2.24-1.204.253-.093.521-.169.791-.247.723-.209 1.471-.425 2.091-.921.274-.218.492-.458.705-.689.256-.28.497-.544.806-.735a4.255 4.255 0 0 1 2.457-.632c.903.056 1.881.587 1.952 1.381.06.666-.503 1.305-1 1.787-1.265 1.227-2.734 2.292-4.073 3.238-.734.518-1.493 1.053-2.104 1.766-1.108 1.295-1.663 3.126-1.56 5.156.069 1.397.427 2.745.865 4.021-1.378-.791-2.461-2.212-3.53-3.727l-.387-.549zm6.665 3.221c-.575-1.514-1.118-3.146-1.201-4.813-.089-1.773.381-3.356 1.322-4.455.53-.619 1.205-1.096 1.982-1.643 1.308-.925 2.814-2.017 4.131-3.294.657-.637 1.398-1.507 1.3-2.594-.124-1.38-1.58-2.21-2.887-2.29a5.234 5.234 0 0 0-3.043.78c-.427.264-.728.592-1.019.909a5.252 5.252 0 0 1-.592.584c-.465.371-1.086.551-1.743.741-.292.084-.581.168-.855.267-.956.347-1.801.803-2.512 1.355-.927.718-1.621 1.605-2.008 2.564v.001c-.404 1.005-.488 2.073-.54 3.079a53.734 53.734 0 0 0 .088 6.961l.099 1.275 2.186-2.775c1.303 1.799 2.689 3.396 4.678 4.005l.975.297z"/><path fill="none" stroke="#4f2833" stroke-linecap="round" stroke-linejoin="round" stroke-miterlimit="20" stroke-width=".5" d="M27.621 32.768a52.985 52.985 0 0 1-.002-5.537c.048-.922.123-1.895.47-2.757.321-.795.906-1.538 1.693-2.148.628-.488 1.382-.893 2.24-1.204.253-.093.521-.169.791-.247.723-.209 1.471-.425 2.091-.921.274-.218.492-.458.705-.689.256-.28.497-.544.806-.735a4.255 4.255 0 0 1 2.457-.632c.903.056 1.881.587 1.952 1.381.06.666-.503 1.305-1 1.787-1.265 1.227-2.734 2.292-4.073 3.238-.734.518-1.493 1.053-2.104 1.766-1.108 1.295-1.663 3.126-1.56 5.156.069 1.397.427 2.745.865 4.021-1.378-.791-2.461-2.212-3.53-3.727l-.387-.549zm6.665 3.221c-.575-1.514-1.118-3.146-1.201-4.813-.089-1.773.381-3.356 1.322-4.455.53-.619 1.205-1.096 1.982-1.643 1.308-.925 2.814-2.017 4.131-3.294.657-.637 1.398-1.507 1.3-2.594-.124-1.38-1.58-2.21-2.887-2.29a5.234 5.234 0 0 0-3.043.78c-.427.264-.728.592-1.019.909a5.252 5.252 0 0 1-.592.584c-.465.371-1.086.551-1.743.741-.292.084-.581.168-.855.267-.956.347-1.801.803-2.512 1.355-.927.718-1.621 1.605-2.008 2.564v.001c-.404 1.005-.488 2.073-.54 3.079a53.734 53.734 0 0 0 .088 6.961l.099 1.275 2.186-2.775c1.303 1.799 2.689 3.396 4.678 4.005l.975.297z"/></g></g><g><g><path fill="#f9f6e1" d="M44.44 19.631c2.909-.139 5.791-.629 8.697-.811 2.906-.183 5.895-.043 8.604 1.026.788.311 1.552.702 2.205 1.241 2.193 1.81 2.78 4.989 2.378 7.803l2.484-3.981a18.147 18.147 0 0 1 1.4 3.895 7.423 7.423 0 0 0 .52-6.004 7.418 7.418 0 0 0-4.163-4.357c-.824-.333-1.7-.512-2.571-.685-1.671-.332-3.346-.645-5.021-.958-2.765-.516-5.534-1.034-8.33-1.344-2.673-.296-5.573-.35-7.818 1.131-.642.423-.908 1.632-.661 2.347.303.877 1.516.733 2.276.697z"/><path fill="none" stroke="#4f2833" stroke-linecap="round" stroke-linejoin="round" stroke-miterlimit="20" stroke-width=".5" d="M44.44 19.631c2.909-.139 5.791-.629 8.697-.811 2.906-.183 5.895-.043 8.604 1.026.788.311 1.552.702 2.205 1.241 2.193 1.81 2.78 4.989 2.378 7.803l2.484-3.981a18.147 18.147 0 0 1 1.4 3.895 7.423 7.423 0 0 0 .52-6.004 7.418 7.418 0 0 0-4.163-4.357c-.824-.333-1.7-.512-2.571-.685-1.671-.332-3.346-.645-5.021-.958-2.765-.516-5.534-1.034-8.33-1.344-2.673-.296-5.573-.35-7.818 1.131-.642.423-.908 1.632-.661 2.347.303.877 1.516.733 2.276.697z"/></g><g><path fill="#f9f6e1" d="M66.943 26.953c-.057-2.614-1.004-4.87-2.678-6.251-.622-.513-1.387-.945-2.34-1.321-2.407-.95-5.213-1.288-8.82-1.06-1.367.086-2.746.241-4.08.391-1.51.17-3.073.346-4.609.419l-.192.01c-.784.044-1.444.047-1.587-.371-.193-.555.054-1.496.464-1.766 2.15-1.419 4.993-1.328 7.486-1.051 2.779.309 5.583.832 8.295 1.339 1.673.312 3.345.625 5.014.956.785.156 1.673.332 2.482.658a6.912 6.912 0 0 1 3.878 4.06 6.93 6.93 0 0 1 .057 4.339 18.903 18.903 0 0 0-1.057-2.618l-.399-.805zm1.799-.995c.413.955.741 1.947.98 2.96l.294 1.252.629-1.122a7.925 7.925 0 0 0 .554-6.414 7.925 7.925 0 0 0-4.446-4.655c-.831-.335-1.662-.513-2.661-.711-1.674-.332-3.35-.646-5.027-.959-2.729-.51-5.551-1.037-8.368-1.35-2.671-.294-5.73-.384-8.147 1.21-.858.567-1.166 2.039-.859 2.928.404 1.166 1.771 1.089 2.589 1.043l.183-.01c1.569-.075 3.147-.253 4.675-.424 1.321-.149 2.687-.303 4.03-.387 3.465-.217 6.125.098 8.39.992.853.336 1.531.717 2.07 1.162 1.82 1.502 2.643 4.249 2.201 7.347l-.334 2.344z"/><path fill="none" stroke="#4f2833" stroke-linecap="round" stroke-linejoin="round" stroke-miterlimit="20" stroke-width=".5" d="M66.943 26.953c-.057-2.614-1.004-4.87-2.678-6.251-.622-.513-1.387-.945-2.34-1.321-2.407-.95-5.213-1.288-8.82-1.06-1.367.086-2.746.241-4.08.391-1.51.17-3.073.346-4.609.419l-.192.01c-.784.044-1.444.047-1.587-.371-.193-.555.054-1.496.464-1.766 2.15-1.419 4.993-1.328 7.486-1.051 2.779.309 5.583.832 8.295 1.339 1.673.312 3.345.625 5.014.956.785.156 1.673.332 2.482.658a6.912 6.912 0 0 1 3.878 4.06 6.93 6.93 0 0 1 .057 4.339 18.903 18.903 0 0 0-1.057-2.618l-.399-.805zm1.799-.995c.413.955.741 1.947.98 2.96l.294 1.252.629-1.122a7.925 7.925 0 0 0 .554-6.414 7.925 7.925 0 0 0-4.446-4.655c-.831-.335-1.662-.513-2.661-.711-1.674-.332-3.35-.646-5.027-.959-2.729-.51-5.551-1.037-8.368-1.35-2.671-.294-5.73-.384-8.147 1.21-.858.567-1.166 2.039-.859 2.928.404 1.166 1.771 1.089 2.589 1.043l.183-.01c1.569-.075 3.147-.253 4.675-.424 1.321-.149 2.687-.303 4.03-.387 3.465-.217 6.125.098 8.39.992.853.336 1.531.717 2.07 1.162 1.82 1.502 2.643 4.249 2.201 7.347l-.334 2.344z"/></g></g><g><g><g><path fill="#f9f6e1" d="M42.552 18.225c.676.126 1.372.047 2.054-.042a77.995 77.995 0 0 0 12.57-2.7c1.904-.576 3.831-1.249 5.378-2.501.581-.471 1.11-1.032 1.412-1.717.302-.684.352-1.507.003-2.169-.552-1.047-1.865-1.395-3.037-1.556-1.796-.247-3.631-.306-5.414.017-1.637.296-3.198.906-4.746 1.512-.924.361-1.852.725-2.702 1.237-.756.456-1.439 1.023-2.096 1.614a33.904 33.904 0 0 0-3.309 3.428c-.404.482-1.152 1.141-1.337 1.754-.222.732.617 1.01 1.224 1.123z"/><path fill="none" stroke="#4f2833" stroke-linecap="round" stroke-linejoin="round" stroke-miterlimit="20" stroke-width=".5" d="M42.552 18.225c.676.126 1.372.047 2.054-.042a77.995 77.995 0 0 0 12.57-2.7c1.904-.576 3.831-1.249 5.378-2.501.581-.471 1.11-1.032 1.412-1.717.302-.684.352-1.507.003-2.169-.552-1.047-1.865-1.395-3.037-1.556-1.796-.247-3.631-.306-5.414.017-1.637.296-3.198.906-4.746 1.512-.924.361-1.852.725-2.702 1.237-.756.456-1.439 1.023-2.096 1.614a33.904 33.904 0 0 0-3.309 3.428c-.404.482-1.152 1.141-1.337 1.754-.222.732.617 1.01 1.224 1.123z"/></g><g><path fill="#f9f6e1" d="M42.644 17.733c-.671-.125-.816-.313-.838-.349-.009-.015-.028-.045.001-.138.103-.344.523-.794.861-1.155.14-.15.271-.292.38-.422a33.355 33.355 0 0 1 3.261-3.377c.567-.51 1.25-1.094 2.019-1.558.816-.491 1.735-.851 2.626-1.199 1.504-.589 3.061-1.198 4.652-1.486 1.559-.282 3.278-.287 5.257-.014 1.457.2 2.304.611 2.664 1.295.255.483.248 1.131-.017 1.733-.234.526-.649 1.027-1.271 1.53-1.521 1.231-3.486 1.89-5.208 2.412a77.936 77.936 0 0 1-12.489 2.683c-.691.089-1.313.157-1.898.045zm.669 1.057c.448 0 .9-.051 1.358-.111a78.904 78.904 0 0 0 12.649-2.717c1.814-.549 3.887-1.247 5.548-2.592.748-.605 1.258-1.227 1.556-1.903.389-.88.384-1.853-.012-2.604C63.724 7.559 62.135 7.2 61 7.044c-2.084-.287-3.906-.279-5.571.021-1.688.305-3.29.932-4.84 1.539-.929.363-1.889.739-2.776 1.274-.842.507-1.571 1.129-2.172 1.67a34.29 34.29 0 0 0-3.359 3.479c-.098.118-.219.245-.345.382-.43.46-.916.981-1.087 1.548-.104.34-.069.667.101.946.245.404.739.67 1.509.814.284.053.567.073.853.073z"/><path fill="none" stroke="#4f2833" stroke-linecap="round" stroke-linejoin="round" stroke-miterlimit="20" stroke-width=".5" d="M42.644 17.733c-.671-.125-.816-.313-.838-.349-.009-.015-.028-.045.001-.138.103-.344.523-.794.861-1.155.14-.15.271-.292.38-.422a33.355 33.355 0 0 1 3.261-3.377c.567-.51 1.25-1.094 2.019-1.558.816-.491 1.735-.851 2.626-1.199 1.504-.589 3.061-1.198 4.652-1.486 1.559-.282 3.278-.287 5.257-.014 1.457.2 2.304.611 2.664 1.295.255.483.248 1.131-.017 1.733-.234.526-.649 1.027-1.271 1.53-1.521 1.231-3.486 1.89-5.208 2.412a77.936 77.936 0 0 1-12.489 2.683c-.691.089-1.313.157-1.898.045zm.669 1.057c.448 0 .9-.051 1.358-.111a78.904 78.904 0 0 0 12.649-2.717c1.814-.549 3.887-1.247 5.548-2.592.748-.605 1.258-1.227 1.556-1.903.389-.88.384-1.853-.012-2.604C63.724 7.559 62.135 7.2 61 7.044c-2.084-.287-3.906-.279-5.571.021-1.688.305-3.29.932-4.84 1.539-.929.363-1.889.739-2.776 1.274-.842.507-1.571 1.129-2.172 1.67a34.29 34.29 0 0 0-3.359 3.479c-.098.118-.219.245-.345.382-.43.46-.916.981-1.087 1.548-.104.34-.069.667.101.946.245.404.739.67 1.509.814.284.053.567.073.853.073z"/></g></g><g><g><path fill="#f9f6e1" d="M50.907 5.286c1.265-1.012 2.602-1.972 4.119-2.54 1.517-.568 3.248-.712 4.746-.097 1.299.534 2.331 1.601 3.018 2.825.687 1.225 1.501 2.398 1.417 4.502-1.834-3.651-10.882.061-15.613 2.461a20.6 20.6 0 0 0-6.968 5.771c-.139.18-.926-.859-.974-.979-.211-.533-.009-.729.311-1.136.729-.929 1.375-1.925 2.103-2.858a47.928 47.928 0 0 1 7.841-7.949z"/><path fill="none" stroke="#4f2833" stroke-linecap="round" stroke-linejoin="round" stroke-miterlimit="20" stroke-width=".5" d="M50.907 5.286c1.265-1.012 2.602-1.972 4.119-2.54 1.517-.568 3.248-.712 4.746-.097 1.299.534 2.331 1.601 3.018 2.825.687 1.225 1.501 2.398 1.417 4.502-1.834-3.651-10.882.061-15.613 2.461a20.6 20.6 0 0 0-6.968 5.771c-.139.18-.926-.859-.974-.979-.211-.533-.009-.729.311-1.136.729-.929 1.375-1.925 2.103-2.858a47.928 47.928 0 0 1 7.841-7.949z"/></g><g><path fill="#f9f6e1" d="M55.201 3.214c1.563-.584 3.117-.621 4.382-.102 1.097.451 2.081 1.376 2.771 2.607l.208.363c.444.776.872 1.522 1.056 2.519a3.618 3.618 0 0 0-.836-.393c-3.915-1.286-12.022 2.569-14.415 3.783a21.137 21.137 0 0 0-6.851 5.55 5.368 5.368 0 0 1-.399-.497c-.09-.228-.09-.228.175-.561l.064-.082c.377-.481.734-.979 1.089-1.478.332-.465.664-.93 1.015-1.381a47.69 47.69 0 0 1 4.743-5.232 47.73 47.73 0 0 1 3.017-2.633c1.184-.948 2.486-1.903 3.981-2.463zm-13.18 15.299a20.164 20.164 0 0 1 6.799-5.631c4.75-2.409 10.83-4.653 13.65-3.724.618.203 1.04.545 1.291 1.042l.869 1.729.077-1.933c.081-2.042-.642-3.301-1.278-4.412l-.202-.355c-.8-1.426-1.959-2.506-3.264-3.042-1.498-.615-3.314-.583-5.111.091-1.632.61-3.068 1.666-4.257 2.618a48.873 48.873 0 0 0-3.081 2.689 48.65 48.65 0 0 0-4.843 5.343c-.359.462-.699.938-1.039 1.415-.348.486-.694.972-1.123 1.518-.307.386-.625.786-.321 1.552.025.064.752 1.232 1.312 1.31l.345.021z"/><path fill="none" stroke="#4f2833" stroke-linecap="round" stroke-linejoin="round" stroke-miterlimit="20" stroke-width=".5" d="M55.201 3.214c1.563-.584 3.117-.621 4.382-.102 1.097.451 2.081 1.376 2.771 2.607l.208.363c.444.776.872 1.522 1.056 2.519a3.618 3.618 0 0 0-.836-.393c-3.915-1.286-12.022 2.569-14.415 3.783a21.137 21.137 0 0 0-6.851 5.55 5.368 5.368 0 0 1-.399-.497c-.09-.228-.09-.228.175-.561l.064-.082c.377-.481.734-.979 1.089-1.478.332-.465.664-.93 1.015-1.381a47.69 47.69 0 0 1 4.743-5.232 47.73 47.73 0 0 1 3.017-2.633c1.184-.948 2.486-1.903 3.981-2.463zm-13.18 15.299a20.164 20.164 0 0 1 6.799-5.631c4.75-2.409 10.83-4.653 13.65-3.724.618.203 1.04.545 1.291 1.042l.869 1.729.077-1.933c.081-2.042-.642-3.301-1.278-4.412l-.202-.355c-.8-1.426-1.959-2.506-3.264-3.042-1.498-.615-3.314-.583-5.111.091-1.632.61-3.068 1.666-4.257 2.618a48.873 48.873 0 0 0-3.081 2.689 48.65 48.65 0 0 0-4.843 5.343c-.359.462-.699.938-1.039 1.415-.348.486-.694.972-1.123 1.518-.307.386-.625.786-.321 1.552.025.064.752 1.232 1.312 1.31l.345.021z"/></g></g></g><g><g><g><path fill="#f9f6e1" d="M37.025 13.661c-.536.371-.971.909-1.146 1.537a3.581 3.581 0 0 0-.106 1.017c.008.55.078 1.1.206 1.636.069.286.159.575.344.804.234.291.591.449.943.573a8.42 8.42 0 0 0 4.879.213c.599-.155 1.243-.433 1.482-1.004.099-.239.116-.503.125-.761.027-.71.011-1.43-.162-2.12-.172-.69-.513-1.353-1.054-1.816-.508-.434-1.163-.668-1.824-.77-1.273-.198-2.603-.059-3.687.691z"/><path fill="none" stroke="#4f2833" stroke-linecap="round" stroke-linejoin="round" stroke-miterlimit="20" stroke-width=".5" d="M37.025 13.661c-.536.371-.971.909-1.146 1.537a3.581 3.581 0 0 0-.106 1.017c.008.55.078 1.1.206 1.636.069.286.159.575.344.804.234.291.591.449.943.573a8.42 8.42 0 0 0 4.879.213c.599-.155 1.243-.433 1.482-1.004.099-.239.116-.503.125-.761.027-.71.011-1.43-.162-2.12-.172-.69-.513-1.353-1.054-1.816-.508-.434-1.163-.668-1.824-.77-1.273-.198-2.603-.059-3.687.691z"/></g><g><path fill="#f9f6e1" d="M39.697 13.389c.339 0 .657.031.939.075.655.101 1.185.322 1.575.656.531.455.779 1.098.894 1.557.17.682.168 1.417.147 1.98-.008.228-.021.43-.086.586-.13.311-.516.551-1.146.714a7.95 7.95 0 0 1-4.587-.2c-.267-.094-.562-.218-.721-.416-.126-.155-.192-.383-.246-.608a6.938 6.938 0 0 1-.193-1.525c-.004-.371.022-.641.087-.876.134-.481.472-.929.95-1.26.759-.526 1.625-.683 2.387-.683zm.365 6.814a8.82 8.82 0 0 0 2.208-.278c.962-.249 1.557-.672 1.818-1.296.13-.31.152-.631.164-.934.023-.63.024-1.456-.176-2.26-.216-.862-.636-1.579-1.215-2.075-.533-.456-1.23-.754-2.072-.884-1.565-.243-2.965.025-4.048.774-.67.464-1.147 1.108-1.344 1.813-.092.332-.13.689-.124 1.159.009.587.082 1.174.22 1.745.077.321.189.691.441 1.002.315.392.766.59 1.165.731a8.928 8.928 0 0 0 2.963.503z"/><path fill="none" stroke="#4f2833" stroke-linecap="round" stroke-linejoin="round" stroke-miterlimit="20" stroke-width=".5" d="M39.697 13.389c.339 0 .657.031.939.075.655.101 1.185.322 1.575.656.531.455.779 1.098.894 1.557.17.682.168 1.417.147 1.98-.008.228-.021.43-.086.586-.13.311-.516.551-1.146.714a7.95 7.95 0 0 1-4.587-.2c-.267-.094-.562-.218-.721-.416-.126-.155-.192-.383-.246-.608a6.938 6.938 0 0 1-.193-1.525c-.004-.371.022-.641.087-.876.134-.481.472-.929.95-1.26.759-.526 1.625-.683 2.387-.683zm.365 6.814a8.82 8.82 0 0 0 2.208-.278c.962-.249 1.557-.672 1.818-1.296.13-.31.152-.631.164-.934.023-.63.024-1.456-.176-2.26-.216-.862-.636-1.579-1.215-2.075-.533-.456-1.23-.754-2.072-.884-1.565-.243-2.965.025-4.048.774-.67.464-1.147 1.108-1.344 1.813-.092.332-.13.689-.124 1.159.009.587.082 1.174.22 1.745.077.321.189.691.441 1.002.315.392.766.59 1.165.731a8.928 8.928 0 0 0 2.963.503z"/></g></g></g></g></g></g></svg>