<?xml version="1.0" encoding="utf-8"?>
<!-- Generator: Adobe Illustrator 25.3.1, SVG Export Plug-In . SVG Version: 6.00 Build 0)  -->
<svg version="1.1" id="Слой_1" xmlns="http://www.w3.org/2000/svg" xmlns:xlink="http://www.w3.org/1999/xlink" x="0px" y="0px"
	 viewBox="0 0 145.3540039 145.3560181" style="enable-background:new 0 0 145.3540039 145.3560181;" xml:space="preserve">
<style type="text/css">
	.st0{fill:#DE9EC1;}
	.st1{fill:none;stroke:#4F2833;stroke-width:4;stroke-miterlimit:40;}
</style>
<g>
	<g>
		<g>
			<path class="st0" d="M24.7200012,143.3519897C12.1720009,143.3519897,2,133.1799927,2,120.6319962V24.7199974
				C2,12.173996,12.1720009,2,24.7200012,2h95.916008c12.5459976,0,22.7179947,10.1739998,22.7179947,22.7200012v95.916008
				c0,12.5459976-10.1719971,22.7200089-22.7199936,22.7200089L24.7200012,143.3519897z"/>
			<path class="st1" d="M24.7200012,143.3519897C12.1720009,143.3519897,2,133.1799927,2,120.6319962V24.7199974
				C2,12.173996,12.1720009,2,24.7200012,2h95.916008c12.5459976,0,22.7179947,10.1739998,22.7179947,22.7200012v95.916008
				c0,12.5459976-10.1719971,22.7200089-22.7199936,22.7200089L24.7200012,143.3519897z"/>
		</g>
		<g>
			<path class="st0" d="M24.7200012,143.3519897C12.1720009,143.3519897,2,133.1799927,2,120.6319962V24.7199974
				C2,12.173996,12.1720009,2,24.7200012,2h95.916008c12.5459976,0,22.7179947,10.1739998,22.7179947,22.7200012v95.916008
				c0,12.5459976-10.1719971,22.7200089-22.7199936,22.7200089L24.7200012,143.3519897z"/>
			<path class="st1" d="M24.7200012,143.3519897C12.1720009,143.3519897,2,133.1799927,2,120.6319962V24.7199974
				C2,12.173996,12.1720009,2,24.7200012,2h95.916008c12.5459976,0,22.7179947,10.1739998,22.7179947,22.7200012v95.916008
				c0,12.5459976-10.1719971,22.7200089-22.7199936,22.7200089L24.7200012,143.3519897z"/>
		</g>
	</g>
</g>
</svg>
