<svg xmlns="http://www.w3.org/2000/svg" width="162" height="160" viewBox="0 0 81 80"><g><g><g><g><path fill="#4f2833" d="M.749 39.74C.749 17.792 18.54 0 40.489 0s39.74 17.792 39.74 39.74-17.792 39.74-39.74 39.74S.749 61.689.749 39.74z"/></g></g><g><g><path fill="#f7b780" d="M7.671 39.74c0-18.124 14.693-32.817 32.818-32.817S73.307 21.616 73.307 39.74c0 18.125-14.693 32.818-32.818 32.818S7.67 57.865 7.67 39.74z"/></g><g><path fill="#fff" d="M73.133 39.74c0 18-14.644 32.645-32.644 32.645S7.845 57.74 7.845 39.74c0-18 14.644-32.644 32.644-32.644S73.133 21.74 73.133 39.74zm.347 0c0-18.191-14.8-32.991-32.991-32.991-18.192 0-32.992 14.8-32.992 32.991 0 18.192 14.8 32.992 32.992 32.992 18.191 0 32.991-14.8 32.991-32.992z"/></g></g><g><g><path fill="#fff" d="M38.374 4.49zm-.102-1.735a37.896 37.896 0 0 1 4.316-.006l-.097 1.734a36.25 36.25 0 0 0-4.117.007zm12.316 3.134a35.249 35.249 0 0 0-4.007-.94l.297-1.711a37.08 37.08 0 0 1 4.205.985zm-20.306.032zm-.5-1.664a37.017 37.017 0 0 1 4.201-.999l.303 1.71a35.37 35.37 0 0 0-4.004.953zM58.14 9.135a35.424 35.424 0 0 0-3.681-1.845l.686-1.596a37.323 37.323 0 0 1 3.862 1.936zm-35.395.053l-.872-1.502a37.066 37.066 0 0 1 3.853-1.946l.692 1.594a35.474 35.474 0 0 0-3.673 1.854zm41.993 4.849a35.395 35.395 0 0 0-3.157-2.643l1.036-1.395a37.445 37.445 0 0 1 3.312 2.772zm-48.575.071l-1.193-1.262a37.422 37.422 0 0 1 3.302-2.78l1.04 1.391a35.719 35.719 0 0 0-3.149 2.651zm53.873 6.213a35.625 35.625 0 0 0-2.466-3.295l1.328-1.12a37.495 37.495 0 0 1 2.587 3.456zm-59.152.088l-1.452-.954a37.265 37.265 0 0 1 2.578-3.465l1.331 1.116a35.696 35.696 0 0 0-2.457 3.303zm62.858 7.244a35.309 35.309 0 0 0-1.64-3.775l1.551-.784a37.108 37.108 0 0 1 1.72 3.961zm-66.544.104l-1.633-.593a37.044 37.044 0 0 1 1.708-3.968l1.553.779a35.252 35.252 0 0 0-1.628 3.782zm68.449 7.889a35.546 35.546 0 0 0-.718-4.053l1.689-.402c.333 1.394.586 2.824.754 4.252zm-70.329.111l-1.726-.197c.163-1.427.412-2.858.74-4.254l1.691.397a35.345 35.345 0 0 0-.705 4.054zm72.063 8.383l-1.725-.2c.156-1.355.236-2.738.236-4.11v-.077h1.737v.077c0 1.438-.083 2.888-.248 4.31zm-73.78.039a37.499 37.499 0 0 1-.252-4.31l1.737-.001c.002 1.372.082 2.755.24 4.109zM75.4 52.533l-1.633-.594a35.248 35.248 0 0 0 1.179-3.945l1.691.399a37.135 37.135 0 0 1-1.237 4.14zm-69.809.035a37.11 37.11 0 0 1-1.241-4.136l1.69-.401a35.291 35.291 0 0 0 1.183 3.941zm65.933 7.67l-1.451-.955a35.512 35.512 0 0 0 2.062-3.564l1.552.781a37.388 37.388 0 0 1-2.163 3.738zm-62.053.027a37.115 37.115 0 0 1-2.164-3.734l1.551-.782a35.56 35.56 0 0 0 2.064 3.56zm56.508 6.576l-1.192-1.263a35.822 35.822 0 0 0 2.825-2.994l1.33 1.117a37.392 37.392 0 0 1-2.963 3.14zm-50.959.021a37.545 37.545 0 0 1-2.965-3.138l1.329-1.118a35.829 35.829 0 0 0 2.828 2.992zm44.05 5.132l-.87-1.504a35.584 35.584 0 0 0 3.435-2.264l1.039 1.392a37.171 37.171 0 0 1-3.604 2.376zm-37.134.017a37.202 37.202 0 0 1-3.608-2.374l1.038-1.393a35.507 35.507 0 0 0 3.439 2.263zm29.222 3.404l-.498-1.665a35.375 35.375 0 0 0 3.866-1.409l.69 1.594a37.08 37.08 0 0 1-4.058 1.48zm-21.301.011a37.047 37.047 0 0 1-4.06-1.476l.688-1.595a35.033 35.033 0 0 0 3.869 1.406zm12.81 1.481l-.1-1.734a35.654 35.654 0 0 0 4.088-.475l.301 1.711a37.368 37.368 0 0 1-4.289.498zm-4.316.003a37.431 37.431 0 0 1-4.289-.494l.298-1.712a35.59 35.59 0 0 0 4.089.471z"/></g></g></g></g></svg>