<svg xmlns="http://www.w3.org/2000/svg" width="130" height="130" viewBox="0 0 65 65"><g><g><g><g><path fill="#4f2833" d="M.107 32.247C.107 14.543 14.459.191 32.163.191 49.867.19 64.22 14.543 64.22 32.247c0 17.704-14.353 32.056-32.057 32.056S.107 49.951.107 32.248z"/></g></g><g><g><path fill="#f0e9cf" d="M5.691 32.247c0-14.62 11.852-26.472 26.472-26.472 14.62 0 26.473 11.852 26.473 26.472 0 14.62-11.853 26.472-26.473 26.472S5.691 46.867 5.691 32.247z"/></g><g><path fill="#fff" d="M58.496 32.247c0 14.52-11.813 26.332-26.333 26.332-14.519 0-26.333-11.812-26.333-26.332 0-14.52 11.814-26.331 26.333-26.331 14.52 0 26.333 11.812 26.333 26.33zm.28 0c0-14.674-11.938-26.612-26.613-26.612-14.673 0-26.612 11.938-26.612 26.612 0 14.675 11.939 26.613 26.612 26.613 14.675 0 26.613-11.938 26.613-26.613z"/></g></g><g><g><path fill="#fff" d="M30.458 3.812l-.083-1.398a30.597 30.597 0 0 1 3.482-.007l-.078 1.4c-1.092-.06-2.22-.059-3.321.005zm9.851 1.128a28.327 28.327 0 0 0-3.232-.757l.24-1.38a29.6 29.6 0 0 1 3.39.795zm-16.378.027l-.404-1.343a30.033 30.033 0 0 1 3.389-.805l.244 1.38a28.287 28.287 0 0 0-3.23.768zM46.4 7.56a28.693 28.693 0 0 0-2.97-1.487l.554-1.288c1.063.457 2.11.982 3.116 1.562zm-28.551.043l-.703-1.211a29.88 29.88 0 0 1 3.108-1.57l.558 1.286a28.634 28.634 0 0 0-2.963 1.495zm33.873 3.911a28.455 28.455 0 0 0-2.545-2.13l.835-1.126c.93.69 1.828 1.443 2.671 2.235zm-39.182.058l-.963-1.019a30.815 30.815 0 0 1 2.663-2.242l.84 1.122a29.08 29.08 0 0 0-2.54 2.139zm43.455 5.011a28.257 28.257 0 0 0-1.989-2.657l1.071-.904a30.093 30.093 0 0 1 2.088 2.788zm-47.713.072l-1.171-.77a30.352 30.352 0 0 1 2.078-2.796l1.075.9a28.834 28.834 0 0 0-1.982 2.666zm50.704 5.843a28.422 28.422 0 0 0-1.323-3.044l1.25-.633c.524 1.034.99 2.108 1.39 3.196zm-53.678.085l-1.318-.479c.395-1.088.86-2.166 1.379-3.2l1.253.628a28.314 28.314 0 0 0-1.314 3.05zm55.214 6.362a28.698 28.698 0 0 0-.579-3.269l1.363-.323a29.97 29.97 0 0 1 .608 3.428zm-56.731.091l-1.392-.16c.133-1.152.333-2.306.598-3.431l1.363.32a28.644 28.644 0 0 0-.57 3.271zm58.13 6.761l-1.391-.16c.126-1.094.19-2.21.19-3.316v-.062h1.4v.062a30.46 30.46 0 0 1-.199 3.476zm-59.514.03a30.396 30.396 0 0 1-.204-3.476h1.401c.002 1.107.067 2.222.195 3.314zm57.916 6.74l-1.317-.479c.378-1.037.697-2.108.95-3.183l1.365.322a30.094 30.094 0 0 1-.998 3.34zm-56.31.028a29.95 29.95 0 0 1-1.002-3.336l1.363-.323c.255 1.074.577 2.143.955 3.18zm53.184 6.188l-1.171-.772a28.499 28.499 0 0 0 1.664-2.873l1.25.63a30.033 30.033 0 0 1-1.743 3.015zm-50.054.022a30.174 30.174 0 0 1-1.747-3.012l1.251-.632c.497.984 1.057 1.95 1.666 2.871zm45.58 5.304l-.961-1.02c.803-.757 1.57-1.57 2.28-2.414l1.072.9a30.159 30.159 0 0 1-2.39 2.534zm-41.105.016a30.148 30.148 0 0 1-2.392-2.53l1.073-.903c.709.845 1.477 1.656 2.28 2.413zm35.533 4.141zm-.701-1.214a28.648 28.648 0 0 0 2.77-1.827l.838 1.124a30.522 30.522 0 0 1-2.907 1.917zm-29.253 1.227a30.06 30.06 0 0 1-2.91-1.914l.836-1.124a29.01 29.01 0 0 0 2.775 1.825zm23.572 2.745l-.402-1.342a28.367 28.367 0 0 0 3.118-1.137l.556 1.287c-1.063.459-2.164.86-3.272 1.192zm-17.182.01a29.63 29.63 0 0 1-3.276-1.191l.555-1.287c1.012.437 2.063.82 3.121 1.135zm10.331 1.195zm-.08-1.4a28.901 28.901 0 0 0 3.299-.382l.242 1.38c-1.138.2-2.303.335-3.46.402zm-3.4 1.401a29.8 29.8 0 0 1-3.46-.398l.241-1.38c1.083.19 2.194.317 3.298.379z"/></g></g></g></g></svg>