<svg xmlns="http://www.w3.org/2000/svg" width="258" height="66" viewBox="0 0 129 33"><g><g><g><g><path fill="#e38051" d="M23.167 5.391c1.275 1.207 1.913 2.991 1.913 5.353V22.49h-5.102l-.031-12.187c0-1.837-.792-2.756-2.377-2.756h-2.426a18.653 18.653 0 0 0-.33 1.898 15.35 15.35 0 0 0-.126 1.882v5.337c0 1.281-.231 2.38-.693 3.299-.462.918-1.128 1.617-1.999 2.094-.872.477-1.916.717-3.134.717-.703 0-1.517-.069-2.44-.205v-3.952c.441.021.782.031 1.023.031 1.501 0 2.252-.792 2.252-2.378v-4.471c0-.672.089-1.407.267-2.205.179-.797.441-1.48.788-2.047H7.855V3.58h9.699c2.466 0 4.337.604 5.613 1.811z"/></g><g><path fill="#e38051" d="M29.914 7.547h-1.606V3.58h6.739v18.91h-5.133z"/></g><g><path fill="#e38051" d="M41.298 7.547h-2.929V3.58h8.046v10.801h-5.117z"/></g><g><path fill="#e38051" d="M57.641 10.051c0-.808-.23-1.427-.692-1.858-.462-.43-1.129-.646-2-.646h-5.637V3.58h6.015c1.543 0 2.874.267 3.991.803 1.118.535 1.971 1.307 2.559 2.314.588 1.008.882 2.215.882 3.622V22.49h-5.118z"/></g><g><path fill="#e38051" d="M67.593 7.547h-1.606V3.58h6.739v18.91h-5.133z"/></g><g><path fill="#e38051" d="M75.434 22.616v-4.613a9.19 9.19 0 0 0 1.543.126c2.257-.011 3.795-1.008 4.614-2.992v-7.59h-4.126V3.58h9.164v9.557c0 1.018.105 2.037.315 3.055l1.259 6.298h-4.707l-1.134-4.724h-.094a6.136 6.136 0 0 1-1.024 2.528 5.713 5.713 0 0 1-1.976 1.771 5.346 5.346 0 0 1-2.59.645c-.43 0-.845-.031-1.244-.094z"/></g><g><path fill="#e38051" d="M96.258 21.844a7.234 7.234 0 0 1-2.921-2.881c-.693-1.239-1.039-2.666-1.039-4.283V3.58h5.117v11.698c0 .725.131 1.365.393 1.922.263.556.635.986 1.118 1.291.483.304 1.034.456 1.654.456.63 0 1.186-.152 1.669-.456a3 3 0 0 0 1.117-1.291c.263-.557.394-1.197.394-1.922V9.909c0-.808-.173-1.411-.519-1.81-.347-.399-.877-.599-1.591-.599-.43 0-.986.074-1.669.221l-.472-3.275a8.618 8.618 0 0 1 1.952-.788c.725-.199 1.391-.299 2-.299 1.123 0 2.091.244 2.905.733.813.488 1.436 1.194 1.866 2.117.43.924.646 2.021.646 3.291v5.18c0 1.617-.344 3.044-1.032 4.283a7.195 7.195 0 0 1-2.913 2.881c-1.254.683-2.7 1.024-4.338 1.024-1.637 0-3.083-.341-4.337-1.024z"/></g><g><path fill="#e38051" d="M113.081 29.04h4.945V15.357c0-1.448.094-2.619.283-3.511h-4.078c-.294.315-.559.788-.795 1.417-.237.63-.355 1.512-.355 2.646zm6.771-6.55c1.921-.073 3.564-.441 4.928-1.102 1.365-.662 2.409-1.606 3.134-2.834.724-1.228 1.086-2.719 1.086-4.472V3.58h-16.044v3.967h10.927v6.629c0 1.418-.347 2.496-1.039 3.236-.693.74-1.69 1.136-2.992 1.189z"/></g></g><g><g><path fill="#a57f40" d="M21.522 5.831c1.275 1.207 1.913 2.992 1.913 5.354v11.746h-5.102l-.031-12.187c0-1.837-.793-2.756-2.378-2.756h-2.425a18.607 18.607 0 0 0-.33 1.898 15.347 15.347 0 0 0-.126 1.881v5.338c0 1.281-.231 2.38-.693 3.299a4.773 4.773 0 0 1-2 2.094c-.871.477-1.916.716-3.133.716-.703 0-1.517-.068-2.44-.204v-3.953c.44.022.781.032 1.023.032 1.501 0 2.252-.793 2.252-2.378v-4.472c0-.671.088-1.406.267-2.204.178-.798.441-1.48.787-2.047H6.209V4.02h9.699c2.467 0 4.338.604 5.614 1.811z"/></g><g><path fill="#a57f40" d="M28.268 7.988h-1.606V4.02h6.739v18.911h-5.133z"/></g><g><path fill="#a57f40" d="M39.652 7.988h-2.928V4.02h8.046v10.802h-5.118z"/></g><g><path fill="#a57f40" d="M55.996 10.492c0-.808-.231-1.427-.693-1.858-.462-.43-1.128-.646-1.999-.646h-5.637V4.02h6.015c1.542 0 2.873.268 3.991.804 1.118.535 1.971 1.306 2.559 2.314.588 1.008.882 2.215.882 3.621v12.172h-5.118z"/></g><g><path fill="#a57f40" d="M65.948 7.988h-1.606V4.02h6.738v18.911h-5.132z"/></g><g><path fill="#a57f40" d="M73.789 23.057v-4.614a9.173 9.173 0 0 0 1.543.126c2.257-.01 3.795-1.007 4.613-2.991v-7.59H75.82V4.02h9.164v9.558c0 1.018.104 2.037.315 3.055l1.259 6.298H81.85l-1.133-4.724h-.095a6.13 6.13 0 0 1-1.023 2.527 5.706 5.706 0 0 1-1.976 1.772 5.347 5.347 0 0 1-2.591.645c-.43 0-.844-.031-1.243-.094z"/></g><g><path fill="#a57f40" d="M94.612 22.285a7.252 7.252 0 0 1-2.921-2.881c-.693-1.239-1.039-2.666-1.039-4.283V4.02h5.117v11.699c0 .725.131 1.365.394 1.921.263.557.635.987 1.118 1.292a3.038 3.038 0 0 0 1.653.456c.63 0 1.186-.152 1.669-.456a2.992 2.992 0 0 0 1.118-1.292c.263-.556.394-1.196.394-1.921V10.35c0-.808-.174-1.412-.52-1.811-.346-.399-.876-.598-1.59-.598-.431 0-.987.074-1.669.22l-.473-3.275a8.644 8.644 0 0 1 1.953-.787c.724-.199 1.391-.299 2-.299 1.123 0 2.091.244 2.905.732.813.488 1.435 1.194 1.865 2.118.431.924.646 2.021.646 3.291v5.18c0 1.617-.344 3.044-1.031 4.283a7.202 7.202 0 0 1-2.913 2.881c-1.255.682-2.7 1.024-4.338 1.024-1.637 0-3.084-.342-4.338-1.024z"/></g><g><path fill="#a57f40" d="M111.436 29.481h4.944V15.798c0-1.448.095-2.619.284-3.511h-4.078c-.295.315-.559.787-.795 1.417-.237.63-.355 1.511-.355 2.645zm6.771-6.55c1.921-.073 3.563-.441 4.928-1.102 1.364-.662 2.409-1.606 3.133-2.835.725-1.228 1.087-2.718 1.087-4.471V4.02H111.31v3.968h10.928v6.629c0 1.417-.347 2.496-1.04 3.236-.693.74-1.69 1.136-2.991 1.189z"/></g></g><g><g><path fill="#f4f6e7" d="M19.798 5.831c1.275 1.207 1.913 2.992 1.913 5.354v11.746h-5.102l-.031-12.187c0-1.837-.793-2.756-2.378-2.756h-2.425a18.607 18.607 0 0 0-.33 1.898 15.345 15.345 0 0 0-.126 1.881v5.338c0 1.281-.231 2.38-.693 3.299a4.773 4.773 0 0 1-2 2.094c-.871.477-1.916.716-3.133.716-.703 0-1.517-.068-2.44-.204v-3.953c.44.022.781.032 1.023.032 1.501 0 2.252-.793 2.252-2.378v-4.472c0-.671.088-1.406.267-2.204.179-.798.441-1.48.787-2.047H4.485V4.02h9.7c2.466 0 4.337.604 5.613 1.811z"/><path fill="none" stroke="#4f2833" stroke-miterlimit="20" stroke-width=".25" d="M19.798 5.831c1.275 1.207 1.913 2.992 1.913 5.354v11.746h-5.102v0l-.031-12.187c0-1.837-.793-2.756-2.378-2.756h-2.425a18.607 18.607 0 0 0-.33 1.898 15.345 15.345 0 0 0-.126 1.881v5.338c0 1.281-.231 2.38-.693 3.299a4.773 4.773 0 0 1-2 2.094c-.871.477-1.916.716-3.133.716-.703 0-1.517-.068-2.44-.204v-3.953c.44.022.781.032 1.023.032 1.501 0 2.252-.793 2.252-2.378v-4.472c0-.671.088-1.406.267-2.204.179-.798.441-1.48.787-2.047H4.485v0V4.02v0h9.7c2.466 0 4.337.604 5.613 1.811z"/></g><g><path fill="#f4f6e7" d="M26.544 7.988h-1.605V4.02h6.738v18.911h-5.133z"/><path fill="none" stroke="#4f2833" stroke-miterlimit="20" stroke-width=".25" d="M26.544 7.988v0h-1.605v0V4.02v0h6.738v18.911h-5.133v0z"/></g><g><path fill="#f4f6e7" d="M37.928 7.988H35V4.02h8.046v10.802h-5.118z"/><path fill="none" stroke="#4f2833" stroke-miterlimit="20" stroke-width=".25" d="M37.928 7.988v0H35v0V4.02v0h8.046v10.802h-5.118v0z"/></g><g><path fill="#f4f6e7" d="M54.272 10.492c0-.808-.231-1.427-.693-1.858-.462-.43-1.128-.646-1.999-.646h-5.637V4.02h6.015c1.542 0 2.873.268 3.991.804 1.118.535 1.971 1.306 2.559 2.314.588 1.008.882 2.215.882 3.621v12.172h-5.118z"/><path fill="none" stroke="#4f2833" stroke-miterlimit="20" stroke-width=".25" d="M54.272 10.492c0-.808-.231-1.427-.693-1.858-.462-.43-1.128-.646-1.999-.646h-5.637v0V4.02v0h6.015c1.542 0 2.873.268 3.991.804 1.118.535 1.971 1.306 2.559 2.314.588 1.008.882 2.215.882 3.621v12.172h-5.118v0z"/></g><g><path fill="#f4f6e7" d="M64.224 7.988h-1.606V4.02h6.738v18.911h-5.132z"/><path fill="none" stroke="#4f2833" stroke-miterlimit="20" stroke-width=".25" d="M64.224 7.988v0h-1.606v0V4.02v0h6.738v18.911h-5.132v0z"/></g><g><path fill="#f4f6e7" d="M72.065 23.057v-4.614a9.173 9.173 0 0 0 1.543.126c2.257-.01 3.795-1.007 4.613-2.991v-7.59h-4.125V4.02h9.164v9.558c0 1.018.104 2.037.315 3.055l1.259 6.298h-4.708l-1.133-4.724h-.095a6.13 6.13 0 0 1-1.023 2.527 5.706 5.706 0 0 1-1.976 1.772 5.347 5.347 0 0 1-2.591.645c-.43 0-.844-.031-1.243-.094z"/><path fill="none" stroke="#4f2833" stroke-miterlimit="20" stroke-width=".25" d="M72.065 23.057v0-4.614a9.173 9.173 0 0 0 1.543.126c2.257-.01 3.795-1.007 4.613-2.991v-7.59 0h-4.125v0V4.02v0h9.164v9.558c0 1.018.104 2.037.315 3.055l1.259 6.298v0h-4.708v0l-1.133-4.724v0h-.095a6.13 6.13 0 0 1-1.023 2.527 5.706 5.706 0 0 1-1.976 1.772 5.347 5.347 0 0 1-2.591.645c-.43 0-.844-.031-1.243-.094z"/></g><g><path fill="#f4f6e7" d="M92.888 22.285a7.252 7.252 0 0 1-2.921-2.881c-.693-1.239-1.039-2.666-1.039-4.283V4.02h5.117v11.699c0 .725.131 1.365.394 1.921.263.557.635.987 1.118 1.292a3.037 3.037 0 0 0 1.653.456c.63 0 1.186-.152 1.669-.456a2.992 2.992 0 0 0 1.118-1.292c.263-.556.394-1.196.394-1.921V10.35c0-.808-.174-1.412-.52-1.811-.346-.399-.876-.598-1.59-.598-.431 0-.987.074-1.669.22l-.473-3.275a8.644 8.644 0 0 1 1.953-.787c.724-.199 1.391-.299 2-.299 1.123 0 2.091.244 2.905.732.813.488 1.435 1.194 1.865 2.118.431.924.646 2.021.646 3.291v5.18c0 1.617-.344 3.044-1.031 4.283a7.202 7.202 0 0 1-2.913 2.881c-1.255.682-2.7 1.024-4.338 1.024-1.637 0-3.084-.342-4.338-1.024z"/><path fill="none" stroke="#4f2833" stroke-miterlimit="20" stroke-width=".25" d="M92.888 22.285a7.252 7.252 0 0 1-2.921-2.881c-.693-1.239-1.039-2.666-1.039-4.283V4.02v0h5.117v11.699c0 .725.131 1.365.394 1.921.263.557.635.987 1.118 1.292a3.037 3.037 0 0 0 1.653.456c.63 0 1.186-.152 1.669-.456a2.992 2.992 0 0 0 1.118-1.292c.263-.556.394-1.196.394-1.921V10.35c0-.808-.174-1.412-.52-1.811-.346-.399-.876-.598-1.59-.598-.431 0-.987.074-1.669.22l-.473-3.275a8.644 8.644 0 0 1 1.953-.787c.724-.199 1.391-.299 2-.299 1.123 0 2.091.244 2.905.732.813.488 1.435 1.194 1.865 2.118.431.924.646 2.021.646 3.291v5.18c0 1.617-.344 3.044-1.031 4.283a7.202 7.202 0 0 1-2.913 2.881c-1.255.682-2.7 1.024-4.338 1.024-1.637 0-3.084-.342-4.338-1.024z"/></g><g><path fill="#f4f6e7" d="M109.712 29.481h4.944V15.798c0-1.448.095-2.619.284-3.511h-4.078c-.295.315-.559.787-.795 1.417-.237.63-.355 1.511-.355 2.645zm6.771-6.55c1.921-.073 3.563-.441 4.928-1.102 1.364-.662 2.409-1.606 3.133-2.835.725-1.228 1.087-2.718 1.087-4.471V4.02h-16.045v3.968h10.928v6.629c0 1.417-.347 2.496-1.04 3.236-.693.74-1.69 1.136-2.991 1.189z"/><path fill="none" stroke="#4f2833" stroke-miterlimit="20" stroke-width=".25" d="M109.712 29.481h4.944V15.798c0-1.448.095-2.619.284-3.511h-4.078c-.295.315-.559.787-.795 1.417-.237.63-.355 1.511-.355 2.645zm6.771-6.55c1.921-.073 3.563-.441 4.928-1.102 1.364-.662 2.409-1.606 3.133-2.835.725-1.228 1.087-2.718 1.087-4.471V4.02h-16.045v3.968h10.928v6.629c0 1.417-.347 2.496-1.04 3.236-.693.74-1.69 1.136-2.991 1.189z"/></g></g></g></g></svg>