<svg xmlns="http://www.w3.org/2000/svg" width="246" height="48" viewBox="0 0 123 24"><g><g><g><g><path fill="#e58051" d="M15.06 9.35c0-1.532-.815-2.297-2.445-2.297H5.884V3.667h7.053c1.362 0 2.528.231 3.501.692.971.461 1.712 1.133 2.223 2.015.511.883.766 1.942.766 3.178v10.251H15.06zm-9.23 4.918c0-1.604.327-2.759.981-3.467h3.48c-.162.806-.242 1.805-.242 2.996v6.006H5.83z"/></g><g><path fill="#e58051" d="M23.659 19.984a17.56 17.56 0 0 1-1.652-.302v-3.265c.644.081 1.298.121 1.961.121.609 0 1.059-.165 1.351-.497.29-.331.436-.842.436-1.532V7.053h-2.822V3.667h7.188v11.192c0 1.084-.196 2.018-.591 2.801a4.094 4.094 0 0 1-1.713 1.794c-.748.412-1.641.618-2.68.618-.52 0-1.012-.029-1.478-.088z"/></g><g><path fill="#e58051" d="M41.972 13.152c-.09.636-.211 1.12-.363 1.452h3.547c.358-.439.645-1.06.86-1.861.215-.802.322-1.66.322-2.573V3.667h-4.232v7.43c0 .734-.045 1.42-.134 2.055zm-3.278-9.485h-4.219v14.51a21.5 21.5 0 0 0 4.588 1.579c1.617.363 3.186.544 4.709.544 1.944 0 3.697-.295 5.26-.887 1.563-.591 2.804-1.48 3.722-2.666.918-1.187 1.377-2.636 1.377-4.347V3.667h-4.232v8.236c0 1.684-.567 2.938-1.7 3.762-1.133.824-2.671 1.236-4.615 1.236-.744 0-1.556-.098-2.439-.296a13.847 13.847 0 0 1-2.451-.779z"/></g><g><path fill="#e58051" d="M67.432 9.35c0-1.532-.815-2.297-2.445-2.297h-6.731V3.667h7.053c1.362 0 2.528.231 3.5.692.972.461 1.713 1.133 2.224 2.015.51.883.766 1.942.766 3.178v10.251h-4.367zm-9.23 4.918c0-1.604.327-2.759.981-3.467h3.479c-.161.806-.241 1.805-.241 2.996v6.006h-4.219z"/></g><g><path fill="#e58051" d="M87.975 9.189c0-.69-.197-1.218-.591-1.585-.394-.368-.963-.551-1.706-.551h-4.81V3.667H86c1.317 0 2.452.228 3.406.685.954.457 1.682 1.115 2.184 1.975.501.86.752 1.89.752 3.09v10.386h-4.367z"/></g><g><path fill="#e58051" d="M97.206 10.828c.08-.716.257-1.404.53-2.062.274-.659.594-1.176.961-1.552.09-.089.152-.143.188-.161l-.013-.067c-.35.062-.764.161-1.243.295-.479.135-.885.269-1.216.403l-.914-3.157c1.03-.385 2.244-.694 3.641-.927a24.3 24.3 0 0 1 3.991-.349c2.481 0 4.364.629 5.649 1.887 1.286 1.259 1.933 3.115 1.942 5.569v9.096h-7.108v-3.386h2.728l-.014-6.301c0-1.048-.206-1.861-.618-2.438-.412-.578-.994-.867-1.746-.867-1.46 0-2.302 1.146-2.526 3.439l-.941 9.553h-4.313z"/></g><g><path fill="#e58051" d="M114.269 7.187l-.887-.242V3.667h9.042v3.386h-3.882l1.988 12.75h-4.488z"/></g></g><g><g><path fill="#a77f40" d="M13.709 9.448c0-1.532-.815-2.298-2.445-2.298H4.533V3.764h7.053c1.362 0 2.529.231 3.501.693.971.461 1.713 1.133 2.223 2.015.511.882.766 1.941.766 3.177v10.252h-4.367zm-9.23 4.917c0-1.603.327-2.759.981-3.466h3.48c-.162.806-.242 1.805-.242 2.996v6.006H4.479z"/></g><g><path fill="#a77f40" d="M22.308 20.082a17.615 17.615 0 0 1-1.652-.302v-3.265c.645.081 1.298.121 1.961.121.609 0 1.059-.166 1.351-.497.291-.332.436-.842.436-1.532V7.15h-2.821V3.764h7.188v11.193c0 1.083-.197 2.017-.592 2.801a4.09 4.09 0 0 1-1.712 1.793c-.748.412-1.642.618-2.681.618a11.98 11.98 0 0 1-1.478-.087z"/></g><g><path fill="#a77f40" d="M40.621 13.25c-.09.636-.21 1.12-.363 1.451h3.547c.359-.439.645-1.059.86-1.861a9.894 9.894 0 0 0 .323-2.573V3.764h-4.233v7.43c0 .735-.045 1.42-.134 2.056zm-3.278-9.486h-4.219v14.511a21.5 21.5 0 0 0 4.588 1.579c1.617.363 3.186.544 4.709.544 1.944 0 3.697-.296 5.261-.887 1.562-.591 2.803-1.48 3.721-2.667.918-1.187 1.377-2.635 1.377-4.346V3.764h-4.232v8.237c0 1.684-.567 2.938-1.699 3.762-1.134.824-2.672 1.236-4.616 1.236-.743 0-1.556-.099-2.438-.296-.883-.197-1.7-.457-2.452-.779z"/></g><g><path fill="#a77f40" d="M66.081 9.448c0-1.532-.815-2.298-2.445-2.298h-6.731V3.764h7.053c1.362 0 2.529.231 3.501.693.971.461 1.713 1.133 2.223 2.015.511.882.766 1.941.766 3.177v10.252h-4.367zm-9.23 4.917c0-1.603.327-2.759.981-3.466h3.48c-.162.806-.242 1.805-.242 2.996v6.006h-4.219z"/></g><g><path fill="#a77f40" d="M86.624 9.287c0-.69-.197-1.218-.591-1.586-.394-.367-.963-.551-1.706-.551h-4.81V3.764h5.132c1.317 0 2.453.229 3.406.686.954.457 1.682 1.115 2.184 1.975.501.86.752 1.89.752 3.09v10.386h-4.367z"/></g><g><path fill="#a77f40" d="M95.855 10.926c.08-.717.257-1.404.531-2.063.273-.658.593-1.175.96-1.552a1.05 1.05 0 0 1 .188-.161l-.013-.067c-.349.063-.764.162-1.243.296-.479.134-.884.268-1.216.403l-.914-3.157c1.03-.386 2.244-.695 3.641-.928a24.409 24.409 0 0 1 3.991-.349c2.481 0 4.364.629 5.65 1.888 1.285 1.258 1.932 3.115 1.941 5.569v9.096h-7.107v-3.386h2.727l-.013-6.301c0-1.048-.207-1.861-.618-2.439-.412-.578-.995-.866-1.747-.866-1.46 0-2.302 1.146-2.526 3.439l-.941 9.553h-4.312z"/></g><g><path fill="#a77f40" d="M112.918 7.285l-.886-.242V3.764h9.041V7.15h-3.882l1.988 12.751h-4.487z"/></g></g><g><g><path fill="#f6f8e9" d="M12.277 9.1c0-1.532-.815-2.298-2.446-2.298H3.1V3.416h7.054c1.361 0 2.528.231 3.5.692.972.462 1.713 1.133 2.224 2.015.51.883.765 1.942.765 3.178v10.252h-4.366zm-9.231 4.917c0-1.603.327-2.759.981-3.466h3.48c-.161.806-.242 1.804-.242 2.996v6.006H3.046z"/><path fill="none" stroke="#4f2833" stroke-miterlimit="20" stroke-width=".25" d="M12.277 9.1c0-1.532-.815-2.298-2.446-2.298H3.1V3.416h7.054c1.361 0 2.528.231 3.5.692.972.462 1.713 1.133 2.224 2.015.51.883.765 1.942.765 3.178v10.252h-4.366zm-9.231 4.917c0-1.603.327-2.759.981-3.466h3.48c-.161.806-.242 1.804-.242 2.996v6.006H3.046z"/></g><g><path fill="#f6f8e9" d="M20.876 19.734a17.632 17.632 0 0 1-1.653-.302v-3.265c.645.08 1.298.12 1.962.12.609 0 1.059-.165 1.35-.496.291-.332.437-.842.437-1.532V6.802H20.15V3.416h7.188v11.192c0 1.084-.197 2.018-.591 2.802a4.097 4.097 0 0 1-1.713 1.793c-.748.412-1.641.618-2.681.618-.519 0-1.012-.029-1.477-.087z"/><path fill="none" stroke="#4f2833" stroke-miterlimit="20" stroke-width=".25" d="M20.876 19.734a17.632 17.632 0 0 1-1.653-.302v-3.265c.645.08 1.298.12 1.962.12.609 0 1.059-.165 1.35-.496.291-.332.437-.842.437-1.532V6.802v0H20.15v0-3.386 0h7.188v11.192c0 1.084-.197 2.018-.591 2.802a4.097 4.097 0 0 1-1.713 1.793c-.748.412-1.641.618-2.681.618-.519 0-1.012-.029-1.477-.087z"/></g><g><path fill="#f6f8e9" d="M39.188 12.902c-.089.636-.21 1.12-.362 1.451h3.547c.358-.439.644-1.059.859-1.861a9.851 9.851 0 0 0 .323-2.573V3.416h-4.232v7.43c0 .735-.045 1.42-.135 2.056zM35.91 3.416h-4.219v14.511a21.432 21.432 0 0 0 4.589 1.578c1.616.363 3.186.545 4.709.545 1.943 0 3.697-.296 5.26-.887 1.563-.591 2.803-1.48 3.722-2.667.917-1.187 1.377-2.636 1.377-4.346V3.416h-4.233v8.236c0 1.684-.566 2.939-1.699 3.762-1.133.824-2.672 1.237-4.616 1.237-.743 0-1.556-.099-2.438-.296-.882-.197-1.7-.457-2.452-.779z"/><path fill="none" stroke="#4f2833" stroke-miterlimit="20" stroke-width=".25" d="M39.188 12.902c-.089.636-.21 1.12-.362 1.451h3.547c.358-.439.644-1.059.859-1.861a9.851 9.851 0 0 0 .323-2.573V3.416h-4.232v7.43c0 .735-.045 1.42-.135 2.056zM35.91 3.416h-4.219v14.511a21.432 21.432 0 0 0 4.589 1.578c1.616.363 3.186.545 4.709.545 1.943 0 3.697-.296 5.26-.887 1.563-.591 2.803-1.48 3.722-2.667.917-1.187 1.377-2.636 1.377-4.346V3.416h-4.233v8.236c0 1.684-.566 2.939-1.699 3.762-1.133.824-2.672 1.237-4.616 1.237-.743 0-1.556-.099-2.438-.296-.882-.197-1.7-.457-2.452-.779z"/></g><g><path fill="#f6f8e9" d="M64.649 9.1c0-1.532-.815-2.298-2.446-2.298h-6.731V3.416h7.054c1.361 0 2.528.231 3.5.692.972.462 1.713 1.133 2.223 2.015.511.883.766 1.942.766 3.178v10.252h-4.366zm-9.231 4.917c0-1.603.327-2.759.981-3.466h3.48c-.161.806-.242 1.804-.242 2.996v6.006h-4.219z"/><path fill="none" stroke="#4f2833" stroke-miterlimit="20" stroke-width=".25" d="M64.649 9.1c0-1.532-.815-2.298-2.446-2.298h-6.731V3.416h7.054c1.361 0 2.528.231 3.5.692.972.462 1.713 1.133 2.223 2.015.511.883.766 1.942.766 3.178v10.252h-4.366zm-9.231 4.917c0-1.603.327-2.759.981-3.466h3.48c-.161.806-.242 1.804-.242 2.996v6.006h-4.219z"/></g><g><path fill="#f6f8e9" d="M85.192 8.938c0-.689-.197-1.218-.591-1.585-.395-.367-.963-.551-1.707-.551h-4.81V3.416h5.133c1.316 0 2.452.229 3.406.686.953.456 1.681 1.115 2.183 1.975.502.859.752 1.889.752 3.09v10.386h-4.366z"/><path fill="none" stroke="#4f2833" stroke-miterlimit="20" stroke-width=".25" d="M85.192 8.938c0-.689-.197-1.218-.591-1.585-.395-.367-.963-.551-1.707-.551h-4.81v0-3.386 0h5.133c1.316 0 2.452.229 3.406.686.953.456 1.681 1.115 2.183 1.975.502.859.752 1.889.752 3.09v10.386h-4.366v0z"/></g><g><path fill="#f6f8e9" d="M94.422 10.578a7.576 7.576 0 0 1 .531-2.063c.273-.658.593-1.175.961-1.552a.982.982 0 0 1 .188-.161l-.014-.067c-.349.063-.763.161-1.243.295-.479.135-.884.269-1.216.404l-.913-3.158c1.03-.385 2.244-.694 3.641-.927a24.288 24.288 0 0 1 3.99-.349c2.481 0 4.365.629 5.65 1.888 1.285 1.258 1.932 3.115 1.941 5.569v9.096h-7.107v-3.386h2.727l-.013-6.301c0-1.049-.206-1.861-.618-2.439-.412-.578-.994-.867-1.747-.867-1.46 0-2.302 1.147-2.526 3.44l-.94 9.553h-4.313z"/><path fill="none" stroke="#4f2833" stroke-miterlimit="20" stroke-width=".25" d="M94.422 10.578a7.576 7.576 0 0 1 .531-2.063c.273-.658.593-1.175.961-1.552a.982.982 0 0 1 .188-.161l-.014-.067c-.349.063-.763.161-1.243.295-.479.135-.884.269-1.216.404l-.913-3.158c1.03-.385 2.244-.694 3.641-.927a24.288 24.288 0 0 1 3.99-.349c2.481 0 4.365.629 5.65 1.888 1.285 1.258 1.932 3.115 1.941 5.569v9.096h-7.107v0-3.386 0h2.727v0l-.013-6.301c0-1.049-.206-1.861-.618-2.439-.412-.578-.994-.867-1.747-.867-1.46 0-2.302 1.147-2.526 3.44l-.94 9.553v0h-4.313v0z"/></g><g><path fill="#f6f8e9" d="M111.485 6.936l-.886-.241V3.416h9.042v3.386h-3.883l1.988 12.751h-4.487z"/><path fill="none" stroke="#4f2833" stroke-miterlimit="20" stroke-width=".25" d="M111.485 6.936v0l-.886-.241v0-3.279 0h9.042v3.386h-3.883v0l1.988 12.751v0h-4.487v0z"/></g></g></g></g></svg>