<svg xmlns="http://www.w3.org/2000/svg" width="184" height="76" viewBox="0 0 184 76"><g><g><g><g><path fill="#e58051" d="M59.17 60.148V72.53H18.568V60.148l21.795-18.805c2.245-2.864 3.483-4.644 3.483-7.198 0-2.167-1.238-3.405-4.257-3.405H18.568V18.358h25.51c10.603 0 15.169 4.256 15.169 14.085 0 6.268-1.702 10.37-5.495 15.168L36.678 60.148z"/></g><g><path fill="#e58051" d="M151.65 60.148V72.53h-40.601V60.148l21.795-18.805c2.244-2.864 3.482-4.644 3.482-7.198 0-2.167-1.238-3.405-4.256-3.405h-21.021V18.358h25.51c10.602 0 15.169 4.256 15.169 14.085 0 6.268-1.703 10.37-5.495 15.168l-17.074 12.537z"/></g><g><path fill="#e58051" d="M79.795 36.467c0-4.798 1.548-6.965 5.03-6.965 3.097 0 4.954 2.167 4.954 6.965v17.8c0 4.952-1.857 7.12-4.953 7.12-3.483 0-5.031-2.168-5.031-7.12zm5.03-18.573c-13.93 0-20.508 6.5-20.508 21.514v11.918c0 15.091 6.578 21.67 20.509 21.67 13.853 0 20.43-6.579 20.43-21.67V39.408c0-15.014-6.577-21.514-20.43-21.514z"/></g><g><path fill="#e58051" d="M181.617 21.918V72.53h-15.48V36.777l-4.178 3.25-6.966-9.287 16.33-12.382h6.966c2.32 0 3.328 1.083 3.328 3.56z"/></g></g><g><g><path fill="#a77f40" d="M56.38 57.22V69.6H15.778V57.22l21.795-18.806c2.245-2.863 3.483-4.643 3.483-7.197 0-2.167-1.238-3.405-4.257-3.405H15.778V15.43h25.51c10.603 0 15.169 4.256 15.169 14.084 0 6.27-1.703 10.371-5.495 15.17L33.888 57.218z"/></g><g><path fill="#a77f40" d="M148.86 57.22V69.6h-40.601V57.22l21.795-18.806c2.244-2.863 3.482-4.643 3.482-7.197 0-2.167-1.238-3.405-4.256-3.405h-21.021V15.43h25.51c10.602 0 15.169 4.256 15.169 14.084 0 6.27-1.703 10.371-5.495 15.17l-17.074 12.536z"/></g><g><path fill="#a77f40" d="M77.005 33.538c0-4.799 1.548-6.965 5.03-6.965 3.097 0 4.954 2.166 4.954 6.965v17.8c0 4.952-1.857 7.119-4.953 7.119-3.483 0-5.031-2.167-5.031-7.12zm5.03-18.574c-13.93 0-20.508 6.501-20.508 21.514v11.918c0 15.091 6.578 21.67 20.509 21.67 13.853-.001 20.43-6.579 20.43-21.67V36.478c0-15.013-6.577-21.514-20.43-21.514z"/></g><g><path fill="#a77f40" d="M178.826 18.988v50.613h-15.478V33.847l-4.18 3.25-6.965-9.286 16.33-12.382h6.966c2.32 0 3.327 1.083 3.327 3.56z"/></g></g><g><g><path fill="#f6f8e9" d="M51.324 53.095v12.382H10.722V53.095l21.795-18.806C34.762 31.425 36 29.646 36 27.092c0-2.167-1.238-3.405-4.257-3.405H10.722V11.304h25.51c10.603 0 15.169 4.257 15.169 14.085 0 6.27-1.703 10.37-5.495 15.168L28.832 53.095z"/><path fill="none" stroke="#4f2833" stroke-miterlimit="20" d="M51.324 53.095v12.382H10.722v0-12.382 0l21.795-18.806C34.762 31.425 36 29.646 36 27.092c0-2.167-1.238-3.405-4.257-3.405H10.722v0-12.383 0h25.51c10.603 0 15.169 4.257 15.169 14.085 0 6.27-1.703 10.37-5.495 15.168L28.832 53.095v0z"/></g><g><path fill="#f6f8e9" d="M143.804 53.095v12.382h-40.601V53.095l21.795-18.806c2.244-2.864 3.482-4.643 3.482-7.197 0-2.167-1.238-3.405-4.256-3.405h-21.021V11.304h25.509c10.603 0 15.169 4.257 15.169 14.085 0 6.27-1.702 10.37-5.495 15.168l-17.074 12.538z"/><path fill="none" stroke="#4f2833" stroke-miterlimit="20" d="M143.804 53.095v12.382h-40.601v0-12.382 0l21.795-18.806c2.244-2.864 3.482-4.643 3.482-7.197 0-2.167-1.238-3.405-4.256-3.405h-21.021v0-12.383 0h25.509c10.603 0 15.169 4.257 15.169 14.085 0 6.27-1.702 10.37-5.495 15.168l-17.074 12.538v0z"/></g><g><path fill="#f6f8e9" d="M71.949 29.413c0-4.798 1.548-6.965 5.03-6.965 3.096 0 4.954 2.167 4.954 6.965v17.8c0 4.953-1.858 7.12-4.953 7.12-3.483 0-5.031-2.167-5.031-7.12zm5.03-18.573c-13.93 0-20.508 6.501-20.508 21.514v11.918c0 15.091 6.578 21.67 20.509 21.67 13.853 0 20.43-6.579 20.43-21.67V32.354c0-15.013-6.577-21.514-20.43-21.514z"/><path fill="none" stroke="#4f2833" stroke-miterlimit="20" d="M71.949 29.413c0-4.798 1.548-6.965 5.03-6.965 3.096 0 4.954 2.167 4.954 6.965v17.8c0 4.953-1.858 7.12-4.953 7.12-3.483 0-5.031-2.167-5.031-7.12zm5.03-18.573c-13.93 0-20.508 6.501-20.508 21.514v11.918c0 15.091 6.578 21.67 20.509 21.67 13.853 0 20.43-6.579 20.43-21.67V32.354c0-15.013-6.577-21.514-20.43-21.514z"/></g><g><path fill="#f6f8e9" d="M173.77 14.864v50.613h-15.478V29.723l-4.18 3.25-6.965-9.286 16.33-12.383h6.966c2.32 0 3.327 1.084 3.327 3.56z"/><path fill="none" stroke="#4f2833" stroke-miterlimit="20" d="M173.77 14.864v50.613h-15.478v0-35.754 0l-4.18 3.25v0l-6.965-9.286v0l16.33-12.383v0h6.966c2.32 0 3.327 1.084 3.327 3.56z"/></g></g></g></g></svg>