<svg xmlns="http://www.w3.org/2000/svg" width="44" height="44" viewBox="0 0 44 44"><g><g><g><g><path fill="#4f2833" d="M.854 22.048C.854 10.314 10.366.803 22.1.803s21.245 9.511 21.245 21.245c0 11.733-9.512 21.244-21.245 21.244S.854 33.781.854 22.048z"/></g></g><g><g><path fill="#ece5cb" d="M4.555 22.048c0-9.69 7.855-17.544 17.544-17.544 9.69 0 17.544 7.854 17.544 17.544 0 9.689-7.855 17.544-17.544 17.544-9.69 0-17.544-7.855-17.544-17.544z"/></g><g><path fill="#fff" d="M39.55 22.048c0 9.622-7.828 17.451-17.45 17.451-9.623 0-17.452-7.829-17.452-17.45 0-9.624 7.829-17.453 17.452-17.453 9.622 0 17.45 7.83 17.45 17.452zm.186 0c0-9.725-7.912-17.637-17.636-17.637-9.726 0-17.637 7.912-17.637 17.637 0 9.725 7.91 17.637 17.637 17.637 9.724 0 17.636-7.912 17.636-17.637z"/></g></g><g><g><path fill="#fff" d="M20.969 3.203l-.055-.927a20.436 20.436 0 0 1 2.308-.004l-.052.928a19.244 19.244 0 0 0-2.201.003zm6.529.748c-.7-.208-1.421-.377-2.142-.502l.159-.915c.756.131 1.513.308 2.248.527zm-10.855.017zm-.267-.89c.734-.22 1.49-.4 2.246-.534l.162.915c-.721.127-1.441.3-2.141.51zm15.16 2.608a19.025 19.025 0 0 0-1.968-.986l.366-.853c.704.303 1.399.651 2.065 1.035zm-18.922.03l-.466-.804a19.855 19.855 0 0 1 2.059-1.041l.37.853c-.67.29-1.331.624-1.963.991zm22.449 2.591a18.962 18.962 0 0 0-1.688-1.413l.554-.746c.616.458 1.21.956 1.77 1.482zm-25.968.038l-.638-.675a20.014 20.014 0 0 1 1.765-1.486l.557.743c-.586.44-1.152.915-1.684 1.418zm28.8 3.321a18.991 18.991 0 0 0-1.318-1.76l.71-.6c.494.587.959 1.208 1.382 1.848zm-31.622.047l-.776-.51c.422-.64.885-1.265 1.378-1.852l.712.596c-.47.561-.912 1.155-1.314 1.766zm33.603 3.873A18.862 18.862 0 0 0 39 13.568l.829-.419c.346.685.655 1.397.919 2.117zm-35.573.055l-.874-.316c.262-.722.569-1.436.914-2.122l.83.417a18.87 18.87 0 0 0-.87 2.021zm36.592 4.218a19.078 19.078 0 0 0-.384-2.167l.903-.215c.178.745.313 1.51.403 2.273zm-37.598.06l-.922-.106c.087-.763.22-1.528.395-2.274l.904.212a19.32 19.32 0 0 0-.377 2.167zm38.525 4.48l-.923-.106a19.16 19.16 0 0 0 .126-2.197v-.04h.929v.04c0 .768-.044 1.543-.132 2.303zm-39.443.021a20.307 20.307 0 0 1-.134-2.304h.929c0 .733.043 1.473.128 2.197zm38.383 4.466l-.872-.317c.25-.688.462-1.397.63-2.109l.904.213a19.813 19.813 0 0 1-.662 2.213zm-37.32.02a19.723 19.723 0 0 1-.662-2.212l.904-.215c.169.712.38 1.421.632 2.108zm35.249 4.1l-.776-.51c.403-.613.774-1.254 1.102-1.907l.83.418a20.173 20.173 0 0 1-1.156 1.999zm-33.173.014a19.832 19.832 0 0 1-1.157-1.996l.829-.418c.329.652.7 1.292 1.103 1.903zm30.208 3.515l-.637-.675a19.03 19.03 0 0 0 1.51-1.601l.71.597a19.79 19.79 0 0 1-1.583 1.68zm-27.242.012a20.1 20.1 0 0 1-1.585-1.678l.71-.598c.47.56.98 1.098 1.512 1.6zm23.549 2.743l-.465-.804c.632-.366 1.25-.773 1.836-1.21l.556.744c-.616.459-1.264.886-1.927 1.27zm-19.852.01a19.903 19.903 0 0 1-1.928-1.27l.554-.745c.587.437 1.206.845 1.839 1.21zm15.622 1.82l-.266-.89c.699-.21 1.395-.464 2.067-.755l.368.853c-.705.305-1.435.571-2.17.791zm-11.387.005a19.81 19.81 0 0 1-2.171-.789l.368-.853c.67.29 1.367.542 2.069.752zm6.848.792l-.053-.928a19.05 19.05 0 0 0 2.185-.253l.16.914c-.754.133-1.525.222-2.292.267zm-2.308.001a20.153 20.153 0 0 1-2.292-.264l.159-.915c.718.125 1.454.21 2.186.252z"/></g></g><g opacity=".83"><g opacity=".83"><g opacity=".83"><path fill="#99804f" d="M16.569 31.97a.752.752 0 0 1-.656-.388.786.786 0 0 1 .277-1.058l12.913-7.64a.899.899 0 0 0 .443-.788.899.899 0 0 0-.443-.787L16.19 13.667a.786.786 0 0 1-.277-1.058.747.747 0 0 1 1.033-.284l12.912 7.642a2.444 2.444 0 0 1 1.199 2.13c0 .887-.448 1.683-1.2 2.128l-12.911 7.641a.743.743 0 0 1-.377.104z"/></g></g></g><g><g><g><path fill="#d88cb2" d="M16.266 31.821a.742.742 0 0 1-.372-1.385l12.678-7.32a.856.856 0 0 0 .436-.754.856.856 0 0 0-.436-.754l-12.678-7.32a.741.741 0 1 1 .742-1.285l12.678 7.32a2.33 2.33 0 0 1 1.178 2.04c0 .85-.44 1.613-1.178 2.038l-12.678 7.32a.733.733 0 0 1-.37.1z"/></g><g><path fill="#4b481c" d="M16.543 13.164l12.679 7.32a2.146 2.146 0 0 1 1.084 1.878c0 .784-.405 1.487-1.084 1.88l-12.68 7.318a.551.551 0 0 1-.758-.203.557.557 0 0 1 .203-.76l12.678-7.32c.477-.275.528-.73.528-.915 0-.183-.051-.639-.528-.915l-12.678-7.319a.557.557 0 0 1 .556-.964zm-.277 18.842a.928.928 0 0 0 .463-.124l12.678-7.32a2.513 2.513 0 0 0 1.27-2.2c0-.918-.474-1.741-1.27-2.2l-12.678-7.32a.93.93 0 0 0-.928 1.607l12.678 7.32c.31.18.343.474.343.593a.67.67 0 0 1-.343.593L15.8 30.275a.93.93 0 0 0 .465 1.731z"/></g></g></g></g></g></svg>