<svg xmlns="http://www.w3.org/2000/svg" width="282" height="48" viewBox="0 0 141 24"><g><g><g><g><path fill="#e58051" d="M14.742 9.338c0-1.525-.812-2.288-2.436-2.288H5.603V3.678h7.025c1.355 0 2.517.229 3.485.689.968.46 1.706 1.129 2.215 2.008.508.878.762 1.933.762 3.164v10.209h-4.348zM5.55 14.235c0-1.596.326-2.747.977-3.452h3.465c-.16.803-.24 1.798-.24 2.984v5.981H5.549z"/></g><g><path fill="#e58051" d="M23.306 19.929a17.497 17.497 0 0 1-1.646-.301v-3.251c.642.08 1.294.12 1.954.12.606 0 1.055-.165 1.345-.495.289-.33.434-.838.434-1.526V7.05h-2.809V3.678h7.158v11.146c0 1.079-.197 2.009-.589 2.79a4.084 4.084 0 0 1-1.706 1.787c-.745.409-1.634.615-2.67.615-.516 0-1.007-.029-1.471-.087z"/></g><g><path fill="#e58051" d="M41.183 14.57h3.533c.356-.437.642-1.055.855-1.853a9.86 9.86 0 0 0 .322-2.563V3.678h-4.215v7.4c0 .731-.045 1.413-.134 2.047-.089.633-.21 1.115-.36 1.445zM38.28 3.678h-4.202v14.451a21.38 21.38 0 0 0 4.57 1.573c1.61.361 3.172.541 4.689.541 1.936 0 3.682-.294 5.239-.883 1.556-.589 2.792-1.473 3.707-2.656.914-1.182 1.371-2.624 1.371-4.329V3.678h-4.216v8.203c0 1.677-.563 2.925-1.692 3.746-1.129.821-2.66 1.231-4.596 1.231-.74 0-1.55-.098-2.429-.294a13.792 13.792 0 0 1-2.441-.776z"/></g><g><path fill="#e58051" d="M66.901 9.338c0-1.525-.812-2.288-2.436-2.288h-6.703V3.678h7.024c1.356 0 2.518.229 3.486.689.968.46 1.706 1.129 2.215 2.008.508.878.762 1.933.762 3.164v10.209h-4.348zm-9.193 4.897c0-1.596.326-2.747.977-3.452h3.465c-.16.803-.24 1.798-.24 2.984v5.981h-4.202z"/></g><g><path fill="#e58051" d="M94.204 5.217c1.084 1.026 1.626 2.543 1.626 4.55v9.981h-4.336l-.026-10.357c0-1.561-.674-2.341-2.021-2.341h-2.06c-.116.5-.21 1.037-.28 1.612a12.925 12.925 0 0 0-.108 1.599v4.536c0 1.089-.197 2.023-.59 2.804a4.04 4.04 0 0 1-1.699 1.779c-.74.406-1.628.609-2.662.609-.598 0-1.29-.058-2.075-.173v-3.359c.376.018.665.026.87.026 1.276 0 1.914-.673 1.914-2.02v-3.8c0-.571.076-1.196.227-1.873.152-.678.375-1.258.67-1.74H81.19V3.678h8.243c2.097 0 3.687.514 4.77 1.539z"/></g><g><path fill="#e58051" d="M105.116 9.177c0-.687-.197-1.212-.589-1.579-.393-.365-.959-.548-1.7-.548h-4.79V3.678h5.112c1.311 0 2.442.228 3.392.683.95.454 1.675 1.11 2.175 1.967.5.855.748 1.882.748 3.077v10.343h-4.348z"/></g><g><path fill="#e58051" d="M114.31 10.81a7.53 7.53 0 0 1 .528-2.054c.271-.656.591-1.171.956-1.545a.944.944 0 0 1 .188-.161l-.014-.067a13.73 13.73 0 0 0-1.238.294c-.477.134-.88.268-1.21.402l-.911-3.145c1.027-.383 2.236-.691 3.627-.923a24.194 24.194 0 0 1 3.974-.348c2.471 0 4.347.627 5.627 1.88 1.28 1.254 1.924 3.102 1.933 5.546v9.059h-7.078v-3.371h2.716l-.013-6.276c0-1.044-.206-1.853-.616-2.429-.41-.575-.99-.863-1.739-.863-1.455 0-2.293 1.143-2.516 3.426l-.937 9.513h-4.295z"/></g><g><path fill="#e58051" d="M131.302 7.183l-.883-.24V3.678h9.006V7.05h-3.867l1.98 12.698h-4.469z"/></g></g><g><g><path fill="#a77f40" d="M13.886 9.378c0-1.526-.812-2.288-2.435-2.288H4.747V3.718h7.025c1.355 0 2.517.229 3.485.689.97.46 1.707 1.129 2.215 2.007.508.879.762 1.934.762 3.165v10.209h-4.348zm-9.193 4.897c0-1.596.326-2.747.977-3.452h3.466c-.161.803-.241 1.797-.241 2.984v5.981H4.693z"/></g><g><path fill="#a77f40" d="M22.45 19.969a18.164 18.164 0 0 1-1.646-.301v-3.251c.643.079 1.294.12 1.954.12.606 0 1.055-.165 1.345-.496.29-.33.435-.838.435-1.525V7.09h-2.81V3.718h7.158v11.146c0 1.079-.196 2.009-.588 2.79a4.079 4.079 0 0 1-1.707 1.786c-.745.41-1.634.615-2.669.615-.517 0-1.008-.028-1.472-.086z"/></g><g><path fill="#a77f40" d="M40.688 13.165c-.089.633-.209 1.115-.361 1.445h3.533c.356-.437.642-1.055.856-1.853a9.867 9.867 0 0 0 .321-2.563V3.718h-4.215v7.4c0 .731-.044 1.413-.134 2.047zm-3.264-9.447h-4.202v14.451a21.396 21.396 0 0 0 4.569 1.572c1.611.361 3.173.542 4.69.542 1.936 0 3.682-.294 5.24-.883 1.555-.589 2.791-1.474 3.706-2.656.914-1.182 1.371-2.625 1.371-4.329V3.718h-4.215v8.202c0 1.677-.564 2.926-1.692 3.747-1.13.82-2.66 1.231-4.597 1.231-.74 0-1.55-.098-2.429-.295a13.651 13.651 0 0 1-2.44-.776z"/></g><g><path fill="#a77f40" d="M66.045 9.378c0-1.526-.812-2.288-2.436-2.288h-6.703V3.718h7.025c1.355 0 2.517.229 3.485.689.968.46 1.706 1.129 2.215 2.007.508.879.762 1.934.762 3.165v10.209h-4.348zm-9.193 4.897c0-1.596.326-2.747.977-3.452h3.465c-.16.803-.24 1.797-.24 2.984v5.981h-4.202z"/></g><g><path fill="#a77f40" d="M93.348 5.257c1.084 1.026 1.627 2.542 1.627 4.549v9.982h-4.337l-.026-10.357c0-1.561-.674-2.341-2.02-2.341h-2.061c-.116.5-.21 1.037-.281 1.612a12.947 12.947 0 0 0-.107 1.599v4.536c0 1.089-.196 2.023-.589 2.804a4.045 4.045 0 0 1-1.699 1.779c-.741.406-1.629.609-2.663.609a14.39 14.39 0 0 1-2.074-.174v-3.359c.375.019.664.027.87.027 1.276 0 1.913-.674 1.913-2.02v-3.8c0-.571.076-1.196.227-1.874.152-.677.375-1.257.669-1.739h-2.462V3.718h8.243c2.097 0 3.687.513 4.77 1.539z"/></g><g><path fill="#a77f40" d="M104.26 9.217c0-.687-.196-1.212-.588-1.579-.393-.365-.96-.548-1.7-.548h-4.79V3.718h5.111c1.311 0 2.442.228 3.392.682.95.455 1.675 1.111 2.175 1.968.499.855.748 1.882.748 3.077v10.343h-4.348z"/></g><g><path fill="#a77f40" d="M113.453 10.85a7.515 7.515 0 0 1 .529-2.054c.271-.656.591-1.171.956-1.545.09-.09.153-.143.188-.161l-.013-.067c-.348.062-.761.16-1.238.294-.477.134-.881.268-1.211.402l-.911-3.145c1.027-.383 2.236-.691 3.627-.923a24.207 24.207 0 0 1 3.974-.348c2.471 0 4.347.627 5.627 1.88 1.28 1.254 1.924 3.102 1.933 5.546v9.059h-7.078v-3.371h2.716l-.013-6.276c0-1.044-.205-1.853-.616-2.429-.41-.575-.99-.863-1.739-.863-1.455 0-2.293 1.142-2.516 3.425l-.937 9.514h-4.294z"/></g><g><path fill="#a77f40" d="M130.447 7.223l-.884-.24V3.718h9.006V7.09h-3.867l1.98 12.698h-4.469z"/></g></g><g><g><path fill="#f6f8e9" d="M12.52 9.586c0-1.526-.812-2.289-2.436-2.289H3.381V3.926h7.024c1.356 0 2.518.229 3.486.688.968.46 1.706 1.129 2.215 2.008.508.879.762 1.934.762 3.164v10.21H12.52zm-9.193 4.897c0-1.597.326-2.748.977-3.452H7.77c-.16.802-.24 1.797-.24 2.984v5.981H3.327z"/><path fill="none" stroke="#4f2833" stroke-miterlimit="20" stroke-width=".25" d="M12.52 9.586c0-1.526-.812-2.289-2.436-2.289H3.381V3.926h7.024c1.356 0 2.518.229 3.486.688.968.46 1.706 1.129 2.215 2.008.508.879.762 1.934.762 3.164v10.21H12.52zm-9.193 4.897c0-1.597.326-2.748.977-3.452H7.77c-.16.802-.24 1.797-.24 2.984v5.981H3.327z"/></g><g><path fill="#f6f8e9" d="M21.084 20.176a17.432 17.432 0 0 1-1.646-.301v-3.251c.642.08 1.294.121 1.954.121.606 0 1.055-.166 1.345-.496.289-.33.434-.838.434-1.526V7.297h-2.809V3.926h7.158v11.145c0 1.08-.197 2.01-.589 2.79a4.084 4.084 0 0 1-1.706 1.787c-.745.41-1.634.615-2.67.615-.516 0-1.008-.028-1.47-.087z"/><path fill="none" stroke="#4f2833" stroke-miterlimit="20" stroke-width=".25" d="M21.084 20.176a17.432 17.432 0 0 1-1.646-.301v-3.251c.642.08 1.294.121 1.954.121.606 0 1.055-.166 1.345-.496.289-.33.434-.838.434-1.526V7.297v0h-2.809v0-3.371 0h7.158v11.145c0 1.08-.197 2.01-.589 2.79a4.084 4.084 0 0 1-1.706 1.787c-.745.41-1.634.615-2.67.615-.516 0-1.008-.028-1.47-.087z"/></g><g><path fill="#f6f8e9" d="M38.961 14.817h3.533c.356-.437.642-1.055.855-1.853a9.861 9.861 0 0 0 .321-2.563V3.926h-4.214v7.399c0 .731-.045 1.414-.134 2.047-.089.634-.21 1.115-.36 1.445zM36.058 3.926h-4.202v14.45a21.324 21.324 0 0 0 4.57 1.573c1.609.361 3.172.541 4.689.541 1.936 0 3.682-.293 5.239-.883 1.556-.588 2.791-1.473 3.706-2.655.915-1.183 1.372-2.625 1.372-4.329V3.926h-4.216v8.202c0 1.677-.563 2.925-1.692 3.747-1.129.82-2.661 1.231-4.596 1.231-.741 0-1.55-.099-2.429-.295a13.787 13.787 0 0 1-2.44-.776z"/><path fill="none" stroke="#4f2833" stroke-miterlimit="20" stroke-width=".25" d="M38.961 14.817h3.533c.356-.437.642-1.055.855-1.853a9.861 9.861 0 0 0 .321-2.563V3.926h-4.214v7.399c0 .731-.045 1.414-.134 2.047-.089.634-.21 1.115-.36 1.445zM36.058 3.926h-4.202v14.45a21.324 21.324 0 0 0 4.57 1.573c1.609.361 3.172.541 4.689.541 1.936 0 3.682-.293 5.239-.883 1.556-.588 2.791-1.473 3.706-2.655.915-1.183 1.372-2.625 1.372-4.329V3.926h-4.216v8.202c0 1.677-.563 2.925-1.692 3.747-1.129.82-2.661 1.231-4.596 1.231-.741 0-1.55-.099-2.429-.295a13.787 13.787 0 0 1-2.44-.776z"/></g><g><path fill="#f6f8e9" d="M64.678 9.586c0-1.526-.81-2.289-2.435-2.289H55.54V3.926h7.024c1.356 0 2.518.229 3.486.688.968.46 1.706 1.129 2.215 2.008.508.879.762 1.934.762 3.164v10.21h-4.349zm-9.192 4.897c0-1.597.326-2.748.977-3.452h3.465c-.16.802-.24 1.797-.24 2.984v5.981h-4.202z"/><path fill="none" stroke="#4f2833" stroke-miterlimit="20" stroke-width=".25" d="M64.678 9.586c0-1.526-.81-2.289-2.435-2.289H55.54V3.926h7.024c1.356 0 2.518.229 3.486.688.968.46 1.706 1.129 2.215 2.008.508.879.762 1.934.762 3.164v10.21h-4.349zm-9.192 4.897c0-1.597.326-2.748.977-3.452h3.465c-.16.802-.24 1.797-.24 2.984v5.981h-4.202z"/></g><g><path fill="#f6f8e9" d="M91.982 5.464c1.084 1.026 1.626 2.543 1.626 4.55v9.982h-4.336l-.026-10.357c0-1.561-.674-2.342-2.02-2.342h-2.062c-.116.5-.209 1.037-.28 1.612a12.94 12.94 0 0 0-.107 1.6v4.536c0 1.088-.197 2.023-.59 2.803a4.043 4.043 0 0 1-1.699 1.78c-.74.406-1.628.608-2.662.608-.599 0-1.29-.058-2.075-.173v-3.359c.376.018.665.026.87.026 1.276 0 1.913-.673 1.913-2.02v-3.8c0-.57.077-1.195.228-1.873.152-.678.375-1.258.669-1.74h-2.462V3.926h8.243c2.096 0 3.687.513 4.77 1.538z"/><path fill="none" stroke="#4f2833" stroke-miterlimit="20" stroke-width=".25" d="M91.982 5.464c1.084 1.026 1.626 2.543 1.626 4.55v9.982h-4.336v0l-.026-10.357c0-1.561-.674-2.342-2.02-2.342h-2.062c-.116.5-.209 1.037-.28 1.612a12.94 12.94 0 0 0-.107 1.6v4.536c0 1.088-.197 2.023-.59 2.803a4.043 4.043 0 0 1-1.699 1.78c-.74.406-1.628.608-2.662.608-.599 0-1.29-.058-2.075-.173v-3.359c.376.018.665.026.87.026 1.276 0 1.913-.673 1.913-2.02v-3.8c0-.57.077-1.195.228-1.873.152-.678.375-1.258.669-1.74h-2.462v0-3.371 0h8.243c2.096 0 3.687.513 4.77 1.538z"/></g><g><path fill="#f6f8e9" d="M102.894 9.425c0-.687-.197-1.213-.589-1.579-.393-.366-.959-.549-1.7-.549h-4.79V3.926h5.112c1.311 0 2.442.227 3.391.682.951.455 1.676 1.11 2.176 1.967.499.856.748 1.882.748 3.078v10.343h-4.348z"/><path fill="none" stroke="#4f2833" stroke-miterlimit="20" stroke-width=".25" d="M102.894 9.425c0-.687-.197-1.213-.589-1.579-.393-.366-.959-.549-1.7-.549h-4.79v0-3.371 0h5.112c1.311 0 2.442.227 3.391.682.951.455 1.676 1.11 2.176 1.967.499.856.748 1.882.748 3.078v10.343h-4.348v0z"/></g><g><path fill="#f6f8e9" d="M112.087 11.057a7.567 7.567 0 0 1 .528-2.054c.272-.655.592-1.17.957-1.545.089-.089.152-.142.188-.161l-.014-.066c-.347.062-.76.16-1.238.294-.477.133-.88.268-1.21.401l-.91-3.145c1.026-.383 2.235-.691 3.626-.923a24.3 24.3 0 0 1 3.974-.347c2.47 0 4.346.626 5.627 1.879 1.28 1.254 1.924 3.103 1.933 5.547v9.059h-7.078v-3.372h2.716l-.013-6.276c0-1.044-.206-1.853-.616-2.429-.41-.575-.991-.863-1.739-.863-1.455 0-2.293 1.143-2.516 3.426l-.937 9.514h-4.295z"/><path fill="none" stroke="#4f2833" stroke-miterlimit="20" stroke-width=".25" d="M112.087 11.057a7.567 7.567 0 0 1 .528-2.054c.272-.655.592-1.17.957-1.545.089-.089.152-.142.188-.161l-.014-.066c-.347.062-.76.16-1.238.294-.477.133-.88.268-1.21.401l-.91-3.145c1.026-.383 2.235-.691 3.626-.923a24.3 24.3 0 0 1 3.974-.347c2.47 0 4.346.626 5.627 1.879 1.28 1.254 1.924 3.103 1.933 5.547v9.059h-7.078v0-3.372 0h2.716v0l-.013-6.276c0-1.044-.206-1.853-.616-2.429-.41-.575-.991-.863-1.739-.863-1.455 0-2.293 1.143-2.516 3.426l-.937 9.514v0h-4.295v0z"/></g><g><path fill="#f6f8e9" d="M129.08 7.431l-.883-.241V3.926h9.006v3.371h-3.867l1.98 12.699h-4.469z"/><path fill="none" stroke="#4f2833" stroke-miterlimit="20" stroke-width=".25" d="M129.08 7.431v0l-.883-.241v0-3.264 0h9.006v3.371h-3.867v0l1.98 12.699v0h-4.469v0z"/></g></g></g></g></svg>