<svg xmlns="http://www.w3.org/2000/svg" width="182" height="80" viewBox="0 0 91 40"><g><g><g><g><path fill="#e58051" d="M14.604 4.433c.714.675 1.071 1.673 1.071 2.995v6.574H12.82l-.018-6.82c0-1.028-.444-1.542-1.33-1.542h-1.358a10.302 10.302 0 0 0-.255 2.115v2.987c0 .716-.13 1.332-.388 1.846a2.666 2.666 0 0 1-1.12 1.172c-.486.267-1.071.4-1.752.4-.394 0-.85-.037-1.366-.114v-2.211c.246.012.437.017.573.017.84 0 1.26-.443 1.26-1.33V8.019c0-.376.05-.787.15-1.234.1-.446.246-.828.44-1.145H6.035V3.419h5.428c1.38 0 2.427.338 3.141 1.014z"/></g><g><path fill="#e58051" d="M18.917 5.64h-1.639V3.419h4.503v6.045h-2.864z"/></g><g><path fill="#e58051" d="M28.064 7.04c0-.452-.13-.798-.387-1.039-.259-.24-.632-.361-1.12-.361h-3.154V3.419h3.366c.863 0 1.609.15 2.234.45a3.217 3.217 0 0 1 1.432 1.295c.33.564.493 1.24.493 2.027v6.811h-2.864z"/></g><g><path fill="#e58051" d="M33.59 17.668h2.767V10.01c0-.81.053-1.466.158-1.964h-2.282c-.164.175-.313.44-.445.793-.133.352-.198.845-.198 1.48zm3.79-3.666c1.074-.04 1.993-.246 2.757-.616.764-.371 1.348-.9 1.753-1.587.406-.687.609-1.52.609-2.502V3.419h-8.98v2.22h6.116v3.71c0 .794-.194 1.397-.582 1.811-.387.414-.946.636-1.674.665z"/></g><g><path fill="#e58051" d="M45.468 5.64h-.899V3.419h3.772v10.583h-2.873z"/></g><g><path fill="#e58051" d="M53.404 13.64a4.049 4.049 0 0 1-1.635-1.612c-.388-.693-.582-1.492-.582-2.396V3.419h2.864v6.547c0 .406.074.764.22 1.076.147.311.355.552.626.722.27.17.58.255.926.255.352 0 .663-.085.933-.255.27-.17.48-.41.626-.722.147-.312.22-.67.22-1.076V6.961c0-.452-.097-.79-.29-1.013-.195-.223-.491-.335-.89-.335-.241 0-.552.042-.935.123l-.264-1.832c.323-.183.687-.33 1.093-.44a4.258 4.258 0 0 1 1.12-.169c.627 0 1.17.137 1.624.41a2.64 2.64 0 0 1 1.045 1.186c.24.516.361 1.13.361 1.841v2.9c0 .904-.193 1.703-.577 2.396a4.029 4.029 0 0 1-1.63 1.613c-.702.382-1.512.572-2.428.572-.916 0-1.725-.19-2.428-.572z"/></g><g><path fill="#e58051" d="M62.819 17.668h2.767V10.01c0-.81.053-1.466.16-1.964h-2.284c-.164.175-.312.44-.445.793-.132.352-.198.845-.198 1.48zm3.79-3.666c1.075-.04 1.993-.246 2.758-.616.763-.371 1.347-.9 1.753-1.587.405-.687.608-1.52.608-2.502V3.419h-8.98v2.22h6.116v3.71c0 .794-.194 1.397-.582 1.811-.387.414-.946.636-1.673.665z"/></g><g><path fill="#e58051" d="M75.235 5.64h-1.639V3.419H78.1v6.045h-2.864z"/></g><g><path fill="#e58051" d="M83.073 13.64a4.053 4.053 0 0 1-1.634-1.612c-.388-.693-.581-1.492-.581-2.396V3.419h2.863v6.547c0 .406.073.764.22 1.076.148.311.356.552.626.722.27.17.579.255.925.255.353 0 .664-.085.934-.255.27-.17.48-.41.626-.722.147-.312.22-.67.22-1.076V6.961c0-.452-.097-.79-.29-1.013-.194-.223-.49-.335-.89-.335-.242 0-.553.042-.935.123l-.264-1.832a4.81 4.81 0 0 1 1.093-.44 4.267 4.267 0 0 1 1.119-.169c.629 0 1.17.137 1.626.41.455.274.803.669 1.044 1.186.24.516.361 1.13.361 1.841v2.9c0 .904-.192 1.703-.577 2.396a4.02 4.02 0 0 1-1.63 1.613c-.702.382-1.511.572-2.427.572-.917 0-1.726-.19-2.429-.572z"/></g><g><path fill="#e58051" d="M30.28 28.803c0-1.005-.534-1.507-1.603-1.507h-4.414v-2.22h4.625c.893 0 1.659.151 2.296.454a3.239 3.239 0 0 1 1.458 1.32c.335.58.503 1.275.503 2.085v6.724H30.28zm-6.053 3.225c0-1.052.214-1.809.643-2.273h2.282c-.105.528-.158 1.184-.158 1.964v3.94h-2.767z"/></g><g><path fill="#e58051" d="M35.921 35.778a11.468 11.468 0 0 1-1.084-.199v-2.141c.423.053.852.08 1.287.08.399 0 .694-.109.885-.327.19-.217.286-.551.286-1.004v-4.891h-1.85v-2.22h4.714v7.34c0 .711-.13 1.323-.387 1.838a2.69 2.69 0 0 1-1.124 1.176c-.49.27-1.077.405-1.758.405-.341 0-.664-.019-.969-.057z"/></g><g><path fill="#e58051" d="M47.931 31.297c-.058.417-.138.734-.238.952h2.327c.235-.288.423-.695.564-1.221.14-.525.211-1.088.211-1.687v-4.265H48.02v4.873c0 .481-.03.93-.089 1.348zm-2.15-6.221h-2.767v9.517c.946.452 1.95.797 3.01 1.035 1.06.238 2.09.357 3.088.357 1.275 0 2.425-.194 3.45-.582 1.025-.387 1.839-.97 2.441-1.749.602-.778.904-1.729.904-2.85v-5.728H53.13v5.402c0 1.104-.371 1.926-1.114 2.467-.743.54-1.752.81-3.027.81a7.37 7.37 0 0 1-1.6-.194 9.09 9.09 0 0 1-1.608-.51z"/></g><g><path fill="#e58051" d="M64.63 28.803c0-1.005-.534-1.507-1.604-1.507h-4.414v-2.22h4.625c.893 0 1.66.151 2.296.454a3.245 3.245 0 0 1 1.46 1.32c.334.58.5 1.275.5 2.085v6.724H64.63zm-6.054 3.225c0-1.052.214-1.809.643-2.273h2.283c-.106.528-.158 1.184-.158 1.964v3.94h-2.768z"/></g></g><g><g><path fill="#a77f40" d="M13.61 4.556c.713.675 1.07 1.674 1.07 2.996v6.574h-2.856l-.017-6.821c0-1.028-.444-1.542-1.33-1.542H9.119a10.335 10.335 0 0 0-.255 2.115v2.987c0 .717-.13 1.332-.388 1.846a2.675 2.675 0 0 1-1.12 1.173c-.487.267-1.072.4-1.753.4-.394 0-.848-.038-1.365-.114v-2.212c.246.012.437.017.572.017.84 0 1.26-.443 1.26-1.33V8.142c0-.375.05-.787.15-1.234.1-.446.247-.828.44-1.145H5.04V3.542h5.428c1.38 0 2.428.338 3.142 1.014z"/></g><g><path fill="#a77f40" d="M17.922 5.763h-1.639V3.542h4.503v6.045h-2.864z"/></g><g><path fill="#a77f40" d="M27.07 7.164c0-.452-.13-.799-.388-1.04-.259-.24-.632-.361-1.12-.361h-3.155V3.542h3.367c.863 0 1.608.15 2.234.45.625.299 1.103.731 1.432 1.295.328.564.493 1.24.493 2.027v6.812H27.07z"/></g><g><path fill="#a77f40" d="M32.595 17.791h2.767v-7.658c0-.81.052-1.465.158-1.964h-2.282c-.165.175-.313.44-.445.793-.133.352-.198.845-.198 1.48zm3.788-3.665c1.076-.041 1.995-.247 2.76-.617.763-.37 1.347-.899 1.752-1.587.406-.687.608-1.52.608-2.502V3.542h-8.979v2.22h6.116v3.71c0 .794-.195 1.398-.582 1.812-.388.414-.946.635-1.675.665z"/></g><g><path fill="#a77f40" d="M44.473 5.763h-.899V3.542h3.771v10.584h-2.872z"/></g><g><path fill="#a77f40" d="M52.409 13.764a4.056 4.056 0 0 1-1.636-1.612c-.387-.694-.58-1.493-.58-2.397V3.542h2.863v6.548c0 .405.074.763.22 1.075.147.312.355.552.626.722.27.17.578.255.925.255.352 0 .664-.084.934-.255.27-.17.479-.41.626-.722.147-.312.22-.67.22-1.075V7.085c0-.453-.097-.79-.29-1.013-.195-.224-.491-.336-.89-.336-.241 0-.553.042-.935.124l-.264-1.833c.323-.182.687-.33 1.093-.44a4.218 4.218 0 0 1 1.12-.168c.627 0 1.169.137 1.624.41a2.64 2.64 0 0 1 1.045 1.185c.24.517.361 1.131.361 1.841v2.9c0 .904-.193 1.703-.577 2.397a4.026 4.026 0 0 1-1.63 1.612c-.702.382-1.512.573-2.428.573-.916 0-1.726-.19-2.427-.573z"/></g><g><path fill="#a77f40" d="M61.824 17.791h2.767v-7.658c0-.81.053-1.465.158-1.964h-2.282c-.165.175-.312.44-.445.793-.132.352-.198.845-.198 1.48zm3.789-3.665c1.075-.041 1.994-.247 2.759-.617.763-.37 1.347-.899 1.753-1.587.405-.687.607-1.52.607-2.502V3.542h-8.978v2.22h6.115v3.71c0 .794-.194 1.398-.582 1.812-.387.414-.946.635-1.674.665z"/></g><g><path fill="#a77f40" d="M74.24 5.763H72.6V3.542h4.504v6.045H74.24z"/></g><g><path fill="#a77f40" d="M82.078 13.764a4.05 4.05 0 0 1-1.634-1.612c-.388-.694-.582-1.493-.582-2.397V3.542h2.864v6.548c0 .405.073.763.22 1.075.147.312.356.552.626.722.27.17.579.255.925.255.353 0 .664-.084.934-.255.27-.17.48-.41.626-.722.147-.312.22-.67.22-1.075V7.085c0-.453-.097-.79-.29-1.013-.194-.224-.49-.336-.89-.336a4.67 4.67 0 0 0-.935.124l-.264-1.833c.323-.182.687-.33 1.093-.44a4.227 4.227 0 0 1 1.119-.168c.629 0 1.17.137 1.625.41a2.64 2.64 0 0 1 1.044 1.185c.242.517.362 1.131.362 1.841v2.9c0 .904-.192 1.703-.577 2.397a4.024 4.024 0 0 1-1.63 1.612c-.702.382-1.511.573-2.428.573s-1.726-.19-2.428-.573z"/></g><g><path fill="#a77f40" d="M29.286 28.927c0-1.005-.535-1.508-1.604-1.508h-4.415V25.2h4.626c.893 0 1.659.151 2.296.454a3.24 3.24 0 0 1 1.458 1.321c.335.58.503 1.274.503 2.084v6.724h-2.864zm-6.054 3.225c0-1.052.214-1.81.643-2.273h2.282c-.106.528-.159 1.183-.159 1.964v3.94h-2.766z"/></g><g><path fill="#a77f40" d="M34.925 35.901a11.542 11.542 0 0 1-1.083-.198V33.56c.423.053.85.08 1.286.08.4 0 .695-.108.886-.326.19-.218.286-.552.286-1.005v-4.89h-1.85V25.2h4.714v7.34c0 .71-.13 1.322-.388 1.837a2.683 2.683 0 0 1-1.123 1.176c-.49.27-1.077.406-1.758.406-.341 0-.664-.02-.97-.058z"/></g><g><path fill="#a77f40" d="M46.698 32.372h2.326c.236-.288.424-.695.565-1.22a6.5 6.5 0 0 0 .211-1.688v-4.265h-2.775v4.873c0 .482-.03.931-.089 1.348-.058.418-.138.735-.238.952zm-1.912-7.173H42.02v9.517c.946.453 1.949.798 3.01 1.035 1.06.239 2.09.357 3.088.357 1.275 0 2.425-.193 3.45-.582 1.025-.387 1.839-.97 2.441-1.748.602-.779.904-1.73.904-2.851v-5.728h-2.777V30.6c0 1.105-.371 1.928-1.114 2.468-.743.54-1.753.811-3.027.811a7.37 7.37 0 0 1-1.6-.194 9.09 9.09 0 0 1-1.608-.511z"/></g><g><path fill="#a77f40" d="M63.635 28.927c0-1.005-.534-1.508-1.604-1.508h-4.415V25.2h4.626c.893 0 1.66.151 2.296.454a3.24 3.24 0 0 1 1.458 1.321c.336.58.503 1.274.503 2.084v6.724h-2.864zm-6.054 3.225c0-1.052.214-1.81.643-2.273h2.283c-.106.528-.159 1.183-.159 1.964v3.94h-2.767z"/></g></g><g><g><path fill="#f6f8e9" d="M12.38 4.68c.713.675 1.07 1.673 1.07 2.995v6.574h-2.855l-.017-6.82c0-1.028-.444-1.543-1.331-1.543H7.889c-.075.33-.137.683-.184 1.063-.047.378-.07.729-.07 1.052v2.988c0 .716-.13 1.331-.389 1.846a2.67 2.67 0 0 1-1.118 1.172c-.488.267-1.073.4-1.754.4-.394 0-.85-.038-1.366-.114v-2.212c.247.012.437.018.573.018.84 0 1.26-.444 1.26-1.33V8.264c0-.375.05-.787.15-1.233.1-.447.246-.829.44-1.146h-1.62v-2.22h5.427c1.38 0 2.428.338 3.142 1.013z"/><path fill="none" stroke="#4f2833" stroke-miterlimit="20" stroke-width=".25" d="M12.38 4.68c.713.675 1.07 1.673 1.07 2.995v6.574h-2.855v0l-.017-6.82c0-1.028-.444-1.543-1.331-1.543H7.889c-.075.33-.137.683-.184 1.063-.047.378-.07.729-.07 1.052v2.988c0 .716-.13 1.331-.389 1.846a2.67 2.67 0 0 1-1.118 1.172c-.488.267-1.073.4-1.754.4-.394 0-.85-.038-1.366-.114v-2.212c.247.012.437.018.573.018.84 0 1.26-.444 1.26-1.33V8.264c0-.375.05-.787.15-1.233.1-.447.246-.829.44-1.146h-1.62v0-2.22 0h5.427c1.38 0 2.428.338 3.142 1.013z"/></g><g><path fill="#f6f8e9" d="M16.693 5.886h-1.64v-2.22h4.504V9.71h-2.864z"/><path fill="none" stroke="#4f2833" stroke-miterlimit="20" stroke-width=".25" d="M16.693 5.886v0h-1.64v0-2.22 0h4.504V9.71h-2.864v0z"/></g><g><path fill="#f6f8e9" d="M25.84 7.288c0-.453-.13-.8-.388-1.04-.259-.242-.632-.362-1.119-.362h-3.155v-2.22h3.366c.864 0 1.609.15 2.235.45A3.219 3.219 0 0 1 28.21 5.41c.33.565.494 1.24.494 2.027v6.812H25.84z"/><path fill="none" stroke="#4f2833" stroke-miterlimit="20" stroke-width=".25" d="M25.84 7.288c0-.453-.13-.8-.388-1.04-.259-.242-.632-.362-1.119-.362h-3.155v0-2.22 0h3.366c.864 0 1.609.15 2.235.45A3.219 3.219 0 0 1 28.21 5.41c.33.565.494 1.24.494 2.027v6.812H25.84v0z"/></g><g><path fill="#f6f8e9" d="M31.365 17.915h2.767v-7.658c0-.81.053-1.466.16-1.965h-2.284c-.164.176-.312.44-.445.793-.132.352-.198.846-.198 1.48zm3.79-3.666c1.075-.04 1.993-.247 2.758-.617.763-.37 1.348-.898 1.753-1.586.405-.687.608-1.521.608-2.503V3.665h-8.98v2.221h6.116v3.71c0 .793-.194 1.397-.582 1.811-.387.414-.946.636-1.674.665z"/><path fill="none" stroke="#4f2833" stroke-miterlimit="20" stroke-width=".25" d="M31.365 17.915h2.767v-7.658c0-.81.053-1.466.16-1.965h-2.284c-.164.176-.312.44-.445.793-.132.352-.198.846-.198 1.48zm3.79-3.666c1.075-.04 1.993-.247 2.758-.617.763-.37 1.348-.898 1.753-1.586.405-.687.608-1.521.608-2.503V3.665h-8.98v2.221h6.116v3.71c0 .793-.194 1.397-.582 1.811-.387.414-.946.636-1.674.665z"/></g><g><path fill="#f6f8e9" d="M43.243 5.886h-.898v-2.22h3.772v10.583h-2.874z"/><path fill="none" stroke="#4f2833" stroke-miterlimit="20" stroke-width=".25" d="M43.243 5.886v0h-.898v0-2.22 0h3.772v10.583h-2.874v0z"/></g><g><path fill="#f6f8e9" d="M51.179 13.887a4.05 4.05 0 0 1-1.635-1.612c-.388-.693-.581-1.492-.581-2.397V3.665h2.864v6.548c0 .405.073.763.22 1.075.147.312.355.552.626.723.27.17.578.255.925.255.353 0 .664-.085.934-.255.27-.17.479-.411.626-.723.146-.312.22-.67.22-1.075V7.208c0-.452-.097-.79-.29-1.013-.195-.223-.491-.335-.89-.335a4.67 4.67 0 0 0-.935.123l-.264-1.833c.323-.182.687-.329 1.092-.44a4.231 4.231 0 0 1 1.12-.168c.627 0 1.17.137 1.625.41.455.273.803.668 1.044 1.185s.362 1.131.362 1.842v2.899c0 .905-.192 1.704-.578 2.397a4.025 4.025 0 0 1-1.63 1.612c-.702.383-1.51.573-2.428.573-.916 0-1.725-.19-2.427-.573z"/><path fill="none" stroke="#4f2833" stroke-miterlimit="20" stroke-width=".25" d="M51.179 13.887a4.05 4.05 0 0 1-1.635-1.612c-.388-.693-.581-1.492-.581-2.397V3.665v0h2.864v6.548c0 .405.073.763.22 1.075.147.312.355.552.626.723.27.17.578.255.925.255.353 0 .664-.085.934-.255.27-.17.479-.411.626-.723.146-.312.22-.67.22-1.075V7.208c0-.452-.097-.79-.29-1.013-.195-.223-.491-.335-.89-.335a4.67 4.67 0 0 0-.935.123l-.264-1.833c.323-.182.687-.329 1.092-.44a4.231 4.231 0 0 1 1.12-.168c.627 0 1.17.137 1.625.41.455.273.803.668 1.044 1.185s.362 1.131.362 1.842v2.899c0 .905-.192 1.704-.578 2.397a4.025 4.025 0 0 1-1.63 1.612c-.702.383-1.51.573-2.428.573-.916 0-1.725-.19-2.427-.573z"/></g><g><path fill="#f6f8e9" d="M60.594 17.915h2.767v-7.658c0-.81.053-1.466.16-1.965h-2.283c-.165.176-.313.44-.445.793-.132.352-.199.846-.199 1.48zm3.79-3.666c1.075-.04 1.994-.247 2.758-.617.763-.37 1.348-.898 1.753-1.586.406-.687.609-1.521.609-2.503V3.665h-8.98v2.221h6.116v3.71c0 .793-.194 1.397-.582 1.811-.388.414-.946.636-1.674.665z"/><path fill="none" stroke="#4f2833" stroke-miterlimit="20" stroke-width=".25" d="M60.594 17.915h2.767v-7.658c0-.81.053-1.466.16-1.965h-2.283c-.165.176-.313.44-.445.793-.132.352-.199.846-.199 1.48zm3.79-3.666c1.075-.04 1.994-.247 2.758-.617.763-.37 1.348-.898 1.753-1.586.406-.687.609-1.521.609-2.503V3.665h-8.98v2.221h6.116v3.71c0 .793-.194 1.397-.582 1.811-.388.414-.946.636-1.674.665z"/></g><g><path fill="#f6f8e9" d="M73.01 5.886h-1.638v-2.22h4.503V9.71H73.01z"/><path fill="none" stroke="#4f2833" stroke-miterlimit="20" stroke-width=".25" d="M73.01 5.886v0h-1.638v0-2.22 0h4.503V9.71H73.01v0z"/></g><g><path fill="#f6f8e9" d="M80.85 13.887a4.057 4.057 0 0 1-1.636-1.612c-.387-.693-.58-1.492-.58-2.397V3.665h2.862v6.548c0 .405.074.763.22 1.075.148.312.356.552.626.723.27.17.58.255.926.255.352 0 .663-.085.934-.255.27-.17.478-.411.625-.723.148-.312.22-.67.22-1.075V7.208c0-.452-.096-.79-.29-1.013-.194-.223-.49-.335-.89-.335-.24 0-.552.041-.934.123l-.265-1.833c.324-.182.688-.329 1.093-.44a4.231 4.231 0 0 1 1.12-.168c.628 0 1.17.137 1.625.41.455.273.804.668 1.045 1.185.24.517.36 1.131.36 1.842v2.899c0 .905-.192 1.704-.577 2.397a4.02 4.02 0 0 1-1.63 1.612c-.702.383-1.51.573-2.427.573s-1.726-.19-2.428-.573z"/><path fill="none" stroke="#4f2833" stroke-miterlimit="20" stroke-width=".25" d="M80.85 13.887a4.057 4.057 0 0 1-1.636-1.612c-.387-.693-.58-1.492-.58-2.397V3.665v0h2.862v6.548c0 .405.074.763.22 1.075.148.312.356.552.626.723.27.17.58.255.926.255.352 0 .663-.085.934-.255.27-.17.478-.411.625-.723.148-.312.22-.67.22-1.075V7.208c0-.452-.096-.79-.29-1.013-.194-.223-.49-.335-.89-.335-.24 0-.552.041-.934.123l-.265-1.833c.324-.182.688-.329 1.093-.44a4.231 4.231 0 0 1 1.12-.168c.628 0 1.17.137 1.625.41.455.273.804.668 1.045 1.185.24.517.36 1.131.36 1.842v2.899c0 .905-.192 1.704-.577 2.397a4.02 4.02 0 0 1-1.63 1.612c-.702.383-1.51.573-2.427.573s-1.726-.19-2.428-.573z"/></g><g><path fill="#f6f8e9" d="M28.056 29.05c0-1.005-.534-1.507-1.603-1.507h-4.415v-2.22h4.626c.893 0 1.658.15 2.295.453a3.242 3.242 0 0 1 1.46 1.322c.334.579.501 1.273.501 2.084v6.724h-2.864zm-6.054 3.225c0-1.052.215-1.81.644-2.273h2.282c-.105.528-.158 1.183-.158 1.964v3.94h-2.768z"/><path fill="none" stroke="#4f2833" stroke-miterlimit="20" stroke-width=".25" d="M28.056 29.05c0-1.005-.534-1.507-1.603-1.507h-4.415v-2.22h4.626c.893 0 1.658.15 2.295.453a3.242 3.242 0 0 1 1.46 1.322c.334.579.501 1.273.501 2.084v6.724h-2.864zm-6.054 3.225c0-1.052.215-1.81.644-2.273h2.282c-.105.528-.158 1.183-.158 1.964v3.94h-2.768z"/></g><g><path fill="#f6f8e9" d="M33.696 36.024a11.492 11.492 0 0 1-1.083-.198v-2.141c.422.053.851.08 1.286.08.4 0 .695-.109.885-.327.191-.217.287-.552.287-1.005v-4.89h-1.85v-2.22h4.714v7.34c0 .71-.13 1.323-.388 1.838a2.689 2.689 0 0 1-1.124 1.175c-.49.27-1.076.406-1.757.406-.342 0-.665-.019-.97-.058z"/><path fill="none" stroke="#4f2833" stroke-miterlimit="20" stroke-width=".25" d="M33.696 36.024a11.492 11.492 0 0 1-1.083-.198v-2.141c.422.053.851.08 1.286.08.4 0 .695-.109.885-.327.191-.217.287-.552.287-1.005v-4.89 0h-1.85v0-2.22 0h4.714v7.34c0 .71-.13 1.323-.388 1.838a2.689 2.689 0 0 1-1.124 1.175c-.49.27-1.076.406-1.757.406-.342 0-.665-.019-.97-.058z"/></g><g><path fill="#f6f8e9" d="M45.469 32.495h2.327c.234-.287.422-.694.563-1.22.141-.525.211-1.088.211-1.688v-4.264h-2.775v4.873c0 .48-.03.93-.088 1.347-.059.418-.138.735-.238.952zm-1.912-7.172h-2.768v9.516c.946.453 1.95.798 3.01 1.036 1.06.238 2.09.357 3.089.357 1.275 0 2.424-.195 3.45-.582 1.025-.388 1.838-.971 2.44-1.749.603-.779.904-1.729.904-2.851v-5.727h-2.776v5.4c0 1.106-.372 1.928-1.115 2.468s-1.752.812-3.027.812a7.37 7.37 0 0 1-1.6-.195 9.11 9.11 0 0 1-1.607-.51z"/><path fill="none" stroke="#4f2833" stroke-miterlimit="20" stroke-width=".25" d="M45.469 32.495h2.327c.234-.287.422-.694.563-1.22.141-.525.211-1.088.211-1.688v-4.264h-2.775v4.873c0 .48-.03.93-.088 1.347-.059.418-.138.735-.238.952zm-1.912-7.172h-2.768v9.516c.946.453 1.95.798 3.01 1.036 1.06.238 2.09.357 3.089.357 1.275 0 2.424-.195 3.45-.582 1.025-.388 1.838-.971 2.44-1.749.603-.779.904-1.729.904-2.851v-5.727h-2.776v5.4c0 1.106-.372 1.928-1.115 2.468s-1.752.812-3.027.812a7.37 7.37 0 0 1-1.6-.195 9.11 9.11 0 0 1-1.607-.51z"/></g><g><path fill="#f6f8e9" d="M62.406 29.05c0-1.005-.535-1.507-1.604-1.507h-4.415v-2.22h4.627c.893 0 1.657.15 2.295.453a3.242 3.242 0 0 1 1.458 1.322c.335.579.502 1.273.502 2.084v6.724h-2.863zm-6.054 3.225c0-1.052.215-1.81.643-2.273h2.283c-.106.528-.16 1.183-.16 1.964v3.94h-2.766z"/><path fill="none" stroke="#4f2833" stroke-miterlimit="20" stroke-width=".25" d="M62.406 29.05c0-1.005-.535-1.507-1.604-1.507h-4.415v-2.22h4.627c.893 0 1.657.15 2.295.453a3.242 3.242 0 0 1 1.458 1.322c.335.579.502 1.273.502 2.084v6.724h-2.863zm-6.054 3.225c0-1.052.215-1.81.643-2.273h2.283c-.106.528-.16 1.183-.16 1.964v3.94h-2.766z"/></g></g></g></g></svg>