<svg xmlns="http://www.w3.org/2000/svg" width="178" height="88" viewBox="0 0 89 44"><g><g><g><path fill="#f6f8e9" d="M28.951 30.508c0-1.176-.626-1.764-1.878-1.764h-5.167v-2.599h5.415c1.045 0 1.941.176 2.687.53.746.355 1.315.871 1.708 1.548.391.678.587 1.491.587 2.44v7.87h-3.352zm-7.087 3.775c0-1.231.251-2.118.753-2.661h2.672c-.124.619-.186 1.385-.186 2.3v4.611h-3.239z"/><path fill="none" stroke="#4f2833" stroke-miterlimit="20" stroke-width=".5" d="M28.951 30.508c0-1.176-.626-1.764-1.878-1.764h-5.167v-2.599h5.415c1.045 0 1.941.176 2.687.53.746.355 1.315.871 1.708 1.548.391.678.587 1.491.587 2.44v7.87h-3.352zm-7.087 3.775c0-1.231.251-2.118.753-2.661h2.672c-.124.619-.186 1.385-.186 2.3v4.611h-3.239z"/></g><g><path fill="#f6f8e9" d="M35.552 38.672c-.357-.045-.78-.122-1.269-.232v-2.506c.496.061.998.093 1.507.093.467 0 .813-.128 1.037-.382.223-.255.335-.646.335-1.176v-5.725h-2.166v-2.599h5.518v8.592c0 .832-.152 1.549-.454 2.151a3.155 3.155 0 0 1-1.315 1.377c-.574.316-1.26.474-2.058.474-.399 0-.777-.022-1.135-.067z"/><path fill="none" stroke="#4f2833" stroke-miterlimit="20" stroke-width=".5" d="M35.552 38.672c-.357-.045-.78-.122-1.269-.232v-2.506c.496.061.998.093 1.507.093.467 0 .813-.128 1.037-.382.223-.255.335-.646.335-1.176v-5.725 0h-2.166v0-2.599 0h5.518v8.592c0 .832-.152 1.549-.454 2.151a3.155 3.155 0 0 1-1.315 1.377c-.574.316-1.26.474-2.058.474-.399 0-.777-.022-1.135-.067z"/></g><g><path fill="#f6f8e9" d="M49.612 33.427c-.069.488-.16.859-.278 1.114h2.723c.275-.337.495-.813.66-1.429a7.594 7.594 0 0 0 .248-1.975v-4.992h-3.25v5.704c0 .563-.034 1.089-.103 1.578zm-2.516-7.282h-3.239v11.14c1.106.53 2.281.934 3.522 1.212 1.241.278 2.446.417 3.615.417 1.493 0 2.84-.226 4.04-.68 1.2-.454 2.151-1.136 2.857-2.048.704-.911 1.057-2.023 1.057-3.337v-6.704h-3.25v6.323c0 1.293-.434 2.255-1.304 2.888-.87.633-2.052.949-3.544.949a8.648 8.648 0 0 1-1.872-.227 10.664 10.664 0 0 1-1.882-.598z"/><path fill="none" stroke="#4f2833" stroke-miterlimit="20" stroke-width=".5" d="M49.612 33.427c-.069.488-.16.859-.278 1.114h2.723c.275-.337.495-.813.66-1.429a7.594 7.594 0 0 0 .248-1.975v-4.992h-3.25v5.704c0 .563-.034 1.089-.103 1.578zm-2.516-7.282h-3.239v11.14c1.106.53 2.281.934 3.522 1.212 1.241.278 2.446.417 3.615.417 1.493 0 2.84-.226 4.04-.68 1.2-.454 2.151-1.136 2.857-2.048.704-.911 1.057-2.023 1.057-3.337v-6.704h-3.25v6.323c0 1.293-.434 2.255-1.304 2.888-.87.633-2.052.949-3.544.949a8.648 8.648 0 0 1-1.872-.227 10.664 10.664 0 0 1-1.882-.598z"/></g><g><path fill="#f6f8e9" d="M69.16 30.508c0-1.176-.626-1.764-1.878-1.764h-5.167v-2.599h5.415c1.045 0 1.941.176 2.687.53.746.355 1.315.871 1.708 1.548.391.678.587 1.491.587 2.44v7.87H69.16zm-7.087 3.775c0-1.231.251-2.118.753-2.661h2.672c-.124.619-.186 1.385-.186 2.3v4.611h-3.239z"/><path fill="none" stroke="#4f2833" stroke-miterlimit="20" stroke-width=".5" d="M69.16 30.508c0-1.176-.626-1.764-1.878-1.764h-5.167v-2.599h5.415c1.045 0 1.941.176 2.687.53.746.355 1.315.871 1.708 1.548.391.678.587 1.491.587 2.44v7.87H69.16zm-7.087 3.775c0-1.231.251-2.118.753-2.661h2.672c-.124.619-.186 1.385-.186 2.3v4.611h-3.239z"/></g><g><path fill="#f6f8e9" d="M10.932 9.384c0-.53-.15-.935-.454-1.217-.303-.282-.739-.423-1.31-.423H5.475V5.145h3.94c1.012 0 1.883.175 2.615.525.733.351 1.292.857 1.677 1.517.385.66.577 1.451.577 2.373v7.973h-3.352z"/><path fill="none" stroke="#4f2833" stroke-miterlimit="20" stroke-width=".5" d="M10.932 9.384c0-.53-.15-.935-.454-1.217-.303-.282-.739-.423-1.31-.423H5.475v0-2.599 0h3.94c1.012 0 1.883.175 2.615.525.733.351 1.292.857 1.677 1.517.385.66.577 1.451.577 2.373v7.973h-3.352v0z"/></g><g><path fill="#f6f8e9" d="M17.401 21.824h3.24V12.86c0-.949.06-1.716.184-2.3h-2.672c-.192.206-.366.515-.52.928-.155.413-.232.991-.232 1.733zm4.435-4.291c1.258-.048 2.335-.288 3.228-.722.895-.434 1.58-1.052 2.053-1.857.475-.805.712-1.781.712-2.93V5.145H17.32v2.599h7.158v4.343c0 .928-.227 1.635-.68 2.119-.455.485-1.109.745-1.96.779z"/><path fill="none" stroke="#4f2833" stroke-miterlimit="20" stroke-width=".5" d="M17.401 21.824h3.24V12.86c0-.949.06-1.716.184-2.3h-2.672c-.192.206-.366.515-.52.928-.155.413-.232.991-.232 1.733zm4.435-4.291c1.258-.048 2.335-.288 3.228-.722.895-.434 1.58-1.052 2.053-1.857.475-.805.712-1.781.712-2.93V5.145H17.32v2.599h7.158v4.343c0 .928-.227 1.635-.68 2.119-.455.485-1.109.745-1.96.779z"/></g><g><path fill="#f6f8e9" d="M31.305 7.744h-1.052V5.145h4.415v12.388h-3.363z"/><path fill="none" stroke="#4f2833" stroke-miterlimit="20" stroke-width=".5" d="M31.305 7.744v0h-1.052v0-2.599 0h4.415v12.388h-3.363v0z"/></g><g><path fill="#f6f8e9" d="M40.594 17.11a4.741 4.741 0 0 1-1.913-1.887c-.455-.812-.68-1.747-.68-2.806V5.145h3.351v7.664c0 .474.086.894.258 1.258.172.365.416.647.733.846.316.2.677.299 1.082.299.413 0 .777-.099 1.094-.299.317-.199.561-.481.733-.846a2.93 2.93 0 0 0 .258-1.258V9.291c0-.53-.114-.924-.34-1.186-.228-.262-.575-.392-1.043-.392-.282 0-.646.048-1.093.145l-.31-2.147a5.705 5.705 0 0 1 1.28-.515A4.957 4.957 0 0 1 45.313 5c.735 0 1.37.16 1.902.479.533.32.941.783 1.223 1.388.282.605.423 1.324.423 2.156v3.394c0 1.059-.225 1.994-.676 2.806a4.71 4.71 0 0 1-1.908 1.887c-.822.447-1.769.671-2.842.671-1.073 0-2.02-.224-2.842-.671z"/><path fill="none" stroke="#4f2833" stroke-miterlimit="20" stroke-width=".5" d="M40.594 17.11a4.741 4.741 0 0 1-1.913-1.887c-.455-.812-.68-1.747-.68-2.806V5.145v0h3.351v7.664c0 .474.086.894.258 1.258.172.365.416.647.733.846.316.2.677.299 1.082.299.413 0 .777-.099 1.094-.299.317-.199.561-.481.733-.846a2.93 2.93 0 0 0 .258-1.258V9.291c0-.53-.114-.924-.34-1.186-.228-.262-.575-.392-1.043-.392-.282 0-.646.048-1.093.145l-.31-2.147a5.705 5.705 0 0 1 1.28-.515A4.957 4.957 0 0 1 45.313 5c.735 0 1.37.16 1.902.479.533.32.941.783 1.223 1.388.282.605.423 1.324.423 2.156v3.394c0 1.059-.225 1.994-.676 2.806a4.71 4.71 0 0 1-1.908 1.887c-.822.447-1.769.671-2.842.671-1.073 0-2.02-.224-2.842-.671z"/></g><g><path fill="#f6f8e9" d="M51.617 21.824h3.24V12.86c0-.949.06-1.716.184-2.3H52.37c-.192.206-.366.515-.52.928-.155.413-.232.991-.232 1.733zm4.435-4.291c1.258-.048 2.335-.288 3.228-.722.895-.434 1.58-1.052 2.053-1.857.475-.805.712-1.781.712-2.93V5.145h-10.51v2.599h7.158v4.343c0 .928-.227 1.635-.68 2.119-.455.485-1.109.745-1.96.779z"/><path fill="none" stroke="#4f2833" stroke-miterlimit="20" stroke-width=".5" d="M51.617 21.824h3.24V12.86c0-.949.06-1.716.184-2.3H52.37c-.192.206-.366.515-.52.928-.155.413-.232.991-.232 1.733zm4.435-4.291c1.258-.048 2.335-.288 3.228-.722.895-.434 1.58-1.052 2.053-1.857.475-.805.712-1.781.712-2.93V5.145h-10.51v2.599h7.158v4.343c0 .928-.227 1.635-.68 2.119-.455.485-1.109.745-1.96.779z"/></g><g><path fill="#f6f8e9" d="M66.151 7.744h-1.919V5.145h5.271v7.076h-3.352z"/><path fill="none" stroke="#4f2833" stroke-miterlimit="20" stroke-width=".5" d="M66.151 7.744v0h-1.919v0-2.599 0h5.271v7.076h-3.352v0z"/></g><g><path fill="#f6f8e9" d="M75.326 17.11a4.741 4.741 0 0 1-1.913-1.887c-.455-.812-.68-1.747-.68-2.806V5.145h3.351v7.664c0 .474.086.894.258 1.258.172.365.416.647.733.846.315.2.676.299 1.082.299.413 0 .777-.099 1.094-.299.316-.199.561-.481.732-.846.172-.364.258-.784.258-1.258V9.291c0-.53-.114-.924-.34-1.186-.227-.262-.575-.392-1.043-.392-.28 0-.646.048-1.092.145l-.31-2.147a5.705 5.705 0 0 1 1.28-.515A4.951 4.951 0 0 1 80.045 5c.735 0 1.37.16 1.902.479.533.32.941.783 1.223 1.388.281.605.423 1.324.423 2.156v3.394c0 1.059-.226 1.994-.676 2.806a4.719 4.719 0 0 1-1.909 1.887c-.822.447-1.768.671-2.842.671-1.072 0-2.02-.224-2.84-.671z"/><path fill="none" stroke="#4f2833" stroke-miterlimit="20" stroke-width=".5" d="M75.326 17.11a4.741 4.741 0 0 1-1.913-1.887c-.455-.812-.68-1.747-.68-2.806V5.145v0h3.351v7.664c0 .474.086.894.258 1.258.172.365.416.647.733.846.315.2.676.299 1.082.299.413 0 .777-.099 1.094-.299.316-.199.561-.481.732-.846.172-.364.258-.784.258-1.258V9.291c0-.53-.114-.924-.34-1.186-.227-.262-.575-.392-1.043-.392-.28 0-.646.048-1.092.145l-.31-2.147a5.705 5.705 0 0 1 1.28-.515A4.951 4.951 0 0 1 80.045 5c.735 0 1.37.16 1.902.479.533.32.941.783 1.223 1.388.281.605.423 1.324.423 2.156v3.394c0 1.059-.226 1.994-.676 2.806a4.719 4.719 0 0 1-1.909 1.887c-.822.447-1.768.671-2.842.671-1.072 0-2.02-.224-2.84-.671z"/></g></g></g></svg>