<svg xmlns="http://www.w3.org/2000/svg" width="82" height="84" viewBox="0 0 41 42"><g><g><g><g><path fill="#4f2833" d="M.578 20.96C.578 9.853 9.583.848 20.69.848c11.108 0 20.112 9.005 20.112 20.112 0 11.108-9.004 20.112-20.112 20.112C9.583 41.072.578 32.068.578 20.96z"/></g></g><g><g><path fill="#f0e9cf" d="M4.082 20.96c0-9.172 7.435-16.608 16.608-16.608 9.173 0 16.609 7.436 16.609 16.608 0 9.173-7.436 16.609-16.609 16.609-9.173 0-16.608-7.436-16.608-16.609z"/></g><g><path fill="#fff" d="M37.211 20.96c0 9.11-7.411 16.52-16.521 16.52-9.109 0-16.521-7.41-16.521-16.52S11.581 4.44 20.69 4.44c9.11 0 16.521 7.41 16.521 16.52zm.176 0c0-9.206-7.49-16.696-16.697-16.696-9.206 0-16.696 7.49-16.696 16.696 0 9.207 7.49 16.697 16.696 16.697 9.207 0 16.697-7.49 16.697-16.697z"/></g></g><g><g><path fill="#fff" d="M19.62 3.12l-.052-.877a19.19 19.19 0 0 1 2.185-.004l-.049.878a18.562 18.562 0 0 0-2.084.003zm6.181.708a17.755 17.755 0 0 0-2.028-.475l.15-.866c.717.124 1.433.292 2.128.499zm-10.276.017l-.253-.843c.695-.208 1.41-.38 2.126-.505l.153.866c-.682.12-1.364.283-2.026.482zM29.623 5.47a18.003 18.003 0 0 0-1.863-.933l.347-.808c.667.287 1.324.616 1.955.98zm-17.913.027l-.441-.76a18.744 18.744 0 0 1 1.95-.985l.35.807c-.635.275-1.26.591-1.859.938zm21.252 2.454a17.861 17.861 0 0 0-1.597-1.337l.524-.706c.583.433 1.147.905 1.676 1.402zm-24.583.036l-.604-.639c.528-.498 1.09-.972 1.671-1.407l.527.704c-.555.415-1.091.867-1.594 1.342zm27.264 3.144a17.735 17.735 0 0 0-1.248-1.667l.672-.567c.469.555.909 1.144 1.31 1.749zm-29.935.045l-.735-.483c.399-.607.838-1.197 1.304-1.754l.674.565c-.444.53-.863 1.093-1.243 1.672zm31.811 3.666a17.829 17.829 0 0 0-.83-1.91l.785-.397c.328.649.621 1.323.871 2.005zm-33.677.053l-.827-.3c.248-.683.539-1.359.865-2.008l.786.394a17.765 17.765 0 0 0-.824 1.914zm34.641 3.992a17.998 17.998 0 0 0-.363-2.051l.855-.203c.168.705.296 1.429.381 2.15zm-35.593.057l-.873-.1c.083-.723.209-1.447.375-2.153l.855.2a17.965 17.965 0 0 0-.357 2.053zm36.471 4.242l-.873-.101c.079-.686.119-1.386.119-2.08v-.04h.879v.04c0 .727-.042 1.46-.125 2.18zm-37.339.019a19.073 19.073 0 0 1-.128-2.181h.879c.001.694.042 1.394.122 2.079zm36.336 4.228l-.826-.3a17.82 17.82 0 0 0 .596-1.997l.856.202a18.878 18.878 0 0 1-.626 2.095zm-35.329.018a18.79 18.79 0 0 1-.628-2.093l.855-.203c.16.674.362 1.345.599 1.995zm33.368 3.882l-.735-.484a17.88 17.88 0 0 0 1.044-1.803l.785.395a18.84 18.84 0 0 1-1.094 1.892zm-31.404.014a18.933 18.933 0 0 1-1.096-1.89l.785-.396c.312.617.663 1.223 1.045 1.8zm28.597 3.328l-.603-.64c.504-.475.985-.985 1.43-1.515l.673.565a18.927 18.927 0 0 1-1.5 1.59zm-25.789.01A18.916 18.916 0 0 1 6.3 33.098l.673-.566c.445.53.927 1.039 1.431 1.514zm22.293 2.598zm-.44-.762a17.974 17.974 0 0 0 1.738-1.146l.526.705c-.583.434-1.196.839-1.824 1.203zm-18.353.77a18.85 18.85 0 0 1-1.826-1.201l.525-.705c.556.413 1.142.799 1.741 1.145zm14.789 1.722l-.252-.842c.662-.198 1.32-.438 1.956-.713l.349.807c-.667.288-1.358.54-2.053.748zm-10.78.006a18.592 18.592 0 0 1-2.055-.747l.348-.807c.635.274 1.294.514 1.958.712zm6.482.75l-.05-.878c.692-.04 1.388-.121 2.069-.24l.152.866c-.714.125-1.445.21-2.171.252zm-2.184.001a18.72 18.72 0 0 1-2.17-.25l.151-.866a17.83 17.83 0 0 0 2.069.238z"/></g></g><g><g><path fill="#dd91b7" d="M16.257 30.011a1.15 1.15 0 0 1-1.047-.673l-3.824-8.415a1.15 1.15 0 0 1 2.093-.952l3.028 6.662 11.324-14.906a1.15 1.15 0 0 1 1.831 1.391l-12.49 16.439a1.148 1.148 0 0 1-.915.454z"/><path fill="none" stroke="#4b481c" stroke-miterlimit="20" stroke-width=".5" d="M16.257 30.011a1.15 1.15 0 0 1-1.047-.673l-3.824-8.415a1.15 1.15 0 0 1 2.093-.952l3.028 6.662v0l11.324-14.906a1.15 1.15 0 0 1 1.831 1.391l-12.49 16.439a1.148 1.148 0 0 1-.915.454z"/></g></g></g></g></svg>