<svg xmlns="http://www.w3.org/2000/svg" width="82" height="82" viewBox="0 0 41 41"><g><g><g><g><path fill="#f0e9cf" d="M.397 20.112C.397 9.004 9.402 0 20.51 0c11.108 0 20.112 9.004 20.112 20.112 0 11.108-9.004 20.112-20.112 20.112C9.402 40.224.397 31.22.397 20.112z"/></g></g><g><g><path fill="#4f2833" d="M3.9 20.112c0-9.173 7.436-16.609 16.61-16.609 9.172 0 16.608 7.436 16.608 16.609 0 9.173-7.436 16.609-16.609 16.609-9.173 0-16.608-7.436-16.608-16.609z"/></g><g><path fill="#4f2833" d="M37.03 20.112c0 9.11-7.411 16.52-16.52 16.52-9.11 0-16.521-7.41-16.521-16.52s7.41-16.52 16.52-16.52 16.52 7.41 16.52 16.52zm.176 0c0-9.207-7.49-16.697-16.696-16.697-9.207 0-16.697 7.49-16.697 16.697 0 9.206 7.49 16.696 16.697 16.696 9.206 0 16.696-7.49 16.696-16.696z"/></g></g><g><g><path fill="#4f2833" d="M19.439 2.272l-.051-.878a18.948 18.948 0 0 1 2.184-.003l-.05.878a18.124 18.124 0 0 0-2.083.003zm6.182.708a18.098 18.098 0 0 0-2.028-.476l.15-.866c.716.124 1.432.292 2.128.5zm-10.277.016l-.253-.842c.695-.209 1.41-.379 2.126-.506l.153.866c-.682.121-1.364.283-2.026.482zm14.099 1.627a17.893 17.893 0 0 0-1.863-.934l.347-.808c.666.287 1.324.617 1.954.98zM11.53 4.65l-.442-.76a18.748 18.748 0 0 1 1.95-.985l.35.806c-.634.276-1.26.591-1.858.94zm21.252 2.453a18.22 18.22 0 0 0-1.598-1.337l.525-.706c.582.433 1.146.905 1.675 1.403zM8.199 7.14l-.604-.639a18.708 18.708 0 0 1 1.67-1.407l.527.704A18.03 18.03 0 0 0 8.199 7.14zm27.264 3.144a18.234 18.234 0 0 0-1.248-1.668l.672-.567c.468.556.909 1.144 1.309 1.75zm-29.936.044zm-.735-.483c.4-.607.838-1.197 1.305-1.753l.674.565c-.445.53-.864 1.092-1.244 1.671zm32.546 4.15a17.754 17.754 0 0 0-.83-1.91l.786-.398c.327.65.62 1.323.87 2.005zm-33.676.052l-.827-.3c.248-.683.539-1.359.865-2.008l.785.394c-.31.62-.587 1.263-.823 1.914zm34.64 3.993a18.147 18.147 0 0 0-.363-2.05l.855-.205c.168.705.297 1.43.382 2.152zm-35.592.056l-.873-.1c.082-.722.208-1.447.374-2.153l.856.201a18.004 18.004 0 0 0-.357 2.052zm36.47 4.242zm-.873-.1c.079-.687.119-1.387.119-2.08v-.04h.88v.04c0 .727-.043 1.461-.126 2.18zm-36.466.12a18.868 18.868 0 0 1-.127-2.18l.879-.002c0 .695.04 1.395.12 2.08zm36.336 4.228l-.826-.3c.237-.652.438-1.324.597-1.997l.856.202a18.67 18.67 0 0 1-.627 2.095zm-35.33.017a18.73 18.73 0 0 1-.627-2.093l.856-.203c.16.674.36 1.345.598 1.995zm33.369 3.882l-.734-.483c.38-.579.732-1.186 1.043-1.804l.786.395a19.05 19.05 0 0 1-1.095 1.892zM4.812 30.5c-.4-.606-.77-1.242-1.095-1.89l.785-.396c.31.618.662 1.224 1.044 1.802zm28.598 3.328l-.604-.639a18.11 18.11 0 0 0 1.43-1.516l.674.566c-.467.556-.972 1.09-1.5 1.59zm-25.79.01a18.893 18.893 0 0 1-1.5-1.587l.672-.566c.446.53.927 1.038 1.43 1.514zm22.293 2.598zm-.44-.76a18.295 18.295 0 0 0 1.739-1.147l.525.704c-.582.435-1.196.84-1.824 1.203zm-18.353.768a18.955 18.955 0 0 1-1.826-1.2l.525-.706a18.01 18.01 0 0 0 1.74 1.145zm14.789 1.723l-.252-.843a17.812 17.812 0 0 0 1.957-.713l.349.807c-.668.29-1.36.541-2.054.75zm-10.78.005a18.674 18.674 0 0 1-2.055-.746l.348-.808a17.75 17.75 0 0 0 1.959.712zm6.483.75l-.051-.878c.692-.039 1.388-.12 2.069-.24l.152.866c-.714.125-1.444.21-2.17.252zm-2.185.001a18.936 18.936 0 0 1-2.17-.249l.15-.867c.68.12 1.377.2 2.07.24z"/></g></g><g><g><path fill="#dd91b7" d="M16.076 29.163a1.148 1.148 0 0 1-1.046-.674l-3.824-8.414a1.15 1.15 0 1 1 2.093-.952l3.027 6.661L27.65 10.878a1.15 1.15 0 0 1 1.83 1.391L16.993 28.71a1.149 1.149 0 0 1-.916.454z"/><path fill="none" stroke="#4b481c" stroke-miterlimit="20" stroke-width=".5" d="M16.076 29.163a1.148 1.148 0 0 1-1.046-.674l-3.824-8.414a1.15 1.15 0 1 1 2.093-.952l3.027 6.661v0L27.65 10.878a1.15 1.15 0 0 1 1.83 1.391L16.993 28.71a1.149 1.149 0 0 1-.916.454z"/></g></g></g></g></svg>