<svg xmlns="http://www.w3.org/2000/svg" width="88" height="90" viewBox="0 0 44 45"><defs><clipPath id="h0lna"><path fill="#fff" d="M13.108 43.202a4.108 4.108 0 0 1-4.103-4.103V6.437a4.108 4.108 0 0 1 4.103-4.103h18.117a4.108 4.108 0 0 1 4.103 4.103v32.662a4.108 4.108 0 0 1-4.103 4.103zM31.225.896H13.108a5.548 5.548 0 0 0-5.542 5.541v32.662a5.547 5.547 0 0 0 5.542 5.541h18.117a5.547 5.547 0 0 0 5.542-5.541V6.437A5.548 5.548 0 0 0 31.225.896z"/></clipPath><clipPath id="h0lnb"><path fill="#fff" d="M7.385 38.198V10.436h29.564v27.762z"/></clipPath><clipPath id="h0lnc"><path fill="#fff" d="M9.005 10.254h26.323V38.38H9.005zm27.043-1.438H8.286a.72.72 0 0 0-.72.719v29.564a.72.72 0 0 0 .72.719h27.762a.72.72 0 0 0 .719-.719V9.535a.72.72 0 0 0-.719-.719z"/></clipPath><clipPath id="h0lnd"><path fill="#fff" d="M24.628 5.064h-4.923a.72.72 0 0 0 0 1.439h4.923a.72.72 0 1 0 0-1.439z"/></clipPath></defs><g><g><g><g><g><path fill="#f8f5e0" d="M13.108 43.202a4.108 4.108 0 0 1-4.103-4.103V6.437a4.108 4.108 0 0 1 4.103-4.103h18.117a4.108 4.108 0 0 1 4.103 4.103v32.662a4.108 4.108 0 0 1-4.103 4.103zM31.225.896H13.108a5.548 5.548 0 0 0-5.542 5.541v32.662a5.547 5.547 0 0 0 5.542 5.541h18.117a5.547 5.547 0 0 0 5.542-5.541V6.437A5.548 5.548 0 0 0 31.225.896z"/><path fill="none" stroke="#4f2833" stroke-miterlimit="20" d="M13.108 43.202a4.108 4.108 0 0 1-4.103-4.103V6.437a4.108 4.108 0 0 1 4.103-4.103h18.117a4.108 4.108 0 0 1 4.103 4.103v32.662a4.108 4.108 0 0 1-4.103 4.103zM31.225.896H13.108a5.548 5.548 0 0 0-5.542 5.541v32.662a5.547 5.547 0 0 0 5.542 5.541h18.117a5.547 5.547 0 0 0 5.542-5.541V6.437A5.548 5.548 0 0 0 31.225.896z" clip-path="url(&quot;#h0lna&quot;)"/></g></g><g><g transform="rotate(-90 22.165 24.32)"><path fill="#f8f5e0" d="M7.385 38.198V10.436h29.564v27.762z"/><path fill="none" stroke="#4f2833" stroke-miterlimit="20" d="M7.385 38.198v0-27.762 0h29.564v27.762z" clip-path="url(&quot;#h0lnb&quot;)"/></g><g><path fill="#f8f5e0" d="M9.005 10.254h26.323V38.38H9.005zm27.043-1.438H8.286a.72.72 0 0 0-.72.719v29.564a.72.72 0 0 0 .72.719h27.762a.72.72 0 0 0 .719-.719V9.535a.72.72 0 0 0-.719-.719z"/><path fill="none" stroke="#4f2833" stroke-miterlimit="20" d="M9.005 10.254h26.323V38.38H9.005zm27.043-1.438H8.286a.72.72 0 0 0-.72.719v29.564a.72.72 0 0 0 .72.719h27.762a.72.72 0 0 0 .719-.719V9.535a.72.72 0 0 0-.719-.719z" clip-path="url(&quot;#h0lnc&quot;)"/></g></g><g><g><path fill="#f8f5e0" d="M24.628 5.064h-4.923a.72.72 0 0 0 0 1.439h4.923a.72.72 0 1 0 0-1.439z"/><path fill="none" stroke="#4f2833" stroke-miterlimit="20" d="M24.628 5.064h-4.923a.72.72 0 0 0 0 1.439h4.923a.72.72 0 1 0 0-1.439z" clip-path="url(&quot;#h0lnd&quot;)"/></g></g></g></g><g><g><path fill="#f5b580" d="M8.876 31.134V21.21h26.632v9.923z"/><path fill="none" stroke="#4f4931" stroke-miterlimit="20" stroke-width=".75" d="M8.876 31.134v0-9.923 0h26.632v9.923z"/></g><g><path fill="#d180f2" d="M8.876 31.134v-2.08h26.632v2.08z"/><path fill="none" stroke="#4f4931" stroke-miterlimit="20" stroke-width=".75" d="M8.876 31.134v0-2.08 0h26.632v2.08z"/></g><g><path fill="#818af0" d="M8.876 29.213v-2.08h26.632v2.08z"/><path fill="none" stroke="#4f4931" stroke-miterlimit="20" stroke-width=".75" d="M8.876 29.213v0-2.08 0h26.632v2.08z"/></g><g><path fill="#82edad" d="M8.876 27.293v-2.08h26.632v2.08z"/><path fill="none" stroke="#4f4931" stroke-miterlimit="20" stroke-width=".75" d="M8.876 27.293v0-2.08 0h26.632v2.08z"/></g><g><path fill="#f2809b" d="M8.876 21.371v-2.08h26.632v2.08z"/><path fill="none" stroke="#4f4931" stroke-miterlimit="20" stroke-width=".75" d="M8.876 21.371v0-2.08 0h26.632v2.08z"/></g><g><path fill="#f2dc80" d="M8.876 25.372v-2.08h26.632v2.08z"/><path fill="none" stroke="#4f4931" stroke-miterlimit="20" stroke-width=".75" d="M8.876 25.372v0-2.08 0h26.632v2.08z"/></g></g></g></svg>