<svg xmlns="http://www.w3.org/2000/svg" width="88" height="96" viewBox="0 0 44 48"><g><g><g><path fill="#e4e4d2" d="M13.678 33.788c.143.307.317.6.52.876zm-.481-2.265a5.16 5.16 0 0 1 5.247-5.073 5.158 5.158 0 0 1 1.562.267l.102-6.238a11.335 11.335 0 0 0-1.784-.132l-.08 4.855a5.161 5.161 0 0 0-6.809 4.807l2.243 3.78a5.144 5.144 0 0 1-.481-2.266zm17.601-20.385c.353.769.818 1.477 1.373 2.104zm-.749-2.912l.013-.784-1.693-.028 2.43 3.724a8.475 8.475 0 0 1-.75-2.912zm8.279 13.996l.1-6.101a8.634 8.634 0 0 1-1.783-.217l-.079 4.803a14.585 14.585 0 0 1-8.463-2.861l-.205 12.451c-.103 6.229-5.238 11.195-11.47 11.093a11.246 11.246 0 0 1-6.25-2.011 11.253 11.253 0 0 0 8.012 3.525c6.232.103 11.368-4.863 11.47-11.092l.206-12.45a14.582 14.582 0 0 0 8.462 2.86z"/><path fill="none" stroke="#4f4931" stroke-miterlimit="20" stroke-width=".5" d="M13.678 33.788c.143.307.317.6.52.876zm-.481-2.265a5.16 5.16 0 0 1 5.247-5.073 5.158 5.158 0 0 1 1.562.267l.102-6.238a11.335 11.335 0 0 0-1.784-.132l-.08 4.855a5.161 5.161 0 0 0-6.809 4.807l2.243 3.78a5.144 5.144 0 0 1-.481-2.266zm17.601-20.385c.353.769.818 1.477 1.373 2.104zm-.749-2.912l.013-.784-1.693-.028 2.43 3.724a8.475 8.475 0 0 1-.75-2.912zm8.279 13.996l.1-6.101a8.634 8.634 0 0 1-1.783-.217l-.079 4.803a14.585 14.585 0 0 1-8.463-2.861l-.205 12.451c-.103 6.229-5.238 11.195-11.47 11.093a11.246 11.246 0 0 1-6.25-2.011 11.253 11.253 0 0 0 8.012 3.525c6.232.103 11.368-4.863 11.47-11.092l.206-12.45a14.582 14.582 0 0 0 8.462 2.86z"/></g><g><path fill="#81acf0" d="M14.198 34.664a5.16 5.16 0 0 1 4.246-8.214 5.158 5.158 0 0 1 1.562.267l.102-6.238a11.335 11.335 0 0 0-1.784-.132l-.08 4.855a5.161 5.161 0 0 0-6.809 4.807 5.16 5.16 0 0 0 2.763 4.655zm17.973-21.422a8.496 8.496 0 0 1-2.122-5.016l.013-.784-1.693-.028a8.542 8.542 0 0 0 3.802 5.828zm6.157 8.98l.1-6.101a8.634 8.634 0 0 1-1.783-.217l-.079 4.803a14.585 14.585 0 0 1-8.463-2.861l-.205 12.451c-.103 6.229-5.238 11.195-11.47 11.093a11.246 11.246 0 0 1-6.25-2.011 11.253 11.253 0 0 0 8.012 3.525c6.232.103 11.368-4.863 11.47-11.092l.206-12.45a14.582 14.582 0 0 0 8.462 2.86z"/><path fill="none" stroke="#4f2833" stroke-miterlimit="20" stroke-width=".5" d="M14.198 34.664a5.16 5.16 0 0 1 4.246-8.214 5.158 5.158 0 0 1 1.562.267l.102-6.238a11.335 11.335 0 0 0-1.784-.132l-.08 4.855a5.161 5.161 0 0 0-6.809 4.807 5.16 5.16 0 0 0 2.763 4.655zm17.973-21.422a8.496 8.496 0 0 1-2.122-5.016l.013-.784-1.693-.028a8.542 8.542 0 0 0 3.802 5.828zm6.157 8.98l.1-6.101a8.634 8.634 0 0 1-1.783-.217l-.079 4.803a14.585 14.585 0 0 1-8.463-2.861l-.205 12.451c-.103 6.229-5.238 11.195-11.47 11.093a11.246 11.246 0 0 1-6.25-2.011 11.253 11.253 0 0 0 8.012 3.525c6.232.103 11.368-4.863 11.47-11.092l.206-12.45a14.582 14.582 0 0 0 8.462 2.86z"/></g><g><path fill="#e4e4d2" d="M28.103 17.846a14.585 14.585 0 0 0 8.463 2.861l.079-4.803a8.534 8.534 0 0 1-4.474-2.662 8.542 8.542 0 0 1-3.802-5.828l-4.447-.073-.402 24.37a5.162 5.162 0 0 1-5.247 5.056 5.156 5.156 0 0 1-4.075-2.103 5.16 5.16 0 0 1 2.483-9.729 5.165 5.165 0 0 1 1.563.267l.08-4.855c-6.125.026-11.131 4.944-11.232 11.093a11.239 11.239 0 0 0 3.086 7.939 11.24 11.24 0 0 0 6.251 2.011c6.231.102 11.366-4.864 11.469-11.092z"/><path fill="none" stroke="#4f4931" stroke-miterlimit="20" stroke-width=".5" d="M28.103 17.846a14.585 14.585 0 0 0 8.463 2.861l.079-4.803a8.534 8.534 0 0 1-4.474-2.662 8.542 8.542 0 0 1-3.802-5.828l-4.447-.073v0l-.402 24.37a5.162 5.162 0 0 1-5.247 5.056 5.156 5.156 0 0 1-4.075-2.103 5.16 5.16 0 0 1 2.483-9.729 5.165 5.165 0 0 1 1.563.267l.08-4.855c-6.125.026-11.131 4.944-11.232 11.093a11.239 11.239 0 0 0 3.086 7.939 11.24 11.24 0 0 0 6.251 2.011c6.231.102 11.366-4.864 11.469-11.092z"/></g><g><path fill="#f8f5e0" d="M28.103 17.846a14.585 14.585 0 0 0 8.463 2.861l.079-4.803a8.534 8.534 0 0 1-4.474-2.662 8.542 8.542 0 0 1-3.802-5.828l-4.447-.073-.402 24.37a5.162 5.162 0 0 1-5.247 5.056 5.156 5.156 0 0 1-4.075-2.103 5.16 5.16 0 0 1 2.483-9.729 5.165 5.165 0 0 1 1.563.267l.08-4.855c-6.125.026-11.131 4.944-11.232 11.093a11.239 11.239 0 0 0 3.086 7.939 11.24 11.24 0 0 0 6.251 2.011c6.231.102 11.366-4.864 11.469-11.092z"/><path fill="none" stroke="#4f2833" stroke-miterlimit="20" stroke-width=".5" d="M28.103 17.846a14.585 14.585 0 0 0 8.463 2.861l.079-4.803a8.534 8.534 0 0 1-4.474-2.662 8.542 8.542 0 0 1-3.802-5.828l-4.447-.073v0l-.402 24.37a5.162 5.162 0 0 1-5.247 5.056 5.156 5.156 0 0 1-4.075-2.103 5.16 5.16 0 0 1 2.483-9.729 5.165 5.165 0 0 1 1.563.267l.08-4.855c-6.125.026-11.131 4.944-11.232 11.093a11.239 11.239 0 0 0 3.086 7.939 11.24 11.24 0 0 0 6.251 2.011c6.231.102 11.366-4.864 11.469-11.092z"/></g><g><path fill="#e4e4d2" d="M18.324 20.347c-6.125.026-11.131 4.944-11.232 11.093a11.24 11.24 0 0 0 3.086 7.938 11.268 11.268 0 0 1-4.848-9.452c.103-6.229 5.238-11.195 11.47-11.092.518.008 1.035.052 1.547.131l-.023 1.382zm5.597-13.006l-.401 24.37a5.161 5.161 0 0 1-5.246 5.056 5.153 5.153 0 0 1-4.076-2.103 5.13 5.13 0 0 0 2.313.588 5.162 5.162 0 0 0 5.247-5.056l.401-24.37 6.141.101-.013.785c.017.235.045.469.082.702zm8.8 6.227a8.505 8.505 0 0 0 3.945 1.038l-.021 1.298zm-.55-.327l.55.327a8.52 8.52 0 0 1-.55-.327z"/><path fill="none" stroke="#4f4931" stroke-miterlimit="20" stroke-width=".5" d="M18.324 20.347c-6.125.026-11.131 4.944-11.232 11.093a11.24 11.24 0 0 0 3.086 7.938 11.268 11.268 0 0 1-4.848-9.452c.103-6.229 5.238-11.195 11.47-11.092.518.008 1.035.052 1.547.131l-.023 1.382zm5.597-13.006l-.401 24.37a5.161 5.161 0 0 1-5.246 5.056 5.153 5.153 0 0 1-4.076-2.103 5.13 5.13 0 0 0 2.313.588 5.162 5.162 0 0 0 5.247-5.056l.401-24.37 6.141.101-.013.785c.017.235.045.469.082.702zm8.8 6.227a8.505 8.505 0 0 0 3.945 1.038l-.021 1.298zm-.55-.327l.55.327a8.52 8.52 0 0 1-.55-.327z"/></g><g><path fill="#f2809b" d="M18.324 20.347c-6.125.026-11.131 4.944-11.232 11.093a11.24 11.24 0 0 0 3.086 7.938 11.268 11.268 0 0 1-4.848-9.452c.103-6.229 5.238-11.195 11.47-11.092.518.008 1.035.052 1.547.131l-.023 1.382zm5.597-13.006l-.401 24.37a5.161 5.161 0 0 1-5.246 5.056 5.153 5.153 0 0 1-4.076-2.103 5.13 5.13 0 0 0 2.313.588 5.162 5.162 0 0 0 5.247-5.056l.401-24.37 6.141.101-.013.785c.017.235.045.469.082.702zm8.25 5.9a8.506 8.506 0 0 0 4.495 1.365l-.021 1.298a8.53 8.53 0 0 1-4.474-2.663z"/><path fill="none" stroke="#4f2833" stroke-miterlimit="20" stroke-width=".5" d="M18.324 20.347c-6.125.026-11.131 4.944-11.232 11.093a11.24 11.24 0 0 0 3.086 7.938 11.268 11.268 0 0 1-4.848-9.452c.103-6.229 5.238-11.195 11.47-11.092.518.008 1.035.052 1.547.131l-.023 1.382zm5.597-13.006l-.401 24.37a5.161 5.161 0 0 1-5.246 5.056 5.153 5.153 0 0 1-4.076-2.103 5.13 5.13 0 0 0 2.313.588 5.162 5.162 0 0 0 5.247-5.056l.401-24.37 6.141.101-.013.785c.017.235.045.469.082.702zm8.25 5.9a8.506 8.506 0 0 0 4.495 1.365l-.021 1.298a8.53 8.53 0 0 1-4.474-2.663z"/></g></g></g></svg>