<svg xmlns="http://www.w3.org/2000/svg" width="88" height="110" viewBox="0 0 44 55"><g><g><g><path fill="#f8f5e0" d="M6.575 38.929l12.969-20.491s1.05-.116 2.691.575c-.001.001-10.897 15.28-14.549 21.943-.551-.537-.966-1.203-1.111-2.027z"/><path fill="none" stroke="#4f2833" stroke-miterlimit="20" stroke-width=".5" d="M6.575 38.929v0l12.969-20.491v0s1.05-.116 2.691.575c-.001.001-10.897 15.28-14.549 21.943-.551-.537-.966-1.203-1.111-2.027z"/></g><g><path fill="#f8f5e0" d="M20.297 19.316c-4.383 6.48-8.684 13-12.913 19.576-.694 1.077 4.236 4.506 5.069 3.524a984.711 984.711 0 0 0 14.996-18.127c.869-1.077-6.377-6.119-7.152-4.973zm.671 6.562a.683.683 0 0 0-.933.149.635.635 0 0 0 .153.904.684.684 0 0 0 .934-.148.636.636 0 0 0-.154-.905zm-1.639 1.103l-1.519 2.052a.637.637 0 0 0 .153.904.684.684 0 0 0 .933-.149l1.519-2.051a1.415 1.415 0 0 1-.643-.242 1.342 1.342 0 0 1-.443-.514zm2.414-2.15a.684.684 0 0 0-.933.149l-.069.093c.225.026.447.105.644.242s.346.315.443.513l.069-.093a.637.637 0 0 0-.154-.904zm.417-.563c.62.431.762 1.271.318 1.871l-3.001 4.054c-.444.6-1.311.738-1.931.307a1.316 1.316 0 0 1-.317-1.871l3-4.053a1.414 1.414 0 0 1 1.931-.308zM8.662 42.655l-.15-.102a33.12 33.12 0 0 1-.26-.186c-.924.992-1.301 2.291-.879 3.705.584 1.956 2.134 2.988 4.198 2.983a.233.233 0 0 0 .211-.255.236.236 0 0 0-.262-.205c-1.821.005-3.177-.936-3.689-2.652-.425-1.424-.01-2.47.831-3.288zm19.366-16.834a987.54 987.54 0 0 1-14.47 17.475c-.724.854-1.867.779-2.835.438a8.396 8.396 0 0 1-1.48-.71c-.729.667-1.081 1.532-.725 2.727.411 1.377 1.454 2.232 2.963 2.152.508-.027.958.33 1.013.823a.932.932 0 0 1-.884 1.021c-2.423.128-4.257-1.248-4.924-3.482-.479-1.605-.112-3.22.96-4.374a7.84 7.84 0 0 1-.997-.99c-.639-.774-1.078-1.812-.479-2.743a1013.213 1013.213 0 0 1 12.48-18.935 9.703 9.703 0 0 1-.606-3.383c0-5.515 4.613-9.985 10.303-9.985 5.691 0 10.303 4.47 10.303 9.985s-4.612 9.986-10.303 9.986c-.107 0-.213-.002-.319-.005zm-8.278-7.848zm5.574 1.87c1.179.82 3.959 2.825 3.602 4.578 4.631-.29 8.294-4.02 8.294-8.581 0-4.749-3.972-8.599-8.873-8.599-4.9 0-8.873 3.85-8.873 8.599 0 .736.096 1.451.276 2.133 1.609-.817 4.408 1.059 5.574 1.87z"/><path fill="none" stroke="#4f2833" stroke-miterlimit="20" stroke-width=".5" d="M20.297 19.316c-4.383 6.48-8.684 13-12.913 19.576-.694 1.077 4.236 4.506 5.069 3.524a984.711 984.711 0 0 0 14.996-18.127c.869-1.077-6.377-6.119-7.152-4.973zm.671 6.562a.683.683 0 0 0-.933.149.635.635 0 0 0 .153.904.684.684 0 0 0 .934-.148.636.636 0 0 0-.154-.905zm-1.639 1.103l-1.519 2.052a.637.637 0 0 0 .153.904.684.684 0 0 0 .933-.149l1.519-2.051a1.415 1.415 0 0 1-.643-.242 1.342 1.342 0 0 1-.443-.514zm2.414-2.15a.684.684 0 0 0-.933.149l-.069.093c.225.026.447.105.644.242s.346.315.443.513l.069-.093a.637.637 0 0 0-.154-.904zm.417-.563c.62.431.762 1.271.318 1.871l-3.001 4.054c-.444.6-1.311.738-1.931.307a1.316 1.316 0 0 1-.317-1.871l3-4.053a1.414 1.414 0 0 1 1.931-.308zM8.662 42.655l-.15-.102a33.12 33.12 0 0 1-.26-.186c-.924.992-1.301 2.291-.879 3.705.584 1.956 2.134 2.988 4.198 2.983a.233.233 0 0 0 .211-.255.236.236 0 0 0-.262-.205c-1.821.005-3.177-.936-3.689-2.652-.425-1.424-.01-2.47.831-3.288zm19.366-16.834a987.54 987.54 0 0 1-14.47 17.475c-.724.854-1.867.779-2.835.438a8.396 8.396 0 0 1-1.48-.71c-.729.667-1.081 1.532-.725 2.727.411 1.377 1.454 2.232 2.963 2.152.508-.027.958.33 1.013.823a.932.932 0 0 1-.884 1.021c-2.423.128-4.257-1.248-4.924-3.482-.479-1.605-.112-3.22.96-4.374a7.84 7.84 0 0 1-.997-.99c-.639-.774-1.078-1.812-.479-2.743a1013.213 1013.213 0 0 1 12.48-18.935 9.703 9.703 0 0 1-.606-3.383c0-5.515 4.613-9.985 10.303-9.985 5.691 0 10.303 4.47 10.303 9.985s-4.612 9.986-10.303 9.986c-.107 0-.213-.002-.319-.005zm-8.278-7.848s0 0 0 0 0 0 0 0zm5.574 1.87c1.179.82 3.959 2.825 3.602 4.578 4.631-.29 8.294-4.02 8.294-8.581 0-4.749-3.972-8.599-8.873-8.599-4.9 0-8.873 3.85-8.873 8.599 0 .736.096 1.451.276 2.133 1.609-.817 4.408 1.059 5.574 1.87z"/></g></g></g></svg>