<svg xmlns="http://www.w3.org/2000/svg" width="92" height="94" viewBox="0 0 46 47"><g><g><g><g><g><path fill="#f8f5e0" d="M14.793 15.817s-1.417 12.28 4.298 16.625c5.715 4.345 11.902 0 12.043-.472.142-.473.661-12.847-4.203-17.05-4.865-4.203-12.138.897-12.138.897z"/><path fill="none" stroke="#4f2833" stroke-miterlimit="20" stroke-width=".5" d="M14.793 15.817v0s-1.417 12.28 4.298 16.625c5.715 4.345 11.902 0 12.043-.472.142-.473.661-12.847-4.203-17.05-4.865-4.203-12.138.897-12.138.897v0z"/></g><g><path fill="#f8f5e0" d="M26.626 15.272c4.507 3.895 4.238 15.338 4.07 16.514-.32.335-2.229 1.657-4.795 2.015-2.385.333-4.582-.25-6.528-1.73-5.034-3.827-4.287-14.355-4.138-15.987 1.11-.714 7.262-4.379 11.391-.812zm-2.01 19.555c1.248 0 2.387-.241 3.332-.549 1.86-.605 3.48-1.666 3.632-2.175.176-.587.737-13.145-4.345-17.535-2.116-1.829-4.998-2.251-8.335-1.221-2.468.763-4.298 2.035-4.374 2.089l-.172.12-.024.208c-.014.127-.355 3.161.006 6.783.491 4.928 1.996 8.382 4.473 10.266 1.993 1.515 4.013 2.014 5.807 2.014z"/><path fill="none" stroke="#4f2833" stroke-miterlimit="20" stroke-width=".5" d="M26.626 15.272c4.507 3.895 4.238 15.338 4.07 16.514-.32.335-2.229 1.657-4.795 2.015-2.385.333-4.582-.25-6.528-1.73-5.034-3.827-4.287-14.355-4.138-15.987 1.11-.714 7.262-4.379 11.391-.812zm-2.01 19.555c1.248 0 2.387-.241 3.332-.549 1.86-.605 3.48-1.666 3.632-2.175.176-.587.737-13.145-4.345-17.535-2.116-1.829-4.998-2.251-8.335-1.221-2.468.763-4.298 2.035-4.374 2.089l-.172.12-.024.208c-.014.127-.355 3.161.006 6.783.491 4.928 1.996 8.382 4.473 10.266 1.993 1.515 4.013 2.014 5.807 2.014z"/></g></g><g><g><path fill="#f8f5e0" d="M6.504 23.492s.071 3.944 1.134 7.226 5.148 6.069 5.148 6.069l4.345-6.116s-3.353-7.132-3.519-7.203zm21.844-7.557l3.329 8.478 8.053-.378-.095-2.55s-1.109-3.849-2.267-5.668c-1.157-1.818-3.495-4.179-3.495-4.179z"/><path fill="none" stroke="#4f2833" stroke-miterlimit="20" stroke-width=".5" d="M6.504 23.492s.071 3.944 1.134 7.226 5.148 6.069 5.148 6.069l4.345-6.116s-3.353-7.132-3.519-7.203zm21.844-7.557l3.329 8.478 8.053-.378-.095-2.55s-1.109-3.849-2.267-5.668c-1.157-1.818-3.495-4.179-3.495-4.179z"/></g><g><path fill="#f8f5e0" d="M28.908 16.089l3.081 7.843 7.258-.34-.075-2.032c-.138-.468-1.161-3.866-2.196-5.492-.881-1.384-2.493-3.121-3.147-3.806zm2.458 8.805l-3.579-9.112 6.127-4.765.29.293c.097.098 2.387 2.418 3.557 4.257 1.18 1.854 2.276 5.629 2.322 5.789l.018.112.111 3.011zm-24.378-.938c.057 1.133.276 4.097 1.093 6.618.817 2.526 3.591 4.799 4.598 5.559l3.915-5.51c-1.107-2.349-2.773-5.838-3.237-6.688zm5.913 13.473l-.378-.257c-.172-.118-4.229-2.916-5.328-6.311-1.072-3.31-1.153-7.197-1.156-7.361l-.009-.472 7.677-.025.088.037c.212.091.329.14 3.757 7.433l.116.246z"/><path fill="none" stroke="#4f2833" stroke-miterlimit="20" stroke-width=".5" d="M28.908 16.089l3.081 7.843 7.258-.34-.075-2.032c-.138-.468-1.161-3.866-2.196-5.492-.881-1.384-2.493-3.121-3.147-3.806zm2.458 8.805l-3.579-9.112 6.127-4.765.29.293c.097.098 2.387 2.418 3.557 4.257 1.18 1.854 2.276 5.629 2.322 5.789l.018.112.111 3.011zm-24.378-.938c.057 1.133.276 4.097 1.093 6.618.817 2.526 3.591 4.799 4.598 5.559l3.915-5.51c-1.107-2.349-2.773-5.838-3.237-6.688zm5.913 13.473l-.378-.257c-.172-.118-4.229-2.916-5.328-6.311-1.072-3.31-1.153-7.197-1.156-7.361l-.009-.472 7.677-.025.088.037c.212.091.329.14 3.757 7.433l.116.246z"/></g></g><g><g><path fill="#f8f5e0" d="M38.934 22.787h-7.391l-.017-.122-.016-.107-.019-.117-.018-.1-.02-.103-.021-.104-.025-.115-.023-.1-.029-.118-.021-.082-.032-.119-.027-.095-.037-.123-.021-.067-.042-.131-.028-.082a4.47 4.47 0 0 0-.044-.124l-.026-.071a8 8 0 0 0-.053-.141l-.022-.055a5.28 5.28 0 0 0-.055-.133l-.026-.064-.061-.139-.023-.05a9.022 9.022 0 0 0-.067-.144l-.022-.046-.072-.144-.02-.039a11.994 11.994 0 0 0-.082-.156l-.018-.033a18.901 18.901 0 0 0-.081-.145l-.018-.03-.092-.158-.017-.027a19.95 19.95 0 0 0-.096-.154l-.011-.017a6.103 6.103 0 0 0-.103-.156l-.015-.023-.109-.157-.01-.013a5.291 5.291 0 0 0-.11-.151l-.012-.017a6.193 6.193 0 0 0-.118-.153l-.011-.014-.12-.15-.007-.008-.128-.151-.011-.013a9.264 9.264 0 0 0-.131-.148l4.768-5.647a16.021 16.021 0 0 1 4.81 10.356zM6.867 25.089h7.39l.018.122.016.107.02.118.018.098.02.105.02.103a4.752 4.752 0 0 0 .049.216l.029.118.02.08.033.12.027.095.036.123.022.069.042.13.028.082.043.124.026.07.053.14v.003h.002v.005h.002v.002h.001v.006h.002v.002h.001v.002h.001v.006h.002v.002h.001v.002h.001v.003h.001v.003h.001v.002h.001v.002l.001.001v.002l.001.001v.002l.001.001.001.002v.001h.001v.003l.001.001v.002l.001.001v.001l.054.132.026.062.062.14.022.05.067.142.024.051.069.139.022.043.081.154.02.035c.026.049.053.096.08.144l.017.03.092.156.019.03.093.15.014.022.101.153.016.024.108.155.011.016.109.15.013.016c.038.052.078.103.117.154l.012.014c.039.05.079.1.12.149l.007.009c.042.05.084.101.127.15l.011.013c.044.05.087.1.132.149l-4.768 5.646a16.027 16.027 0 0 1-4.811-10.356zM22.9 22.736a1.203 1.203 0 1 1 0 2.405 1.203 1.203 0 0 1 0-2.405zm-2.542 1.202a2.542 2.542 0 1 0 5.081 0 2.542 2.542 0 0 0-5.081 0zm2.542-5.249a5.249 5.249 0 1 1 0 10.499 5.25 5.25 0 1 1 0-10.499zM5.487 23.938c0 9.618 7.797 17.414 17.414 17.414s17.413-7.796 17.413-17.414c0-9.617-7.796-17.413-17.413-17.413S5.487 14.321 5.487 23.938z"/><path fill="none" stroke="#4f2833" stroke-miterlimit="20" stroke-width=".5" d="M38.934 22.787h-7.391l-.017-.122-.016-.107-.019-.117-.018-.1-.02-.103-.021-.104-.025-.115-.023-.1-.029-.118-.021-.082-.032-.119-.027-.095-.037-.123-.021-.067-.042-.131-.028-.082a4.47 4.47 0 0 0-.044-.124l-.026-.071a8 8 0 0 0-.053-.141l-.022-.055a5.28 5.28 0 0 0-.055-.133l-.026-.064-.061-.139-.023-.05a9.022 9.022 0 0 0-.067-.144l-.022-.046-.072-.144-.02-.039a11.994 11.994 0 0 0-.082-.156l-.018-.033a18.901 18.901 0 0 0-.081-.145l-.018-.03-.092-.158-.017-.027a19.95 19.95 0 0 0-.096-.154l-.011-.017a6.103 6.103 0 0 0-.103-.156l-.015-.023-.109-.157-.01-.013a5.291 5.291 0 0 0-.11-.151l-.012-.017a6.193 6.193 0 0 0-.118-.153l-.011-.014-.12-.15-.007-.008-.128-.151-.011-.013a9.264 9.264 0 0 0-.131-.148l4.768-5.647a16.021 16.021 0 0 1 4.81 10.356zM6.867 25.089h7.39l.018.122.016.107.02.118.018.098.02.105.02.103a4.752 4.752 0 0 0 .049.216l.029.118.02.08.033.12.027.095.036.123.022.069.042.13.028.082.043.124.026.07.053.14h0v.003h.002v.002h0v.003h.002v.002h.001v.003h0v.003h.002v.002h.001v.002h.001v.003h0v.003h.002v.002h.001v.002h.001v.003h.001v.003h.001v.002h.001v.002l.001.001v.002l.001.001v.002l.001.001v0l.001.002v.001h.001v.003l.001.001v.002l.001.001v.001l.054.132.026.062.062.14.022.05.067.142.024.051.069.139.022.043.081.154.02.035c.026.049.053.096.08.144l.017.03.092.156.019.03.093.15.014.022.101.153.016.024.108.155.011.016.109.15.013.016c.038.052.078.103.117.154l.012.014c.039.05.079.1.12.149l.007.009c.042.05.084.101.127.15l.011.013c.044.05.087.1.132.149l-4.768 5.646a16.027 16.027 0 0 1-4.811-10.356zM22.9 22.736a1.203 1.203 0 1 1 0 2.405 1.203 1.203 0 0 1 0-2.405zm-2.542 1.202a2.542 2.542 0 1 0 5.081 0 2.542 2.542 0 0 0-5.081 0zm2.542-5.249a5.249 5.249 0 1 1 0 10.499 5.25 5.25 0 1 1 0-10.499zM5.487 23.938c0 9.618 7.797 17.414 17.414 17.414s17.413-7.796 17.413-17.414c0-9.617-7.796-17.413-17.413-17.413S5.487 14.321 5.487 23.938z"/></g><g><path fill="#f8f5e0" d="M31.617 21.038l-.356-.906a7.058 7.058 0 0 0-.071-.152l-.023-.048-.076-.153-.021-.04a9.18 9.18 0 0 0-.087-.166l-.019-.034a7.276 7.276 0 0 0-.085-.152l-.018-.031-.098-.166-.018-.031c-.033-.053-.066-.107-.113-.179a9.96 9.96 0 0 0-.646-.886l-.017-.02 4.183-4.954a15.573 15.573 0 0 1 4.275 9.202h-6.485zm7.782 1.717a16.505 16.505 0 0 0-4.95-10.657l-.358-.35-5.355 6.341.275.302.135.152.127.151.125.155.124.162a7.145 7.145 0 0 1 .229.324 8.264 8.264 0 0 1 .198.308l.017.028.087.147.111.199.078.147.399.905.539 2.184h8.254zm-15.761 1.183a.738.738 0 1 1-1.473-.001.738.738 0 0 1 1.473.001zm.931 0a1.67 1.67 0 0 0-3.337 0c0 .92.749 1.669 1.669 1.669a1.67 1.67 0 0 0 1.668-1.669zm.408 0a2.079 2.079 0 0 1-2.076 2.076 2.078 2.078 0 0 1-2.076-2.076c0-1.144.931-2.075 2.076-2.075 1.144 0 2.076.931 2.076 2.075zm.931 0a3.01 3.01 0 0 0-3.007-3.007 3.01 3.01 0 0 0-3.007 3.007 3.01 3.01 0 0 0 3.007 3.007 3.01 3.01 0 0 0 3.007-3.007zm1.777 0a4.79 4.79 0 0 1-4.784 4.784 4.79 4.79 0 0 1-4.784-4.784 4.79 4.79 0 0 1 4.784-4.784 4.79 4.79 0 0 1 4.784 4.784zm.931 0a5.722 5.722 0 0 0-5.715-5.715 5.721 5.721 0 0 0-5.715 5.715 5.721 5.721 0 0 0 5.715 5.716 5.722 5.722 0 0 0 5.715-5.716zm-14.757 1.617l.192.845.401 1.144.065.148.216.448.086.163.122.218c.031.055.064.11.097.165l.019.032.113.18a7.164 7.164 0 0 0 .249.367 9.515 9.515 0 0 0 .264.353l.134.165.016.02-4.183 4.954a15.576 15.576 0 0 1-4.275-9.202zm3.206 4.233l-.274-.302-.135-.153a7.187 7.187 0 0 1-.251-.305 8.315 8.315 0 0 1-.124-.161l-.114-.157-.118-.171a6.365 6.365 0 0 1-.196-.305l-.018-.03a19.256 19.256 0 0 1-.087-.148l-.275-.517-.418.205.395-.253-.142-.315-.334-.934-.308-1.619H6.368l.035.499a16.502 16.502 0 0 0 4.95 10.657l.358.349zm22.784-5.85c0 9.345-7.603 16.948-16.948 16.948S5.953 33.283 5.953 23.938 13.556 6.99 22.901 6.99s16.948 7.603 16.948 16.948zm.931 0c0-9.858-8.021-17.879-17.879-17.879-9.859 0-17.879 8.021-17.879 17.879 0 9.859 8.02 17.88 17.879 17.88 9.858 0 17.879-8.021 17.879-17.88z"/><path fill="none" stroke="#4f2833" stroke-miterlimit="20" stroke-width=".5" d="M31.617 21.038l-.356-.906a7.058 7.058 0 0 0-.071-.152l-.023-.048-.076-.153-.021-.04a9.18 9.18 0 0 0-.087-.166l-.019-.034a7.276 7.276 0 0 0-.085-.152l-.018-.031-.098-.166-.018-.031c-.033-.053-.066-.107-.113-.179a9.96 9.96 0 0 0-.646-.886l-.017-.02 4.183-4.954a15.573 15.573 0 0 1 4.275 9.202h-6.485zm7.782 1.717a16.505 16.505 0 0 0-4.95-10.657l-.358-.35-5.355 6.341.275.302.135.152.127.151.125.155.124.162a7.145 7.145 0 0 1 .229.324 8.264 8.264 0 0 1 .198.308l.017.028.087.147.111.199.078.147.399.905.539 2.184h8.254zm-15.761 1.183a.738.738 0 1 1-1.473-.001.738.738 0 0 1 1.473.001zm.931 0a1.67 1.67 0 0 0-3.337 0c0 .92.749 1.669 1.669 1.669a1.67 1.67 0 0 0 1.668-1.669zm.408 0a2.079 2.079 0 0 1-2.076 2.076 2.078 2.078 0 0 1-2.076-2.076c0-1.144.931-2.075 2.076-2.075 1.144 0 2.076.931 2.076 2.075zm.931 0a3.01 3.01 0 0 0-3.007-3.007 3.01 3.01 0 0 0-3.007 3.007 3.01 3.01 0 0 0 3.007 3.007 3.01 3.01 0 0 0 3.007-3.007zm1.777 0a4.79 4.79 0 0 1-4.784 4.784 4.79 4.79 0 0 1-4.784-4.784 4.79 4.79 0 0 1 4.784-4.784 4.79 4.79 0 0 1 4.784 4.784zm.931 0a5.722 5.722 0 0 0-5.715-5.715 5.721 5.721 0 0 0-5.715 5.715 5.721 5.721 0 0 0 5.715 5.716 5.722 5.722 0 0 0 5.715-5.716zm-14.757 1.617l.192.845.401 1.144.065.148.216.448.086.163.122.218c.031.055.064.11.097.165l.019.032.113.18a7.164 7.164 0 0 0 .249.367 9.515 9.515 0 0 0 .264.353l.134.165.016.02-4.183 4.954a15.576 15.576 0 0 1-4.275-9.202zm3.206 4.233l-.274-.302-.135-.153a7.187 7.187 0 0 1-.251-.305 8.315 8.315 0 0 1-.124-.161l-.114-.157-.118-.171a6.365 6.365 0 0 1-.196-.305l-.018-.03a19.256 19.256 0 0 1-.087-.148l-.275-.517-.418.205.395-.253-.142-.315-.334-.934-.308-1.619H6.368l.035.499a16.502 16.502 0 0 0 4.95 10.657l.358.349zm22.784-5.85c0 9.345-7.603 16.948-16.948 16.948S5.953 33.283 5.953 23.938 13.556 6.99 22.901 6.99s16.948 7.603 16.948 16.948zm.931 0c0-9.858-8.021-17.879-17.879-17.879-9.859 0-17.879 8.021-17.879 17.879 0 9.859 8.02 17.88 17.879 17.88 9.858 0 17.879-8.021 17.879-17.88z"/></g></g><g><g><path fill="#4f2833" d="M35.858 4.647c.771.25 1.243.923 1.054 1.503-.188.58-.965.846-1.736.596-.771-.251-1.243-.924-1.054-1.503.188-.58.966-.847 1.736-.596z"/></g><g><path fill="#4f2833" d="M35.28 5.02c.14 0 .288.022.434.07.274.089.51.253.65.452.065.094.166.278.105.464-.105.323-.642.462-1.149.297-.508-.165-.86-.593-.755-.916.074-.23.368-.367.715-.367zm.467 2.284c.749 0 1.404-.382 1.608-1.01.136-.417.052-.886-.229-1.286a2.19 2.19 0 0 0-1.124-.804c-1.014-.33-2.056.072-2.323.895-.272.837.322 1.754 1.353 2.09.24.078.482.115.715.115z"/></g></g><g><g><path fill="#4f2833" d="M38.43.76a.225.225 0 0 1 .143.282L36.912 6.15a.223.223 0 0 1-.424-.138l1.66-5.108A.225.225 0 0 1 38.43.76z"/></g><g><path fill="#4f2833" d="M36.699 6.77a.69.69 0 0 1-.654-.902L37.705.76a.69.69 0 0 1 .868-.443l.002.001a.69.69 0 0 1 .441.868l-1.661 5.108a.69.69 0 0 1-.656.476z"/></g></g><g><g><path fill="#4f2833" d="M39.169 8.042c1.212-.12 2.269.521 2.359 1.433.091.912-.818 1.75-2.031 1.87-1.213.121-2.269-.521-2.36-1.433-.09-.912.819-1.749 2.032-1.87z"/></g><g><path fill="#4f2833" d="M39.464 8.493c.395 0 .766.096 1.064.277.317.193.508.459.537.751.064.644-.675 1.267-1.614 1.361-.939.092-1.786-.372-1.85-1.016-.029-.292.105-.591.379-.843.309-.285.748-.469 1.234-.517h.001c.083-.009.167-.013.249-.013zm.079 3.316c1.466-.146 2.565-1.214 2.449-2.38-.059-.59-.407-1.107-.981-1.455-.531-.323-1.203-.464-1.889-.395-.686.068-1.316.338-1.773.759-.494.454-.734 1.03-.675 1.62.107 1.077 1.213 1.867 2.536 1.867.11 0 .221-.005.333-.016z"/></g></g></g><g><g><path fill="#4f2833" d="M40.362 1.137a.336.336 0 0 1 .367.301l.799 8.037a.337.337 0 0 1-.301.368.337.337 0 0 1-.367-.301l-.799-8.038a.337.337 0 0 1 .301-.367z"/></g><g><path fill="#4f2833" d="M41.194 10.31a.802.802 0 0 1-.797-.722l-.8-8.038a.802.802 0 0 1 1.595-.158l.8 8.037a.803.803 0 0 1-.798.881z"/></g></g></g></g></svg>