<svg xmlns="http://www.w3.org/2000/svg" width="104" height="98" viewBox="0 0 52 49"><g><g><g><g><path fill="#f8f5e0" d="M45.02 24.553v16.023c0 1.299-1.009 2.352-2.253 2.352H8.963c-1.244 0-2.253-1.053-2.253-2.352V24.553"/><path fill="none" stroke="#4f2833" stroke-miterlimit="20" stroke-width=".5" d="M45.02 24.553v16.023c0 1.299-1.009 2.352-2.253 2.352H8.963c-1.244 0-2.253-1.053-2.253-2.352V24.553v0"/></g><g><path fill="#f8f5e0" d="M42.767 43.54H8.963c-1.58 0-2.866-1.33-2.866-2.964V24.553h1.225v16.023c0 .959.736 1.74 1.641 1.74h33.804c.905 0 1.641-.781 1.641-1.74V24.553h1.224v16.023c0 1.634-1.285 2.964-2.865 2.964z"/><path fill="none" stroke="#4f2833" stroke-miterlimit="20" stroke-width=".5" d="M42.767 43.54H8.963c-1.58 0-2.866-1.33-2.866-2.964V24.553v0h1.225v16.023c0 .959.736 1.74 1.641 1.74h33.804c.905 0 1.641-.781 1.641-1.74V24.553v0h1.224v16.023c0 1.634-1.285 2.964-2.865 2.964z"/></g></g><g transform="rotate(12.15 26.64 12.535)"><path fill="#f8f5e0" d="M6.865 15.016v-4.963h39.551v4.963z"/><path fill="none" stroke="#4f2833" stroke-miterlimit="20" stroke-width=".5" d="M6.865 15.016v0-4.963 0h39.551v4.963z"/></g><g><path fill="#f8f5e0" d="M5.78 24.478v-4.964h39.55v4.964z"/><path fill="none" stroke="#4f2833" stroke-miterlimit="20" stroke-width=".5" d="M5.78 24.478v0-4.964 0h39.55v4.964z"/></g><g><g><path fill="#4f2833" d="M45.606 19.272l1.044-4.852-.61-.132-6.404 3.698z"/></g><g><path fill="#4f2833" d="M13.019 7.178L7.985 6.095l-.98 4.556z"/></g><g><path fill="#4f2833" d="M16.727 7.977l-6.405 3.698 5.892 1.268 6.406-3.698z"/></g><g><path fill="#4f2833" d="M30.503 16.02l5.424 1.168 6.405-3.698-5.424-1.168z"/></g><g><path fill="#4f2833" d="M19.923 13.742l6.871 1.48 6.405-3.699-6.87-1.48z"/></g></g><g><g><path fill="#4f2833" d="M45.313 24.49l.009-4.963h-.624l-5.492 4.953z"/></g><g><path fill="#4f2833" d="M10.92 19.468l-5.15-.01-.008 4.661z"/></g><g><path fill="#4f2833" d="M14.713 19.474L9.22 24.428l6.027.01 5.492-4.953z"/></g><g><path fill="#4f2833" d="M29.864 24.464l5.548.01 5.492-4.954-5.548-.01z"/></g><g><path fill="#4f2833" d="M19.042 24.445l7.028.012 5.492-4.953-7.028-.013z"/></g></g></g></g></svg>