<svg xmlns="http://www.w3.org/2000/svg" width="52" height="96" viewBox="0 0 26 48"><g><g><g><g><path fill="#f8f5e0" d="M13.043 42.234c-4.097 0-7.427-3.333-7.427-7.43a7.433 7.433 0 0 1 7.427-7.427c4.096 0 7.43 3.33 7.43 7.427 0 4.097-3.334 7.43-7.43 7.43zm0-15.376c-4.381 0-7.946 3.565-7.946 7.946 0 4.382 3.565 7.947 7.946 7.947 4.382 0 7.947-3.565 7.947-7.947 0-4.381-3.565-7.946-7.947-7.946z"/><path fill="none" stroke="#4f2833" stroke-miterlimit="20" stroke-width=".25" d="M13.043 42.234c-4.097 0-7.427-3.333-7.427-7.43a7.433 7.433 0 0 1 7.427-7.427c4.096 0 7.43 3.33 7.43 7.427 0 4.097-3.334 7.43-7.43 7.43zm0-15.376c-4.381 0-7.946 3.565-7.946 7.946 0 4.382 3.565 7.947 7.946 7.947 4.382 0 7.947-3.565 7.947-7.947 0-4.381-3.565-7.946-7.947-7.946z"/></g><g><path fill="#f8f5e0" d="M20.011 34.804a6.976 6.976 0 0 1-6.968 6.968c-3.841 0-6.965-3.126-6.965-6.968a6.972 6.972 0 0 1 6.965-6.965c3.842 0 6.968 3.124 6.968 6.965zm1.44 0c0-4.636-3.771-8.408-8.408-8.408-4.636 0-8.408 3.772-8.408 8.408 0 4.637 3.772 8.408 8.408 8.408 4.637 0 8.408-3.771 8.408-8.408z"/><path fill="none" stroke="#4f2833" stroke-miterlimit="20" stroke-width=".25" d="M20.011 34.804a6.976 6.976 0 0 1-6.968 6.968c-3.841 0-6.965-3.126-6.965-6.968a6.972 6.972 0 0 1 6.965-6.965c3.842 0 6.968 3.124 6.968 6.965zm1.44 0c0-4.636-3.771-8.408-8.408-8.408-4.636 0-8.408 3.772-8.408 8.408 0 4.637 3.772 8.408 8.408 8.408 4.637 0 8.408-3.771 8.408-8.408z"/></g></g><g><g><path fill="#f8f5e0" d="M9.9 23.78v-.62h6.286v.62z"/><path fill="none" stroke="#4f2833" stroke-miterlimit="20" stroke-width=".25" d="M9.9 23.78v0-.62 0h6.286v.62z"/></g><g><path fill="#f8f5e0" d="M9.44 24.241v-1.543h7.208v1.543z"/><path fill="none" stroke="#4f2833" stroke-miterlimit="20" stroke-width=".25" d="M9.44 24.241v0-1.543 0h7.208v1.543z"/></g></g><g><g><path fill="#f8f5e0" d="M16.153 21.413c.149 0 .289.03.421.079l3.904-15.181.575-2.236a.506.506 0 0 0-.482-.632h-5.996a.458.458 0 0 0-.208.044h-.002a.43.43 0 0 0-.271.323l-1.051 4.329c-.35-1.442-.701-2.887-1.048-4.329a.51.51 0 0 0-.482-.367H5.515a.506.506 0 0 0-.482.632 30806.622 30806.622 0 0 1 4.506 17.408c.125-.042.256-.07.394-.07z"/><path fill="none" stroke="#4f2833" stroke-miterlimit="20" stroke-width=".25" d="M16.153 21.413c.149 0 .289.03.421.079l3.904-15.181.575-2.236a.506.506 0 0 0-.482-.632h-.482v0h-5.514a.458.458 0 0 0-.208.044h-.002a.43.43 0 0 0-.271.323l-1.051 4.329c-.35-1.442-.701-2.887-1.048-4.329a.51.51 0 0 0-.482-.367H5.999v0h-.484a.506.506 0 0 0-.482.632 30806.622 30806.622 0 0 1 4.506 17.408c.125-.042.256-.07.394-.07z"/></g><g><path fill="#f8f5e0" d="M9.879 20.952l-.3-1.159C8.214 14.514 6.848 9.238 5.48 3.961c-.005-.021.007-.038.035-.056h5.997c.011.001.031.01.034.013.347 1.442.698 2.888 1.048 4.33a.462.462 0 0 0 .898 0l1.033-4.327.009-.003a.527.527 0 0 0 .041-.013h5.514l.506.013a.052.052 0 0 1 .01.043l-4.369 16.992-.083-.002h-6.22zm6.695 1.001a.462.462 0 0 0 .447-.346L21.5 4.189a.968.968 0 0 0-.929-1.208h-5.996a.943.943 0 0 0-.331.058l-.025.008-.031.012-.02.009a.897.897 0 0 0-.523.632l-.602 2.481-.6-2.482a.976.976 0 0 0-.93-.718H5.515a.968.968 0 0 0-.929 1.21C5.954 9.47 7.32 14.746 8.685 20.024l.407 1.575a.463.463 0 0 0 .596.322.76.76 0 0 1 .245-.046h6.22c.083 0 .169.016.263.05a.454.454 0 0 0 .158.028z"/><path fill="none" stroke="#4f2833" stroke-miterlimit="20" stroke-width=".25" d="M9.879 20.952l-.3-1.159C8.214 14.514 6.848 9.238 5.48 3.961c-.005-.021.007-.038.035-.056h5.997c.011.001.031.01.034.013.347 1.442.698 2.888 1.048 4.33a.462.462 0 0 0 .898 0l1.033-4.327.009-.003a.527.527 0 0 0 .041-.013h5.514l.506.013a.052.052 0 0 1 .01.043l-4.369 16.992-.083-.002h-6.22zm6.695 1.001a.462.462 0 0 0 .447-.346L21.5 4.189a.968.968 0 0 0-.929-1.208h-5.996a.943.943 0 0 0-.331.058l-.025.008-.031.012-.02.009a.897.897 0 0 0-.523.632l-.602 2.481-.6-2.482a.976.976 0 0 0-.93-.718H5.515a.968.968 0 0 0-.929 1.21C5.954 9.47 7.32 14.746 8.685 20.024l.407 1.575a.463.463 0 0 0 .596.322.76.76 0 0 1 .245-.046h6.22c.083 0 .169.016.263.05a.454.454 0 0 0 .158.028z"/></g></g><g><g><path fill="#f8f5e0" d="M15.829 39.092l-2.786-1.464-2.786 1.464.533-3.102-2.254-2.197 3.114-.452 1.393-2.823 1.393 2.823 3.115.452-2.254 2.197zm-2.786-11.715a7.433 7.433 0 0 0-7.427 7.427c0 4.097 3.33 7.43 7.427 7.43 4.096 0 7.43-3.333 7.43-7.43 0-4.097-3.334-7.427-7.43-7.427z"/><path fill="none" stroke="#4f2833" stroke-miterlimit="20" stroke-width=".25" d="M15.829 39.092l-2.786-1.464-2.786 1.464.533-3.102-2.254-2.197 3.114-.452 1.393-2.823 1.393 2.823 3.115.452-2.254 2.197zm-2.786-11.715a7.433 7.433 0 0 0-7.427 7.427c0 4.097 3.33 7.43 7.427 7.43 4.096 0 7.43-3.333 7.43-7.43 0-4.097-3.334-7.427-7.43-7.427z"/></g><g><path fill="#f8f5e0" d="M12.828 37.219l-1.957 1.029.374-2.18a.464.464 0 0 0-.133-.409l-1.584-1.543 2.189-.318a.466.466 0 0 0 .348-.253l.978-1.983.979 1.983a.462.462 0 0 0 .348.253l2.189.318-1.584 1.543a.46.46 0 0 0-.133.409l.374 2.18-1.958-1.029a.465.465 0 0 0-.43 0zm3.273 2.247a.46.46 0 0 0 .183-.452l-.491-2.863 2.08-2.027a.461.461 0 0 0-.256-.788l-2.874-.417-1.286-2.605a.46.46 0 0 0-.828 0l-1.285 2.605-2.875.417a.462.462 0 0 0-.256.788l2.08 2.027-.491 2.863a.464.464 0 0 0 .67.487l2.571-1.352 2.571 1.352a.459.459 0 0 0 .487-.035zm3.91-4.662a6.976 6.976 0 0 1-6.968 6.968c-3.841 0-6.965-3.126-6.965-6.968a6.972 6.972 0 0 1 6.965-6.965c3.842 0 6.968 3.124 6.968 6.965zm.923 0c0-4.35-3.54-7.889-7.891-7.889-4.35 0-7.889 3.539-7.889 7.889 0 4.351 3.539 7.891 7.889 7.891 4.351 0 7.891-3.54 7.891-7.891z"/><path fill="none" stroke="#4f2833" stroke-miterlimit="20" stroke-width=".25" d="M12.828 37.219l-1.957 1.029.374-2.18a.464.464 0 0 0-.133-.409l-1.584-1.543 2.189-.318a.466.466 0 0 0 .348-.253l.978-1.983.979 1.983a.462.462 0 0 0 .348.253l2.189.318-1.584 1.543a.46.46 0 0 0-.133.409l.374 2.18-1.958-1.029a.465.465 0 0 0-.43 0zm3.273 2.247a.46.46 0 0 0 .183-.452l-.491-2.863 2.08-2.027a.461.461 0 0 0-.256-.788l-2.874-.417-1.286-2.605a.46.46 0 0 0-.828 0l-1.285 2.605-2.875.417a.462.462 0 0 0-.256.788l2.08 2.027-.491 2.863a.464.464 0 0 0 .67.487l2.571-1.352 2.571 1.352a.459.459 0 0 0 .487-.035zm3.91-4.662a6.976 6.976 0 0 1-6.968 6.968c-3.841 0-6.965-3.126-6.965-6.968a6.972 6.972 0 0 1 6.965-6.965c3.842 0 6.968 3.124 6.968 6.965zm.923 0c0-4.35-3.54-7.889-7.891-7.889-4.35 0-7.889 3.539-7.889 7.889 0 4.351 3.539 7.891 7.889 7.891 4.351 0 7.891-3.54 7.891-7.891z"/></g></g><g><g><path fill="#f8f5e0" d="M13.043 42.751c-4.381 0-7.946-3.565-7.946-7.947 0-4.381 3.565-7.946 7.946-7.946 4.382 0 7.947 3.565 7.947 7.946 0 4.382-3.565 7.947-7.947 7.947zM9.933 23.78c-.016 0-.032-.017-.032-.033v-.555c0-.017.016-.033.032-.033h6.22c.017 0 .033.016.033.033v.555c0 .016-.016.033-.033.033zm4.01 1.924v-.725h2.21c.679 0 1.232-.553 1.232-1.232v-.555c0-.531-.339-.98-.811-1.153a1.226 1.226 0 0 0-.421-.079h-6.22c-.138 0-.269.028-.394.071-.485.165-.837.62-.837 1.161v.555c0 .679.552 1.232 1.231 1.232h2.211v.725c-4.622.453-8.246 4.361-8.246 9.1 0 5.043 4.103 9.146 9.145 9.146 5.043 0 9.146-4.103 9.146-9.146 0-4.739-3.624-8.647-8.246-9.1z"/><path fill="none" stroke="#4f2833" stroke-miterlimit="20" stroke-width=".25" d="M13.043 42.751c-4.381 0-7.946-3.565-7.946-7.947 0-4.381 3.565-7.946 7.946-7.946 4.382 0 7.947 3.565 7.947 7.946 0 4.382-3.565 7.947-7.947 7.947zM9.933 23.78c-.016 0-.032-.017-.032-.033v-.555c0-.017.016-.033.032-.033h6.22c.017 0 .033.016.033.033v.555c0 .016-.016.033-.033.033zm4.01 1.924v-.725h2.21c.679 0 1.232-.553 1.232-1.232v-.555c0-.531-.339-.98-.811-1.153a1.226 1.226 0 0 0-.421-.079h-6.22c-.138 0-.269.028-.394.071-.485.165-.837.62-.837 1.161v.555c0 .679.552 1.232 1.231 1.232h2.211v.725c-4.622.453-8.246 4.361-8.246 9.1 0 5.043 4.103 9.146 9.145 9.146 5.043 0 9.146-4.103 9.146-9.146 0-4.739-3.624-8.647-8.246-9.1z"/></g><g><path fill="#f8f5e0" d="M16.648 23.747v-.555a.495.495 0 0 0-.495-.495h-6.22a.495.495 0 0 0-.494.495v.555c0 .272.222.494.494.494h6.22a.495.495 0 0 0 .495-.494zm3.88 11.057c0 4.127-3.358 7.485-7.485 7.485-4.127 0-7.484-3.358-7.484-7.485 0-4.127 3.357-7.484 7.484-7.484s7.485 3.357 7.485 7.484zm.923 0c0-4.636-3.771-8.408-8.408-8.408-4.636 0-8.408 3.772-8.408 8.408 0 4.637 3.772 8.408 8.408 8.408 4.637 0 8.408-3.771 8.408-8.408zm-5.298-12.382c.083 0 .169.016.262.051a.77.77 0 0 1 .508.719v.555a.77.77 0 0 1-.77.77h-2.21a.462.462 0 0 0-.462.462v.725c0 .237.18.436.417.459a8.65 8.65 0 0 1 7.829 8.641c0 4.788-3.896 8.684-8.684 8.684-4.788 0-8.683-3.896-8.683-8.684a8.65 8.65 0 0 1 7.829-8.641.461.461 0 0 0 .417-.459v-.725a.462.462 0 0 0-.462-.462H9.933a.77.77 0 0 1-.769-.77v-.555c0-.326.21-.617.525-.724a.75.75 0 0 1 .244-.046zm-3.11 21.989c5.298 0 9.607-4.309 9.607-9.607a9.564 9.564 0 0 0-7.447-9.363h.95c.934 0 1.694-.76 1.694-1.694v-.555c0-.705-.448-1.342-1.114-1.586a1.664 1.664 0 0 0-.58-.108h-6.22c-.177 0-.356.031-.543.096a1.69 1.69 0 0 0-1.15 1.598v.555c0 .934.76 1.694 1.693 1.694h.951a9.565 9.565 0 0 0-7.448 9.363c0 5.298 4.31 9.607 9.607 9.607z"/><path fill="none" stroke="#4f2833" stroke-miterlimit="20" stroke-width=".25" d="M16.648 23.747v-.555a.495.495 0 0 0-.495-.495h-6.22a.495.495 0 0 0-.494.495v.555c0 .272.222.494.494.494h6.22a.495.495 0 0 0 .495-.494zm3.88 11.057c0 4.127-3.358 7.485-7.485 7.485-4.127 0-7.484-3.358-7.484-7.485 0-4.127 3.357-7.484 7.484-7.484s7.485 3.357 7.485 7.484zm.923 0c0-4.636-3.771-8.408-8.408-8.408-4.636 0-8.408 3.772-8.408 8.408 0 4.637 3.772 8.408 8.408 8.408 4.637 0 8.408-3.771 8.408-8.408zm-5.298-12.382c.083 0 .169.016.262.051a.77.77 0 0 1 .508.719v.555a.77.77 0 0 1-.77.77h-2.21a.462.462 0 0 0-.462.462v.725c0 .237.18.436.417.459a8.65 8.65 0 0 1 7.829 8.641c0 4.788-3.896 8.684-8.684 8.684-4.788 0-8.683-3.896-8.683-8.684a8.65 8.65 0 0 1 7.829-8.641.461.461 0 0 0 .417-.459v-.725a.462.462 0 0 0-.462-.462H9.933a.77.77 0 0 1-.769-.77v-.555c0-.326.21-.617.525-.724a.75.75 0 0 1 .244-.046zm-3.11 21.989c5.298 0 9.607-4.309 9.607-9.607a9.564 9.564 0 0 0-7.447-9.363h.95c.934 0 1.694-.76 1.694-1.694v-.555c0-.705-.448-1.342-1.114-1.586a1.664 1.664 0 0 0-.58-.108h-6.22c-.177 0-.356.031-.543.096a1.69 1.69 0 0 0-1.15 1.598v.555c0 .934.76 1.694 1.693 1.694h.951a9.565 9.565 0 0 0-7.448 9.363c0 5.298 4.31 9.607 9.607 9.607z"/></g></g></g></g></svg>