<svg xmlns="http://www.w3.org/2000/svg" width="128" height="88" viewBox="0 0 64 44"><g><g><g><path fill="#82edad" d="M47.671 18.316a1.373 1.373 0 1 1 2.746 0 1.373 1.373 0 0 1-2.746 0z"/><path fill="none" stroke="#4f4931" stroke-miterlimit="20" stroke-width=".75" d="M47.671 18.316a1.373 1.373 0 1 1 2.746 0 1.373 1.373 0 0 1-2.746 0z"/></g><g><g><path fill="#f8f5e0" d="M29.977 9.969V8.422h4.596v1.547z"/><path fill="none" stroke="#4f2833" stroke-miterlimit="20" stroke-width=".75" d="M29.977 9.969v0-1.547 0h4.596v1.547z"/></g><g><g><path fill="#f8f5e0" d="M12.91 35.519a4.89 4.89 0 0 1-2.024-.442c-1.018-.458-4.112-1.848.583-17.31 1.533-5.049 6.129-8.442 11.436-8.442h19.043c5.303 0 9.897 3.393 11.43 8.442 4.695 15.461 1.601 16.852.585 17.309-3.341 1.494-6.422-1.079-9.403-3.567a61.202 61.202 0 0 0-2.124-1.722.645.645 0 0 1 .782-1.024c.737.563 1.464 1.171 2.167 1.758 2.801 2.338 5.446 4.546 8.051 3.381 1.926-.866 1.444-6.758-1.29-15.76-1.345-4.433-5.539-7.53-10.198-7.53H22.905c-4.736 0-8.837 3.026-10.204 7.53-2.734 9.002-3.216 14.894-1.289 15.76 2.605 1.165 5.251-1.044 8.051-3.383 2.051-1.713 4.171-3.484 6.533-4.201a.62.62 0 0 1 .187-.028h8.428a.643.643 0 0 1 0 1.287H26.28c-2.079.661-4.067 2.323-5.992 3.93-2.369 1.979-4.802 4.012-7.378 4.012z"/><path fill="none" stroke="#4f2833" stroke-miterlimit="20" stroke-width=".75" d="M12.91 35.519a4.89 4.89 0 0 1-2.024-.442c-1.018-.458-4.112-1.848.583-17.31 1.533-5.049 6.129-8.442 11.436-8.442h19.043c5.303 0 9.897 3.393 11.43 8.442 4.695 15.461 1.601 16.852.585 17.309-3.341 1.494-6.422-1.079-9.403-3.567a61.202 61.202 0 0 0-2.124-1.722.645.645 0 0 1 .782-1.024c.737.563 1.464 1.171 2.167 1.758 2.801 2.338 5.446 4.546 8.051 3.381 1.926-.866 1.444-6.758-1.29-15.76-1.345-4.433-5.539-7.53-10.198-7.53H22.905c-4.736 0-8.837 3.026-10.204 7.53-2.734 9.002-3.216 14.894-1.289 15.76 2.605 1.165 5.251-1.044 8.051-3.383 2.051-1.713 4.171-3.484 6.533-4.201a.62.62 0 0 1 .187-.028h8.428a.643.643 0 0 1 0 1.287H26.28c-2.079.661-4.067 2.323-5.992 3.93-2.369 1.979-4.802 4.012-7.378 4.012z"/></g></g><g transform="rotate(-46.496 39.495 25.37)"><path fill="#f8f5e0" d="M34.364 25.37a5.132 5.132 0 1 1 10.265 0 5.132 5.132 0 0 1-10.265 0z"/><path fill="none" stroke="#4f2833" stroke-miterlimit="20" stroke-width=".75" d="M34.364 25.37a5.132 5.132 0 1 1 10.265 0 5.132 5.132 0 0 1-10.265 0z"/></g><g><path fill="#f8f5e0" d="M42.011 25.369a2.514 2.514 0 1 1-5.028 0 2.514 2.514 0 0 1 5.028 0z"/><path fill="none" stroke="#4f2833" stroke-miterlimit="20" stroke-width=".75" d="M42.011 25.369a2.514 2.514 0 1 1-5.028 0 2.514 2.514 0 0 1 5.028 0z"/></g><g><path fill="#f2dc80" d="M47.123 15.022a1.373 1.373 0 1 1-2.745 0 1.373 1.373 0 0 1 2.745 0z"/><path fill="none" stroke="#4f4931" stroke-miterlimit="20" stroke-width=".75" d="M47.123 15.022a1.373 1.373 0 1 1-2.745 0 1.373 1.373 0 0 1 2.745 0z"/></g><g><path fill="#818af0" d="M44.377 21.61a1.373 1.373 0 1 1 2.746 0 1.373 1.373 0 0 1-2.746 0z"/><path fill="none" stroke="#4f4931" stroke-miterlimit="20" stroke-width=".75" d="M44.377 21.61a1.373 1.373 0 1 1 2.746 0 1.373 1.373 0 0 1-2.746 0z"/></g><g><path fill="#f2809b" d="M41.084 18.316a1.373 1.373 0 1 1 2.746 0 1.373 1.373 0 0 1-2.746 0z"/><path fill="none" stroke="#4f4931" stroke-miterlimit="20" stroke-width=".75" d="M41.084 18.316a1.373 1.373 0 1 1 2.746 0 1.373 1.373 0 0 1-2.746 0z"/></g><g><path fill="#f5b580" d="M25.382 17.053h-2.4a.322.322 0 0 1-.322-.322v-2.4a.322.322 0 0 0-.322-.322h-1.882a.322.322 0 0 0-.321.322v2.4a.322.322 0 0 1-.322.322h-2.401a.322.322 0 0 0-.321.322v1.882c0 .178.144.322.321.322h2.401c.178 0 .322.144.322.321v2.401c0 .178.144.322.321.322h1.882a.322.322 0 0 0 .322-.322V19.9c0-.177.144-.321.322-.321h2.4a.322.322 0 0 0 .322-.322v-1.882a.322.322 0 0 0-.322-.322z"/><path fill="none" stroke="#4f4931" stroke-miterlimit="20" stroke-width=".75" d="M25.382 17.053h-2.4a.322.322 0 0 1-.322-.322v-2.4a.322.322 0 0 0-.322-.322h-1.882a.322.322 0 0 0-.321.322v2.4a.322.322 0 0 1-.322.322h-2.401a.322.322 0 0 0-.321.322v1.882c0 .178.144.322.321.322h2.401c.178 0 .322.144.322.321v2.401c0 .178.144.322.321.322h1.882a.322.322 0 0 0 .322-.322V19.9c0-.177.144-.321.322-.321h2.4a.322.322 0 0 0 .322-.322v-1.882a.322.322 0 0 0-.322-.322z"/></g><g><g><path fill="#f8f5e0" d="M30.397 22.254h-3.408a.643.643 0 0 1 0-1.288h3.408a.644.644 0 0 1 0 1.288z"/><path fill="none" stroke="#4f2833" stroke-miterlimit="20" stroke-width=".75" d="M30.397 22.254h-3.408a.643.643 0 0 1 0-1.288h3.408a.644.644 0 0 1 0 1.288z"/></g></g><g><g><path fill="#f8f5e0" d="M29.043 24.178h-1.815a.643.643 0 0 1 0-1.288h1.815a.644.644 0 1 1 0 1.288z"/><path fill="none" stroke="#4f2833" stroke-miterlimit="20" stroke-width=".75" d="M29.043 24.178h-1.815a.643.643 0 0 1 0-1.288h1.815a.644.644 0 1 1 0 1.288z"/></g></g></g></g></g></svg>